<svg width="506" height="317" viewBox="0 0 506 317" fill="none" xmlns="http://www.w3.org/2000/svg">
<path d="M101.695 2.99768C101.695 3.41372 101.819 3.82041 102.05 4.16633C102.281 4.51225 102.609 4.78186 102.994 4.94107C103.378 5.10028 103.801 5.14194 104.209 5.06078C104.617 4.97962 104.992 4.77928 105.286 4.48509C105.58 4.19091 105.781 3.8161 105.862 3.40806C105.943 3.00001 105.901 2.57706 105.742 2.19269C105.583 1.80832 105.313 1.4798 104.967 1.24866C104.621 1.01753 104.215 0.894165 103.799 0.894165C103.241 0.894165 102.706 1.11578 102.311 1.51026C101.917 1.90475 101.695 2.43979 101.695 2.99768Z" fill="#D0CCCB"/>
<path d="M84.0382 15.2373C84.0382 15.4771 92.8773 15.6623 103.798 15.6623C114.719 15.6623 123.558 15.4771 123.558 15.2373C123.558 14.9975 114.708 14.8231 103.798 14.8231C92.8882 14.8231 84.0382 14.9866 84.0382 15.2373Z" fill="#D0CCCB"/>
<path d="M84.0382 21.5261C84.0382 21.755 92.8773 21.9512 103.798 21.9512C114.719 21.9512 123.558 21.755 123.558 21.5261C123.558 21.2972 114.708 21.1119 103.798 21.1119C92.8882 21.1119 84.0382 21.2645 84.0382 21.5261Z" fill="#D0CCCB"/>
<path d="M84.0382 27.7495C84.0382 27.9784 92.8773 28.1746 103.798 28.1746C114.719 28.1746 123.558 27.9784 123.558 27.7495C123.558 27.5206 114.708 27.3353 103.798 27.3353C92.8882 27.3353 84.0382 27.5206 84.0382 27.7495Z" fill="#D0CCCB"/>
<path d="M84.0382 34.0055C84.0382 34.2343 92.8773 34.4305 103.798 34.4305C114.719 34.4305 123.558 34.2343 123.558 34.0055C123.558 33.7766 114.708 33.5913 103.798 33.5913C92.8882 33.5913 84.0382 33.7766 84.0382 34.0055Z" fill="#D0CCCB"/>
<path d="M84.0382 40.2616C84.0382 40.4905 92.8773 40.6866 103.798 40.6866C114.719 40.6866 123.558 40.4905 123.558 40.2616C123.558 40.0327 114.708 39.8474 103.798 39.8474C92.8882 39.8474 84.0382 40.0545 84.0382 40.2616Z" fill="#D0CCCB"/>
<path d="M84.0382 46.5177C84.0382 46.7465 92.8773 46.9427 103.798 46.9427C114.719 46.9427 123.558 46.7465 123.558 46.5177C123.558 46.2888 114.708 46.1035 103.798 46.1035C92.8882 46.1035 84.0382 46.2888 84.0382 46.5177Z" fill="#D0CCCB"/>
<path d="M84.0382 52.7737C84.0382 53.0025 92.8773 53.1987 103.798 53.1987C114.719 53.1987 123.558 53.0025 123.558 52.7737C123.558 52.5448 114.708 52.3595 103.798 52.3595C92.8882 52.3595 84.0382 52.5448 84.0382 52.7737Z" fill="#D0CCCB"/>
<path d="M505.288 301.044L447.762 262.199L169.019 260.87L156.267 301.632L505.288 301.044Z" fill="#3F3B3A"/>
<path d="M156.987 316.956L505.866 316.706V300.281L156.834 301.371L156.987 316.956Z" fill="#3F3B3A"/>
<path d="M165.542 301.283C165.542 301.436 240.888 301.534 333.792 301.491C426.695 301.447 502.051 301.283 502.051 301.12C502.051 300.956 426.728 300.869 333.792 300.913C240.855 300.956 165.542 301.12 165.542 301.283Z" fill="#1E1A1A"/>
<path d="M164.332 80.3266H360.897V205.361H164.332V80.3266Z" fill="white"/>
<path d="M325.497 80.3266H360.897V205.361H325.497V80.3266Z" fill="#EBEBEB"/>
<path d="M345.333 93.8196C345.149 93.7094 344.951 93.6251 344.744 93.569L344.624 92.9804H343.644L343.491 93.5581C343.285 93.6124 343.087 93.6929 342.902 93.7978L342.401 93.4709L341.693 94.1466L341.998 94.6589C341.888 94.8426 341.803 95.0407 341.747 95.2474L341.159 95.3673V96.3591L341.736 96.5008C341.783 96.7108 341.86 96.9128 341.965 97.1003L341.638 97.5907L342.325 98.2992L342.837 97.994C343.02 98.1076 343.218 98.1956 343.426 98.2556L343.545 98.8332H344.537L344.679 98.2556C344.885 98.2013 345.082 98.1207 345.268 98.0158L345.769 98.3428L346.477 97.6561L346.172 97.1439C346.282 96.9601 346.367 96.7621 346.423 96.5553L347.011 96.4354V95.4545L346.434 95.3128C346.385 95.1035 346.308 94.9018 346.205 94.7134L346.532 94.212L345.845 93.5036L345.333 93.8087V93.8196ZM344.81 95.1384C345 95.3406 345.106 95.6076 345.106 95.885C345.106 96.1625 345 96.4295 344.81 96.6316C344.607 96.8248 344.338 96.9326 344.058 96.9326C343.778 96.9326 343.508 96.8248 343.306 96.6316C343.181 96.4206 343.132 96.1739 343.165 95.9313C343.198 95.6886 343.312 95.4643 343.488 95.2943C343.665 95.1243 343.893 95.0187 344.137 94.9943C344.38 94.97 344.625 95.0285 344.832 95.1602L344.81 95.1384Z" fill="#D0CCCB"/>
<path d="M337.159 121.449H352.57C352.778 121.449 352.985 121.408 353.177 121.327C353.37 121.247 353.544 121.13 353.691 120.982C353.838 120.834 353.954 120.659 354.033 120.466C354.112 120.273 354.152 120.066 354.15 119.858C354.15 119.438 353.984 119.036 353.687 118.74C353.391 118.444 352.989 118.277 352.57 118.277H337.137C336.928 118.276 336.722 118.316 336.529 118.394C336.336 118.473 336.16 118.589 336.012 118.736C335.864 118.883 335.747 119.058 335.667 119.25C335.587 119.443 335.546 119.649 335.546 119.858C335.546 120.068 335.587 120.277 335.669 120.472C335.75 120.666 335.869 120.842 336.019 120.99C336.169 121.139 336.347 121.255 336.543 121.334C336.739 121.413 336.948 121.452 337.159 121.449Z" fill="#D0CCCB"/>
<path d="M337.159 113.373H352.57C352.99 113.37 353.392 113.201 353.688 112.903C353.984 112.605 354.15 112.201 354.15 111.781C354.15 111.362 353.984 110.96 353.687 110.664C353.391 110.367 352.989 110.201 352.57 110.201H337.137C336.928 110.2 336.722 110.239 336.529 110.318C336.336 110.397 336.16 110.513 336.012 110.66C335.864 110.807 335.747 110.982 335.667 111.174C335.587 111.366 335.546 111.573 335.546 111.781C335.546 111.992 335.587 112.201 335.669 112.395C335.75 112.59 335.869 112.766 336.019 112.914C336.169 113.062 336.347 113.179 336.543 113.258C336.739 113.336 336.948 113.375 337.159 113.373Z" fill="#D0CCCB"/>
<path d="M337.159 105.972H352.57C352.989 105.972 353.391 105.806 353.687 105.509C353.984 105.213 354.15 104.811 354.15 104.392C354.15 103.972 353.984 103.568 353.688 103.27C353.392 102.972 352.99 102.803 352.57 102.8H337.137C336.724 102.806 336.33 102.972 336.037 103.262C335.744 103.553 335.576 103.946 335.567 104.359C335.563 104.57 335.601 104.78 335.679 104.976C335.757 105.173 335.874 105.351 336.022 105.502C336.171 105.652 336.348 105.771 336.543 105.852C336.738 105.933 336.947 105.974 337.159 105.972Z" fill="#D0CCCB"/>
<path d="M295.688 98.8005H310.314C310.733 98.8005 311.135 98.6341 311.432 98.3377C311.728 98.0413 311.894 97.6393 311.894 97.2202C311.896 97.0117 311.856 96.805 311.777 96.612C311.699 96.419 311.582 96.2435 311.435 96.0956C311.289 95.9477 311.114 95.8303 310.921 95.7502C310.729 95.6701 310.523 95.6289 310.314 95.6289H295.688C295.479 95.6289 295.273 95.6701 295.08 95.7502C294.888 95.8303 294.713 95.9477 294.566 96.0956C294.419 96.2435 294.303 96.419 294.224 96.612C294.146 96.805 294.106 97.0117 294.107 97.2202C294.107 97.6393 294.274 98.0413 294.57 98.3377C294.866 98.6341 295.268 98.8005 295.688 98.8005Z" fill="#1E1A1A"/>
<path d="M295.688 107.106H310.314C310.523 107.106 310.729 107.064 310.921 106.984C311.114 106.904 311.289 106.787 311.435 106.639C311.582 106.491 311.699 106.315 311.777 106.122C311.856 105.929 311.896 105.723 311.894 105.514C311.894 105.095 311.728 104.693 311.432 104.397C311.135 104.1 310.733 103.934 310.314 103.934H295.688C295.268 103.934 294.866 104.1 294.57 104.397C294.274 104.693 294.107 105.095 294.107 105.514C294.106 105.723 294.146 105.929 294.224 106.122C294.303 106.315 294.419 106.491 294.566 106.639C294.713 106.787 294.888 106.904 295.08 106.984C295.273 107.064 295.479 107.106 295.688 107.106Z" fill="#D0CCCB"/>
<path d="M295.688 115.683H310.314C310.733 115.683 311.135 115.517 311.432 115.22C311.728 114.924 311.894 114.522 311.894 114.103C311.896 113.894 311.856 113.688 311.777 113.495C311.699 113.302 311.582 113.126 311.435 112.978C311.289 112.83 311.114 112.713 310.921 112.633C310.729 112.553 310.523 112.512 310.314 112.512H295.688C295.479 112.512 295.273 112.553 295.08 112.633C294.888 112.713 294.713 112.83 294.566 112.978C294.419 113.126 294.303 113.302 294.224 113.495C294.146 113.688 294.106 113.894 294.107 114.103C294.107 114.522 294.274 114.924 294.57 115.22C294.866 115.517 295.268 115.683 295.688 115.683Z" fill="#AB2526"/>
<path d="M301.922 132.272H310.314C310.523 132.272 310.729 132.23 310.921 132.15C311.114 132.07 311.289 131.953 311.435 131.805C311.582 131.657 311.699 131.481 311.777 131.288C311.856 131.095 311.896 130.889 311.894 130.68C311.894 130.261 311.728 129.859 311.432 129.563C311.135 129.266 310.733 129.1 310.314 129.1H301.922C301.503 129.1 301.101 129.266 300.804 129.563C300.508 129.859 300.341 130.261 300.341 130.68C300.34 130.889 300.38 131.095 300.459 131.288C300.537 131.481 300.654 131.657 300.8 131.805C300.947 131.953 301.122 132.07 301.315 132.15C301.507 132.23 301.713 132.272 301.922 132.272Z" fill="#1E1A1A"/>
<path d="M301.922 140.871H310.314C310.523 140.871 310.729 140.83 310.921 140.75C311.114 140.669 311.289 140.552 311.435 140.404C311.582 140.256 311.699 140.081 311.777 139.888C311.856 139.695 311.896 139.488 311.894 139.28C311.894 138.861 311.728 138.459 311.432 138.162C311.135 137.866 310.733 137.699 310.314 137.699H301.922C301.503 137.699 301.101 137.866 300.804 138.162C300.508 138.459 300.341 138.861 300.341 139.28C300.34 139.488 300.38 139.695 300.459 139.888C300.537 140.081 300.654 140.256 300.8 140.404C300.947 140.552 301.122 140.669 301.315 140.75C301.507 140.83 301.713 140.871 301.922 140.871Z" fill="#1E1A1A"/>
<path d="M277.017 140.871H292.385C292.807 140.871 293.212 140.703 293.51 140.405C293.809 140.106 293.976 139.702 293.976 139.28C293.973 138.86 293.804 138.458 293.506 138.162C293.208 137.865 292.805 137.699 292.385 137.699H277.017C276.809 137.698 276.602 137.738 276.409 137.816C276.216 137.895 276.041 138.011 275.893 138.158C275.745 138.305 275.627 138.48 275.547 138.672C275.467 138.865 275.426 139.071 275.426 139.28C275.426 139.702 275.594 140.106 275.892 140.405C276.19 140.703 276.595 140.871 277.017 140.871Z" fill="#D0CCCB"/>
<path d="M285.704 148.511H301.083C301.502 148.511 301.904 148.345 302.2 148.048C302.497 147.752 302.663 147.35 302.663 146.931C302.663 146.511 302.497 146.108 302.201 145.809C301.905 145.511 301.503 145.342 301.083 145.34H285.704C285.284 145.342 284.882 145.511 284.586 145.809C284.29 146.108 284.124 146.511 284.124 146.931C284.124 147.35 284.29 147.752 284.587 148.048C284.883 148.345 285.285 148.511 285.704 148.511Z" fill="#AB2526"/>
<path d="M282.303 154.07H292.865C293.461 154.07 293.944 154.553 293.944 155.149V156.162C293.944 156.758 293.461 157.241 292.865 157.241H282.303C281.708 157.241 281.224 156.758 281.224 156.162V155.149C281.224 154.553 281.708 154.07 282.303 154.07Z" fill="#AB2526"/>
<path d="M282.816 174.331H292.364C292.573 174.331 292.78 174.29 292.973 174.21C293.166 174.13 293.341 174.013 293.489 173.865C293.637 173.717 293.754 173.542 293.834 173.349C293.914 173.156 293.955 172.949 293.955 172.74C293.955 172.531 293.914 172.325 293.834 172.133C293.754 171.94 293.636 171.765 293.488 171.619C293.341 171.472 293.165 171.356 292.972 171.277C292.779 171.198 292.572 171.158 292.364 171.16H282.816C282.397 171.16 281.995 171.326 281.699 171.622C281.402 171.919 281.236 172.321 281.236 172.74C281.235 172.948 281.274 173.155 281.353 173.348C281.432 173.541 281.548 173.717 281.695 173.864C281.842 174.012 282.017 174.13 282.209 174.21C282.401 174.29 282.608 174.331 282.816 174.331Z" fill="#AB2526"/>
<path d="M282.816 192.38H292.364C292.572 192.381 292.779 192.342 292.972 192.263C293.165 192.184 293.341 192.068 293.488 191.921C293.636 191.774 293.754 191.599 293.834 191.407C293.914 191.214 293.955 191.008 293.955 190.8C293.955 190.591 293.914 190.384 293.834 190.191C293.754 189.998 293.637 189.822 293.489 189.674C293.341 189.527 293.166 189.409 292.973 189.33C292.78 189.25 292.573 189.208 292.364 189.208H282.816C282.608 189.208 282.401 189.25 282.209 189.33C282.017 189.41 281.842 189.527 281.695 189.675C281.548 189.823 281.432 189.999 281.353 190.192C281.274 190.385 281.235 190.591 281.236 190.8C281.236 191.219 281.402 191.621 281.699 191.917C281.995 192.213 282.397 192.38 282.816 192.38Z" fill="#AB2526"/>
<path d="M259.328 192.38H276.069C276.277 192.381 276.484 192.342 276.677 192.263C276.87 192.184 277.046 192.068 277.194 191.921C277.341 191.774 277.459 191.599 277.539 191.407C277.619 191.214 277.66 191.008 277.66 190.8C277.66 190.378 277.493 189.973 277.194 189.674C276.896 189.376 276.491 189.208 276.069 189.208H259.328C259.12 189.208 258.913 189.25 258.721 189.33C258.528 189.41 258.354 189.527 258.207 189.675C258.06 189.823 257.944 189.999 257.865 190.192C257.786 190.385 257.746 190.591 257.748 190.8C257.748 191.219 257.914 191.621 258.211 191.917C258.507 192.213 258.909 192.38 259.328 192.38Z" fill="#3F3B3A"/>
<path d="M247.612 192.38H250.021C250.229 192.381 250.436 192.342 250.629 192.263C250.822 192.184 250.998 192.068 251.146 191.921C251.293 191.774 251.411 191.599 251.491 191.407C251.571 191.214 251.612 191.008 251.612 190.8C251.612 190.591 251.571 190.384 251.491 190.191C251.411 189.998 251.294 189.822 251.146 189.674C250.998 189.527 250.823 189.409 250.63 189.33C250.437 189.25 250.23 189.208 250.021 189.208H247.612C247.19 189.208 246.786 189.376 246.487 189.674C246.189 189.973 246.021 190.378 246.021 190.8C246.024 191.22 246.193 191.622 246.491 191.918C246.789 192.214 247.192 192.38 247.612 192.38Z" fill="#D0CCCB"/>
<path d="M260.331 174.331H274.5C274.922 174.331 275.327 174.164 275.625 173.865C275.924 173.567 276.091 173.162 276.091 172.74C276.091 172.531 276.05 172.325 275.97 172.133C275.89 171.94 275.773 171.765 275.625 171.619C275.477 171.472 275.301 171.356 275.108 171.277C274.915 171.198 274.709 171.158 274.5 171.16H260.331C259.912 171.16 259.51 171.326 259.214 171.622C258.918 171.919 258.751 172.321 258.751 172.74C258.75 172.948 258.789 173.155 258.868 173.348C258.947 173.541 259.063 173.717 259.21 173.864C259.357 174.012 259.532 174.13 259.724 174.21C259.917 174.29 260.123 174.331 260.331 174.331Z" fill="#D0CCCB"/>
<path d="M229.301 182.255H274.478C274.9 182.255 275.305 182.087 275.603 181.789C275.902 181.49 276.069 181.086 276.069 180.663C276.069 180.455 276.028 180.249 275.948 180.056C275.868 179.864 275.751 179.689 275.603 179.542C275.455 179.395 275.279 179.279 275.086 179.2C274.893 179.121 274.687 179.082 274.478 179.083H229.301C228.882 179.083 228.48 179.25 228.184 179.546C227.888 179.842 227.721 180.244 227.721 180.663C227.72 180.872 227.759 181.079 227.838 181.272C227.917 181.465 228.033 181.64 228.18 181.788C228.327 181.936 228.502 182.053 228.694 182.133C228.887 182.214 229.093 182.255 229.301 182.255Z" fill="#D0CCCB"/>
<path d="M224.092 174.331H252.931C253.353 174.331 253.758 174.164 254.056 173.865C254.355 173.567 254.522 173.162 254.522 172.74C254.519 172.32 254.35 171.918 254.052 171.622C253.754 171.326 253.351 171.16 252.931 171.16H224.092C223.884 171.158 223.677 171.198 223.484 171.277C223.291 171.356 223.115 171.472 222.967 171.619C222.82 171.765 222.702 171.94 222.622 172.133C222.542 172.325 222.501 172.531 222.501 172.74C222.501 173.162 222.668 173.567 222.967 173.865C223.265 174.164 223.67 174.331 224.092 174.331Z" fill="#3F3B3A"/>
<path d="M263.035 154.07H275.994C276.589 154.07 277.073 154.553 277.073 155.149V156.162C277.073 156.758 276.589 157.241 275.994 157.241H263.035C262.439 157.241 261.956 156.758 261.956 156.162V155.149C261.956 154.553 262.439 154.07 263.035 154.07Z" fill="#3F3B3A"/>
<path d="M252.691 154.07H256.669C257.265 154.07 257.748 154.553 257.748 155.149V156.162C257.748 156.758 257.265 157.241 256.669 157.241H252.691C252.095 157.241 251.612 156.758 251.612 156.162V155.149C251.612 154.553 252.095 154.07 252.691 154.07Z" fill="#D0CCCB"/>
<path d="M229.901 154.07H245.857C246.453 154.07 246.936 154.553 246.936 155.149V156.162C246.936 156.758 246.453 157.241 245.857 157.241H229.901C229.305 157.241 228.822 156.758 228.822 156.162V155.149C228.822 154.553 229.305 154.07 229.901 154.07Z" fill="#D0CCCB"/>
<path d="M275.295 148.511H278.718C278.926 148.513 279.133 148.473 279.326 148.394C279.519 148.315 279.694 148.199 279.842 148.052C279.99 147.905 280.107 147.731 280.188 147.538C280.268 147.346 280.309 147.139 280.309 146.931C280.309 146.509 280.141 146.104 279.843 145.806C279.544 145.507 279.14 145.34 278.718 145.34H275.295C274.875 145.342 274.473 145.511 274.177 145.809C273.881 146.108 273.715 146.511 273.715 146.931C273.715 147.35 273.881 147.752 274.178 148.048C274.474 148.345 274.876 148.511 275.295 148.511Z" fill="#1E1A1A"/>
<path d="M246.282 148.511H268.08C268.5 148.511 268.902 148.345 269.198 148.048C269.494 147.752 269.661 147.35 269.661 146.931C269.661 146.511 269.495 146.108 269.199 145.809C268.903 145.511 268.501 145.342 268.08 145.34H246.282C245.861 145.342 245.458 145.511 245.16 145.809C244.862 146.107 244.694 146.51 244.691 146.931C244.694 147.351 244.863 147.753 245.161 148.049C245.459 148.345 245.862 148.511 246.282 148.511Z" fill="#D0CCCB"/>
<path d="M272.277 98.8005H286.893C287.312 98.8005 287.714 98.6341 288.01 98.3377C288.307 98.0413 288.473 97.6393 288.473 97.2202C288.475 97.0117 288.435 96.805 288.356 96.612C288.277 96.419 288.161 96.2435 288.014 96.0956C287.867 95.9477 287.692 95.8303 287.5 95.7502C287.308 95.6701 287.101 95.6289 286.893 95.6289H272.277C271.855 95.6289 271.45 95.7966 271.152 96.095C270.853 96.3934 270.686 96.7982 270.686 97.2202C270.686 97.4287 270.727 97.635 270.807 97.8275C270.887 98.0199 271.005 98.1946 271.153 98.3415C271.3 98.4884 271.476 98.6046 271.669 98.6834C271.862 98.7622 272.069 98.802 272.277 98.8005Z" fill="#3F3B3A"/>
<path d="M253.389 107.106H286.893C287.101 107.106 287.308 107.064 287.5 106.984C287.692 106.904 287.867 106.787 288.014 106.639C288.161 106.491 288.277 106.315 288.356 106.122C288.435 105.929 288.475 105.723 288.473 105.514C288.473 105.095 288.307 104.693 288.01 104.397C287.714 104.101 287.312 103.934 286.893 103.934H253.389C253.181 103.933 252.974 103.972 252.781 104.051C252.588 104.13 252.412 104.246 252.264 104.393C252.117 104.54 251.999 104.715 251.919 104.907C251.839 105.1 251.798 105.306 251.798 105.514C251.798 105.936 251.965 106.341 252.264 106.64C252.562 106.938 252.967 107.106 253.389 107.106Z" fill="#1E1A1A"/>
<path d="M217.422 115.683H286.893C287.312 115.683 287.714 115.517 288.01 115.22C288.307 114.924 288.473 114.522 288.473 114.103C288.475 113.894 288.435 113.688 288.356 113.495C288.277 113.302 288.161 113.126 288.014 112.978C287.867 112.83 287.692 112.713 287.5 112.633C287.308 112.553 287.101 112.512 286.893 112.512H217.422C217.214 112.512 217.007 112.553 216.815 112.633C216.622 112.713 216.448 112.83 216.301 112.978C216.154 113.126 216.038 113.302 215.959 113.495C215.88 113.688 215.84 113.894 215.842 114.103C215.842 114.522 216.008 114.924 216.305 115.22C216.601 115.517 217.003 115.683 217.422 115.683Z" fill="#D0CCCB"/>
<path d="M254.141 121.732H286.893C287.313 121.729 287.715 121.56 288.011 121.262C288.307 120.964 288.473 120.561 288.473 120.141C288.473 119.722 288.307 119.32 288.01 119.023C287.714 118.727 287.312 118.561 286.893 118.561H254.141C253.933 118.559 253.726 118.599 253.533 118.678C253.34 118.756 253.164 118.873 253.017 119.02C252.869 119.166 252.751 119.341 252.671 119.534C252.591 119.726 252.55 119.932 252.55 120.141C252.55 120.563 252.717 120.968 253.016 121.266C253.314 121.565 253.719 121.732 254.141 121.732Z" fill="#D0CCCB"/>
<path d="M260.833 132.272H293.595C293.804 132.272 294.01 132.23 294.203 132.15C294.395 132.07 294.57 131.953 294.717 131.805C294.864 131.657 294.98 131.481 295.058 131.288C295.137 131.095 295.177 130.889 295.176 130.68C295.176 130.261 295.009 129.859 294.713 129.563C294.416 129.266 294.014 129.1 293.595 129.1H260.833C260.413 129.1 260.012 129.266 259.715 129.563C259.419 129.859 259.252 130.261 259.252 130.68C259.251 130.889 259.291 131.095 259.369 131.288C259.448 131.481 259.564 131.657 259.711 131.805C259.858 131.953 260.033 132.07 260.225 132.15C260.418 132.23 260.624 132.272 260.833 132.272Z" fill="#3F3B3A"/>
<path d="M242.489 132.272H253.476C253.898 132.272 254.302 132.104 254.601 131.805C254.899 131.507 255.067 131.102 255.067 130.68C255.067 130.472 255.026 130.265 254.946 130.073C254.865 129.881 254.748 129.706 254.6 129.559C254.452 129.412 254.277 129.296 254.084 129.217C253.891 129.138 253.684 129.099 253.476 129.1H242.489C242.069 129.1 241.666 129.266 241.368 129.562C241.07 129.858 240.901 130.26 240.898 130.68C240.898 131.102 241.066 131.507 241.364 131.805C241.663 132.104 242.067 132.272 242.489 132.272Z" fill="#AB2526"/>
<path d="M214.424 132.217H235.132C235.341 132.219 235.547 132.179 235.74 132.1C235.933 132.021 236.109 131.905 236.257 131.758C236.405 131.611 236.522 131.436 236.602 131.244C236.682 131.052 236.723 130.845 236.723 130.637C236.723 130.215 236.556 129.81 236.257 129.512C235.959 129.213 235.554 129.045 235.132 129.045H214.424C214.216 129.045 214.009 129.087 213.817 129.167C213.624 129.247 213.45 129.364 213.303 129.512C213.156 129.66 213.04 129.836 212.961 130.029C212.882 130.222 212.842 130.428 212.844 130.637C212.844 131.056 213.01 131.458 213.306 131.754C213.603 132.051 214.005 132.217 214.424 132.217Z" fill="#1E1A1A"/>
<path d="M186.206 132.217H206.914C207.334 132.217 207.736 132.051 208.032 131.754C208.328 131.458 208.495 131.056 208.495 130.637C208.496 130.428 208.456 130.222 208.378 130.029C208.299 129.836 208.183 129.66 208.036 129.512C207.889 129.364 207.714 129.247 207.522 129.167C207.329 129.087 207.123 129.045 206.914 129.045H186.206C185.784 129.045 185.379 129.213 185.081 129.512C184.783 129.81 184.615 130.215 184.615 130.637C184.615 130.845 184.656 131.052 184.736 131.244C184.816 131.436 184.934 131.611 185.082 131.758C185.23 131.905 185.405 132.021 185.598 132.1C185.791 132.179 185.998 132.219 186.206 132.217Z" fill="#D0CCCB"/>
<path d="M343.851 130.005H352.57C352.99 130.002 353.392 129.833 353.688 129.535C353.984 129.237 354.15 128.833 354.15 128.413C354.15 127.994 353.984 127.592 353.687 127.296C353.391 126.999 352.989 126.833 352.57 126.833H343.851C343.432 126.833 343.03 126.999 342.733 127.296C342.437 127.592 342.27 127.994 342.27 128.413C342.27 128.833 342.436 129.237 342.733 129.535C343.029 129.833 343.431 130.002 343.851 130.005Z" fill="#D0CCCB"/>
<path d="M346.456 155.661H352.57C352.778 155.661 352.985 155.62 353.177 155.54C353.37 155.46 353.544 155.342 353.691 155.194C353.838 155.046 353.954 154.871 354.033 154.678C354.112 154.485 354.152 154.278 354.15 154.07C354.15 153.651 353.984 153.249 353.687 152.952C353.391 152.656 352.989 152.489 352.57 152.489H346.434C346.015 152.489 345.613 152.656 345.316 152.952C345.02 153.249 344.853 153.651 344.853 154.07C344.852 154.28 344.892 154.489 344.973 154.683C345.053 154.877 345.171 155.054 345.32 155.202C345.469 155.35 345.647 155.467 345.842 155.546C346.037 155.625 346.245 155.664 346.456 155.661Z" fill="#D0CCCB"/>
<path d="M335.567 138.549H352.57C352.989 138.549 353.391 138.383 353.687 138.087C353.984 137.79 354.15 137.388 354.15 136.969C354.152 136.761 354.112 136.554 354.033 136.361C353.954 136.168 353.838 135.992 353.691 135.845C353.544 135.697 353.37 135.579 353.177 135.499C352.985 135.419 352.778 135.378 352.57 135.378H335.567C335.359 135.378 335.153 135.419 334.96 135.499C334.768 135.579 334.593 135.697 334.446 135.845C334.299 135.992 334.183 136.168 334.104 136.361C334.025 136.554 333.986 136.761 333.987 136.969C333.987 137.388 334.154 137.79 334.45 138.087C334.746 138.383 335.148 138.549 335.567 138.549Z" fill="#D0CCCB"/>
<path d="M338.554 147.105H352.57C352.989 147.105 353.391 146.939 353.687 146.642C353.984 146.346 354.15 145.944 354.15 145.525C354.152 145.316 354.112 145.11 354.033 144.917C353.954 144.724 353.838 144.548 353.691 144.4C353.544 144.252 353.37 144.135 353.177 144.055C352.985 143.975 352.778 143.934 352.57 143.934H338.532C338.323 143.934 338.117 143.975 337.925 144.055C337.732 144.135 337.557 144.252 337.411 144.4C337.264 144.548 337.147 144.724 337.069 144.917C336.99 145.11 336.95 145.316 336.952 145.525C336.952 145.734 336.993 145.942 337.074 146.135C337.155 146.328 337.273 146.503 337.422 146.65C337.571 146.797 337.748 146.913 337.942 146.991C338.137 147.069 338.344 147.108 338.554 147.105Z" fill="#D0CCCB"/>
<path d="M317.475 97.2201C317.475 97.5392 317.569 97.851 317.747 98.1163C317.924 98.3816 318.176 98.5883 318.471 98.7104C318.765 98.8325 319.09 98.8644 319.403 98.8022C319.716 98.7399 320.003 98.5863 320.229 98.3607C320.454 98.1351 320.608 97.8477 320.67 97.5348C320.732 97.2219 320.7 96.8976 320.578 96.6028C320.456 96.3081 320.249 96.0561 319.984 95.8789C319.719 95.7017 319.407 95.6071 319.088 95.6071C318.66 95.6071 318.25 95.777 317.947 96.0795C317.645 96.382 317.475 96.7923 317.475 97.2201Z" fill="#3F3B3A"/>
<path d="M319.088 90.3647C318.197 90.3647 317.475 89.6425 317.475 88.7516C317.475 87.8607 318.197 87.1385 319.088 87.1385C319.979 87.1385 320.701 87.8607 320.701 88.7516C320.701 89.6425 319.979 90.3647 319.088 90.3647Z" fill="#3F3B3A"/>
<path d="M319.088 107.106C318.197 107.106 317.475 106.383 317.475 105.493C317.475 104.602 318.197 103.88 319.088 103.88C319.979 103.88 320.701 104.602 320.701 105.493C320.701 106.383 319.979 107.106 319.088 107.106Z" fill="#3F3B3A"/>
<path d="M319.088 115.716C318.197 115.716 317.475 114.994 317.475 114.103C317.475 113.212 318.197 112.49 319.088 112.49C319.979 112.49 320.701 113.212 320.701 114.103C320.701 114.994 319.979 115.716 319.088 115.716Z" fill="#3F3B3A"/>
<path d="M319.088 124.315C318.197 124.315 317.475 123.593 317.475 122.702C317.475 121.811 318.197 121.089 319.088 121.089C319.979 121.089 320.701 121.811 320.701 122.702C320.701 123.593 319.979 124.315 319.088 124.315Z" fill="#3F3B3A"/>
<path d="M317.475 131.302C317.473 131.621 317.566 131.934 317.741 132.201C317.917 132.467 318.169 132.676 318.463 132.8C318.758 132.923 319.082 132.957 319.396 132.896C319.71 132.835 319.998 132.682 320.225 132.457C320.451 132.232 320.606 131.944 320.669 131.631C320.732 131.318 320.701 130.993 320.579 130.698C320.457 130.402 320.251 130.15 319.985 129.972C319.72 129.794 319.407 129.699 319.088 129.699C318.662 129.699 318.253 129.868 317.951 130.168C317.649 130.468 317.478 130.876 317.475 131.302Z" fill="#3F3B3A"/>
<path d="M319.088 141.525C318.197 141.525 317.475 140.803 317.475 139.912C317.475 139.021 318.197 138.299 319.088 138.299C319.979 138.299 320.701 139.021 320.701 139.912C320.701 140.803 319.979 141.525 319.088 141.525Z" fill="#3F3B3A"/>
<path d="M319.088 150.124C318.197 150.124 317.475 149.402 317.475 148.511C317.475 147.62 318.197 146.898 319.088 146.898C319.979 146.898 320.701 147.62 320.701 148.511C320.701 149.402 319.979 150.124 319.088 150.124Z" fill="#3F3B3A"/>
<path d="M317.475 157.121C317.475 157.44 317.569 157.752 317.747 158.018C317.924 158.283 318.176 158.49 318.471 158.612C318.765 158.734 319.09 158.766 319.403 158.703C319.716 158.641 320.003 158.488 320.229 158.262C320.454 158.036 320.608 157.749 320.67 157.436C320.732 157.123 320.7 156.799 320.578 156.504C320.456 156.209 320.249 155.957 319.984 155.78C319.719 155.603 319.407 155.508 319.088 155.508C318.66 155.508 318.25 155.678 317.947 155.981C317.645 156.283 317.475 156.694 317.475 157.121Z" fill="#3F3B3A"/>
<path d="M317.475 165.721C317.475 166.04 317.569 166.352 317.747 166.617C317.924 166.882 318.176 167.089 318.471 167.211C318.765 167.333 319.09 167.365 319.403 167.303C319.716 167.241 320.003 167.087 320.229 166.862C320.454 166.636 320.608 166.349 320.67 166.036C320.732 165.723 320.7 165.398 320.578 165.104C320.456 164.809 320.249 164.557 319.984 164.38C319.719 164.202 319.407 164.108 319.088 164.108C318.66 164.108 318.25 164.278 317.947 164.58C317.645 164.883 317.475 165.293 317.475 165.721Z" fill="#3F3B3A"/>
<path d="M319.088 175.944C318.197 175.944 317.475 175.222 317.475 174.331C317.475 173.44 318.197 172.718 319.088 172.718C319.979 172.718 320.701 173.44 320.701 174.331C320.701 175.222 319.979 175.944 319.088 175.944Z" fill="#3F3B3A"/>
<path d="M317.475 182.93C317.475 183.249 317.569 183.561 317.747 183.827C317.924 184.092 318.176 184.299 318.471 184.421C318.765 184.543 319.09 184.575 319.403 184.513C319.716 184.45 320.003 184.297 320.229 184.071C320.454 183.845 320.608 183.558 320.67 183.245C320.732 182.932 320.7 182.608 320.578 182.313C320.456 182.018 320.249 181.767 319.984 181.589C319.719 181.412 319.407 181.317 319.088 181.317C318.66 181.317 318.25 181.487 317.947 181.79C317.645 182.092 317.475 182.503 317.475 182.93Z" fill="#3F3B3A"/>
<path d="M319.088 193.154C318.197 193.154 317.475 192.432 317.475 191.541C317.475 190.65 318.197 189.928 319.088 189.928C319.979 189.928 320.701 190.65 320.701 191.541C320.701 192.432 319.979 193.154 319.088 193.154Z" fill="#3F3B3A"/>
<path d="M355 63.2804H168.506C167.399 63.2804 166.337 63.7202 165.555 64.503C164.772 65.2859 164.332 66.3476 164.332 67.4548V80.3811H360.897V69.1659C360.897 68.3921 360.744 67.6259 360.448 66.9111C360.151 66.1963 359.717 65.547 359.169 65.0004C358.621 64.4537 357.971 64.0204 357.256 63.7253C356.541 63.4301 355.774 63.279 355 63.2804Z" fill="#D0CCCB"/>
<path d="M350.739 74.67C349.445 74.67 348.395 73.6209 348.395 72.3267C348.395 71.0325 349.445 69.9834 350.739 69.9834C352.033 69.9834 353.082 71.0325 353.082 72.3267C353.082 73.6209 352.033 74.67 350.739 74.67Z" fill="white"/>
<path d="M341.191 72.3267C341.191 72.7902 341.329 73.2432 341.586 73.6286C341.844 74.0139 342.21 74.3143 342.638 74.4916C343.066 74.669 343.537 74.7154 343.992 74.625C344.446 74.5346 344.864 74.3114 345.192 73.9837C345.519 73.656 345.743 73.2384 345.833 72.7839C345.923 72.3293 345.877 71.8582 345.7 71.43C345.522 71.0018 345.222 70.6358 344.837 70.3783C344.451 70.1209 343.998 69.9834 343.535 69.9834C343.227 69.982 342.921 70.0416 342.636 70.1588C342.351 70.2761 342.092 70.4486 341.875 70.6665C341.657 70.8844 341.484 71.1433 341.367 71.4283C341.25 71.7132 341.19 72.0186 341.191 72.3267Z" fill="white"/>
<path d="M333.986 72.3267C333.986 72.7902 334.124 73.2432 334.381 73.6286C334.639 74.0139 335.005 74.3143 335.433 74.4916C335.861 74.669 336.332 74.7154 336.787 74.625C337.241 74.5346 337.659 74.3114 337.987 73.9837C338.314 73.656 338.537 73.2384 338.628 72.7839C338.718 72.3293 338.672 71.8582 338.494 71.43C338.317 71.0018 338.017 70.6358 337.631 70.3783C337.246 70.1209 336.793 69.9834 336.33 69.9834C336.021 69.982 335.716 70.0416 335.431 70.1588C335.146 70.2761 334.887 70.4486 334.669 70.6665C334.451 70.8844 334.279 71.1433 334.162 71.4283C334.044 71.7132 333.985 72.0186 333.986 72.3267Z" fill="white"/>
<path d="M319.088 203.41L302.467 221.382L287.394 203.41H319.088Z" fill="white"/>
<path d="M169.661 205.372C169.076 205.337 168.497 205.227 167.939 205.045C167.13 204.76 166.402 204.283 165.817 203.654C165.232 203.026 164.809 202.265 164.582 201.437C164.425 200.863 164.362 200.266 164.397 199.672V197.666C164.397 196.26 164.397 194.723 164.397 193.067C164.397 189.743 164.397 185.906 164.397 181.59C164.397 164.315 164.452 139.334 164.484 108.457C164.484 100.741 164.484 92.6644 164.484 84.2285C164.484 80.007 164.484 75.7091 164.484 71.3349C164.484 70.245 164.484 69.1551 164.484 68.0652C164.601 66.9977 165.051 65.9943 165.771 65.1978C166.492 64.4013 167.445 63.8524 168.495 63.6293C169.603 63.5101 170.717 63.4736 171.83 63.5203H229.792H293.845H353.79C354.51 63.5203 355.284 63.5203 355.97 63.5203C356.664 63.5871 357.336 63.7987 357.943 64.1415C358.552 64.4887 359.083 64.9586 359.501 65.5214C359.92 66.0842 360.217 66.7278 360.373 67.4113C360.521 68.4068 360.568 69.4145 360.515 70.4194V115.738C360.515 131.541 360.515 146.96 360.515 161.993V184.151C360.515 187.784 360.515 191.392 360.515 194.974C360.515 196.751 360.515 198.549 360.515 200.293C360.466 201.132 360.207 201.945 359.764 202.659C359.32 203.372 358.706 203.964 357.976 204.38C357.249 204.799 356.428 205.028 355.589 205.045H317.693L317.616 205.121L302.358 221.143H302.696L289.355 205.23L289.29 205.154H289.192L201.814 205.241L177.956 205.306L201.814 205.372L289.192 205.459L289.028 205.383L302.434 221.524L302.597 221.72L302.772 221.535L318.031 205.535L317.856 205.612H355.676C356.594 205.583 357.492 205.332 358.292 204.881C359.098 204.422 359.777 203.769 360.268 202.981C360.759 202.193 361.046 201.296 361.104 200.369C361.104 198.56 361.104 196.805 361.104 195.018V184.195C361.104 176.929 361.104 169.543 361.104 162.037V115.792C361.104 107.894 361.104 99.9014 361.104 91.8143V68.9262C361.117 68.3916 361.066 67.8574 360.951 67.335C360.771 66.581 360.438 65.8719 359.973 65.2515C359.508 64.631 358.921 64.1123 358.248 63.7274C357.577 63.3476 356.835 63.1102 356.068 63.0298C355.273 62.9753 354.586 63.0298 353.889 63.0298H229.901H171.939C170.797 62.978 169.653 63.0181 168.517 63.1497C167.374 63.3952 166.337 63.995 165.554 64.8639C164.771 65.7327 164.283 66.8262 164.157 67.9889C164.092 69.1442 164.157 70.1687 164.157 71.2586C164.157 75.6183 164.157 79.9161 164.157 84.1523C164.157 92.5809 164.157 100.657 164.157 108.381C164.157 139.258 164.234 164.239 164.255 181.514C164.255 185.873 164.255 189.666 164.255 192.99C164.255 194.647 164.255 196.184 164.255 197.59V199.595C164.228 200.202 164.297 200.809 164.463 201.394C164.732 202.376 165.281 203.258 166.043 203.933C166.58 204.425 167.215 204.796 167.907 205.023C168.326 205.165 168.762 205.252 169.204 205.285L169.661 205.372Z" fill="#1E1A1A"/>
<path d="M402.268 164.478C402.268 164.478 408.491 165.819 409.57 170.244C410.649 174.669 400.851 280.325 400.513 282.886C399.892 286.929 396.48 292.074 388.808 291.791C382.105 291.551 290.868 291.791 267.904 291.791C264.841 291.791 263.01 289.197 262.607 286.101L375.576 279.431L402.268 164.478Z" fill="#D0CCCB"/>
<path d="M405.101 168.01L395.292 281.949C395.201 282.848 394.784 283.683 394.119 284.296C393.455 284.909 392.588 285.256 391.684 285.273L262.585 285.851L287.391 261.24L371.248 260.652L380.218 171.378C380.282 170.795 380.527 170.248 380.918 169.812C381.309 169.376 381.826 169.073 382.398 168.947L401.188 164.587C401.681 164.487 402.19 164.502 402.677 164.631C403.163 164.76 403.613 165 403.991 165.331C404.37 165.662 404.667 166.076 404.859 166.54C405.052 167.005 405.135 167.508 405.101 168.01Z" fill="#D0CCCB"/>
<path d="M405.101 168.01C405.12 167.825 405.12 167.639 405.101 167.454C405.076 166.906 404.903 166.374 404.6 165.917C404.356 165.538 404.036 165.214 403.661 164.965C403.286 164.715 402.864 164.546 402.42 164.467C401.842 164.392 401.255 164.44 400.698 164.609L398.791 165.045L388.818 167.334L382.496 168.794C381.881 168.911 381.319 169.22 380.89 169.676C380.462 170.133 380.188 170.713 380.11 171.334C379.99 172.555 379.859 173.808 379.728 175.094C377.625 195.802 374.627 225.23 371.009 260.63L371.249 260.401L287.38 260.957H287.271L287.184 261.044L262.389 285.643L261.898 286.134H262.585H268.307L362.944 285.687L384.197 285.578H389.319C390.169 285.578 390.998 285.578 391.87 285.578C392.771 285.522 393.626 285.156 394.289 284.543C394.948 283.936 395.375 283.119 395.499 282.232C395.597 281.393 395.652 280.586 395.728 279.758C395.859 278.123 396 276.488 396.142 274.886C397.232 262.003 398.257 249.993 399.183 239.039C401.025 217.121 402.518 199.388 403.543 187.127C404.044 181.001 404.436 176.228 404.698 173.012C404.829 171.399 404.916 170.179 404.981 169.339C405.047 168.5 405.068 168.086 405.068 168.086C405.068 168.086 405.003 168.5 404.927 169.328C404.85 170.157 404.731 171.399 404.589 173.001C404.295 176.271 403.87 180.991 403.325 187.105C402.235 199.366 400.687 217.099 398.769 238.995C397.821 249.96 396.774 261.96 395.663 274.842C395.525 276.456 395.383 278.079 395.238 279.714C395.161 280.532 395.107 281.371 395.02 282.167C394.89 282.944 394.506 283.657 393.93 284.194C393.329 284.736 392.558 285.052 391.75 285.088C390.932 285.088 390.071 285.088 389.232 285.088H384.099L362.845 285.175L268.22 285.578H262.498L262.705 286.058L287.609 261.437L287.413 261.524L371.27 260.892H371.488V260.674C375.009 225.273 377.93 195.781 379.979 175.127C380.11 173.841 380.24 172.587 380.36 171.367C380.429 170.797 380.677 170.264 381.069 169.844C381.461 169.425 381.976 169.141 382.54 169.034L388.862 167.552L398.812 165.187L400.72 164.74C401.257 164.566 401.826 164.51 402.387 164.576C402.826 164.647 403.245 164.806 403.62 165.044C403.994 165.282 404.317 165.594 404.567 165.961C404.872 166.407 405.052 166.926 405.09 167.465C405.112 167.824 405.079 168.01 405.101 168.01Z" fill="#1E1A1A"/>
<path d="M310.606 282.886H298.606L313.778 263.213H320.895L310.606 282.886Z" fill="#1E1A1A"/>
<path d="M400.665 173.154L391.499 272.205L374.366 258.581L381.777 175.203C381.803 174.878 381.94 174.571 382.164 174.333C382.387 174.096 382.685 173.941 383.009 173.895L399.019 171.606C399.234 171.576 399.453 171.595 399.659 171.661C399.866 171.726 400.055 171.838 400.213 171.986C400.371 172.135 400.493 172.317 400.572 172.519C400.65 172.721 400.682 172.938 400.665 173.154Z" fill="#1E1A1A"/>
<path d="M382.323 282.886H369.942L357.353 263.213H364.481L382.323 282.886Z" fill="#1E1A1A"/>
<path d="M367.118 282.886H355.118L348.546 263.213H355.674L367.118 282.886Z" fill="#1E1A1A"/>
<path d="M352.437 282.886H340.437L339.794 263.213H346.911L352.437 282.886Z" fill="#1E1A1A"/>
<path d="M338.813 282.886H326.813L331.249 263.213H338.366L338.813 282.886Z" fill="#1E1A1A"/>
<path d="M324.622 282.886H312.622L322.398 263.213H329.515L324.622 282.886Z" fill="#1E1A1A"/>
<path d="M299.162 279.049C299.162 279.148 317.462 279.224 340.034 279.224C362.606 279.224 380.895 279.148 380.895 279.049C380.895 278.951 362.606 278.886 340.034 278.886C317.462 278.886 299.162 278.962 299.162 279.049Z" fill="#D0CCCB"/>
<path d="M301.343 275.475C301.343 275.573 318.716 275.649 340.154 275.649C361.593 275.649 378.966 275.573 378.966 275.475C378.966 275.376 361.593 275.311 340.154 275.311C318.716 275.311 301.343 275.355 301.343 275.475Z" fill="#D0CCCB"/>
<path d="M301.343 272.205C301.343 272.39 317.691 272.543 337.854 272.543C358.018 272.543 374.366 272.357 374.366 272.205C374.366 272.052 358.018 271.867 337.844 271.867C317.669 271.867 301.343 271.987 301.343 272.205Z" fill="#D0CCCB"/>
<path d="M300.884 269.186C300.884 269.371 316.884 269.524 336.611 269.524C356.339 269.524 372.349 269.371 372.349 269.186C372.349 269.001 356.35 268.837 336.611 268.837C316.873 268.837 300.884 268.99 300.884 269.186Z" fill="#D0CCCB"/>
<path d="M299.163 267.006C299.163 267.191 315.271 267.344 335.13 267.344C354.988 267.344 371.096 267.191 371.096 267.006C371.096 266.821 354.999 266.657 335.13 266.657C315.261 266.657 299.163 266.81 299.163 267.006Z" fill="#D0CCCB"/>
<path d="M297.44 264.717C297.44 264.913 313.843 265.066 334.072 265.066C354.3 265.066 370.714 264.913 370.714 264.717C370.714 264.521 354.366 264.379 334.072 264.379C313.778 264.379 297.44 264.576 297.44 264.717Z" fill="#D0CCCB"/>
<path d="M393.505 281.949L371.097 261.033L393.505 281.949Z" fill="#D0CCCB"/>
<path d="M371.098 261.033C370.989 261.142 375.915 265.916 382.084 271.693C388.253 277.469 393.353 282.069 393.462 281.949C393.571 281.829 388.656 277.066 382.476 271.278C376.296 265.491 371.25 260.913 371.098 261.033Z" fill="#1E1A1A"/>
<path d="M1.06509 183.094C1.06509 183.094 2.15502 171.519 30.994 164.119C44.9121 160.544 78.1434 158.833 81.9035 180.467C82.0234 181.165 98.4483 317 98.4483 317H37.0103L1.06509 183.094Z" fill="#3F3B3A"/>
<path d="M10.7971 316.956H39.1347L29.6743 183.922C28.9767 177.448 22.2738 172.773 14.6989 173.492L12.1595 173.732C4.5955 174.451 -0.211014 181.742 0.00696564 190.08L10.7971 316.956Z" fill="#3F3B3A"/>
<path d="M37.0087 312.172C37.1722 312.172 35.1668 285.938 32.5401 253.622C29.9134 221.306 27.6573 195.105 27.5047 195.116C27.3521 195.127 29.3467 221.339 31.9733 253.665C34.6 285.992 36.8561 312.183 37.0087 312.172Z" fill="#1E1A1A"/>
<path d="M6.50346 176.805C7.80994 176.401 9.14281 176.088 10.4925 175.868C13.7597 175.423 17.0823 176.071 19.9428 177.711C22.8033 179.351 25.0409 181.891 26.3071 184.936C26.7935 186.212 27.194 187.519 27.506 188.849C27.5409 188.485 27.5226 188.117 27.4515 187.759C27.3097 186.747 27.05 185.756 26.6776 184.805C25.468 181.613 23.1875 178.939 20.2255 177.242C17.2636 175.544 13.8041 174.927 10.438 175.497C9.42822 175.652 8.44041 175.927 7.49528 176.315C7.14187 176.427 6.80749 176.593 6.50346 176.805Z" fill="#1E1A1A"/>
<path d="M95.9963 10.4199C95.702 2.62706 100.988 1.58076 105.053 2.47448C107.577 0.716464 110.616 -0.147306 113.687 0.0205609C116.758 0.188428 119.685 1.37828 122.002 3.40089C123.862 2.38528 125.954 1.86934 128.073 1.90339C130.193 1.93744 132.267 2.52032 134.094 3.59517C135.921 4.67003 137.438 6.20013 138.497 8.03618C139.556 9.87222 140.122 11.9515 140.138 14.0711C142.273 13.8105 144.436 14.2287 146.321 15.2665C148.205 16.3043 149.715 17.909 150.637 19.853C151.558 21.797 151.844 23.9818 151.454 26.0975C151.064 28.2132 150.018 30.1525 148.464 31.6404C150.889 32.366 152.938 34.0003 154.186 36.2017C155.433 38.4032 155.782 41.0015 155.158 43.4538C154.535 45.9062 152.988 48.0228 150.841 49.3615C148.694 50.7002 146.112 51.1574 143.636 50.6375L95.8328 18.8013C92.9664 15.7823 96.1489 14.5833 95.9963 10.4199Z" fill="#1E1A1A"/>
<path d="M145.019 52.0434C144.546 41.5534 140.142 31.6259 132.681 24.2362C125.221 16.8465 115.252 12.5365 104.758 12.1637L102.578 12.0874C79.2213 12.6215 66.6111 32.7957 67.7991 56.0979L68.4094 133.852L68.562 148.62L121.967 161.318L122.512 130.539C122.512 130.539 145.052 127.857 146.12 105.471C146.676 94.6588 145.924 72.2939 145.019 52.0434Z" fill="#AE7461"/>
<path d="M122.731 130.517C112.323 130.151 102.239 126.807 93.6743 120.882C93.6743 120.882 100.007 137.231 122.437 136.032L122.731 130.517Z" fill="#6F4439"/>
<path d="M138.491 74.6699C138.471 75.5035 138.126 76.2963 137.529 76.8788C136.932 77.4613 136.131 77.7873 135.298 77.787C134.889 77.8045 134.481 77.7401 134.098 77.5975C133.715 77.4548 133.364 77.2369 133.066 76.9565C132.769 76.6762 132.53 76.339 132.365 75.965C132.2 75.591 132.111 75.1877 132.104 74.7789C132.124 73.9452 132.469 73.1524 133.066 72.57C133.663 71.9875 134.464 71.6615 135.298 71.6618C135.706 71.6427 136.115 71.7061 136.499 71.8482C136.883 71.9903 137.234 72.2081 137.532 72.4888C137.83 72.7695 138.068 73.1072 138.233 73.4819C138.398 73.8566 138.486 74.2606 138.491 74.6699Z" fill="#1E1A1A"/>
<path d="M140.039 64.0324C139.636 64.4248 137.271 62.5501 133.826 62.4411C130.382 62.3322 127.799 63.9561 127.44 63.5311C127.265 63.3349 127.69 62.5938 128.824 61.8417C130.349 60.8571 132.144 60.3732 133.957 60.4575C135.748 60.5107 137.475 61.1372 138.884 62.245C139.897 63.0624 140.224 63.8253 140.039 64.0324Z" fill="#1E1A1A"/>
<path d="M110.818 73.9615C110.795 74.7962 110.447 75.589 109.849 76.1712C109.25 76.7534 108.448 77.079 107.613 77.0786C107.205 77.0962 106.797 77.0317 106.414 76.8891C106.03 76.7464 105.68 76.5285 105.382 76.2481C105.084 75.9678 104.846 75.6306 104.681 75.2566C104.515 74.8826 104.427 74.4793 104.42 74.0705C104.44 73.2369 104.785 72.4441 105.382 71.8616C105.978 71.2791 106.779 70.9531 107.613 70.9534C108.023 70.9344 108.432 70.9977 108.816 71.1397C109.201 71.2816 109.553 71.4993 109.851 71.7798C110.15 72.0603 110.39 72.398 110.556 72.7727C110.722 73.1475 110.811 73.5517 110.818 73.9615Z" fill="#1E1A1A"/>
<path d="M107.091 62.354C106.688 62.7573 104.323 60.8826 100.879 60.7628C97.4346 60.6429 94.8515 62.2886 94.4918 61.8527C94.3175 61.6565 94.7425 60.9153 95.8761 60.1524C97.4043 59.1745 99.1968 58.6911 101.01 58.7682C102.799 58.8304 104.523 59.4559 105.936 60.5557C106.96 61.4058 107.342 62.1796 107.091 62.354Z" fill="#1E1A1A"/>
<path d="M117.531 88.2829C117.531 88.0868 119.711 87.7925 123.155 87.4655C124.038 87.411 124.877 87.2693 125.052 86.6699C125.157 85.7637 124.982 84.8471 124.55 84.0432C123.824 81.8634 123.039 79.6 122.196 77.2531C118.927 67.5965 116.583 59.662 116.976 59.5312C117.368 59.4004 120.333 67.1605 123.602 76.7953L125.869 83.6508C126.382 84.7315 126.502 85.9573 126.207 87.1167C126.07 87.4231 125.864 87.6937 125.605 87.9074C125.346 88.121 125.041 88.2719 124.714 88.3483C124.221 88.4623 123.716 88.5136 123.21 88.5009C119.7 88.5336 117.531 88.4791 117.531 88.2829Z" fill="#1E1A1A"/>
<path d="M107.342 90.2992C107.908 90.2992 107.778 94.0267 110.884 96.8387C113.99 99.6507 117.979 99.3346 117.99 99.8577C117.99 100.098 117.086 100.555 115.396 100.533C113.205 100.49 111.101 99.6714 109.456 98.2229C107.869 96.8322 106.888 94.8769 106.72 92.7733C106.611 91.1821 107.058 90.2666 107.342 90.2992Z" fill="#1E1A1A"/>
<path d="M107.495 52.523C107.048 53.3949 104.116 52.523 100.508 52.4249C96.9008 52.3268 93.8708 52.9916 93.5329 52.0979C93.3912 51.662 94.0234 50.8663 95.3095 50.1579C96.9865 49.2774 98.8666 48.8562 100.759 48.9372C102.612 48.9751 104.421 49.5055 106.001 50.474C107.146 51.2696 107.691 52.0979 107.495 52.523Z" fill="#1E1A1A"/>
<path d="M139.582 54.5285C139.004 55.3459 136.595 54.6375 133.751 54.7356C130.906 54.8337 128.508 55.5094 127.909 54.7356C127.647 54.3541 127.996 53.5476 128.999 52.7628C130.375 51.809 132.004 51.2854 133.678 51.2582C135.353 51.231 136.998 51.7016 138.404 52.6103C139.462 53.3514 139.832 54.1361 139.582 54.5285Z" fill="#1E1A1A"/>
<path d="M143.233 41.7111C143.233 41.7111 137.783 27.466 131.167 23.9565C123.113 19.695 119.266 28.5668 111.549 26.1364C103.832 23.7059 96.1377 19.5969 87.9416 25.3516C78.9825 31.6404 82.9062 36.4251 82.0125 46.3433C78.394 86.5826 70.6229 97.7106 69.2061 78.6481C69.0535 76.5664 63.3315 74.7026 62.7974 65.8853C62.089 54.4522 62.1435 40.5994 64.9772 32.5995C67.3641 25.8639 71.4186 21.2863 78.5684 16.3381C89.8598 8.53435 104.977 8.89401 115.211 10.3C125.445 11.706 144.791 24.1745 143.233 41.7111Z" fill="#1E1A1A"/>
<path d="M70.6449 78.0595C70.6472 77.2365 70.4825 76.4215 70.1606 75.6641C69.8387 74.9066 69.3664 74.2223 68.7724 73.6527C68.1783 73.0831 67.4748 72.64 66.7044 72.3502C65.9341 72.0604 65.113 71.93 64.2908 71.9669C60.0946 72.2176 55.3535 74.4192 55.3317 83.0731C55.2663 98.4081 70.6776 95.3018 70.7103 94.855C70.743 94.4081 70.6776 84.4791 70.6449 78.0595Z" fill="#AE7461"/>
<path d="M67.3957 89.1003C67.3194 89.1003 67.1232 89.2856 66.6655 89.4927C66.0247 89.7459 65.3117 89.7459 64.671 89.4927C63.0579 88.8933 61.6955 86.3102 61.641 83.5527C61.602 82.2373 61.859 80.9299 62.3931 79.7271C62.5411 79.2476 62.8027 78.811 63.1556 78.4542C63.5086 78.0975 63.9424 77.8312 64.4203 77.6781C64.7273 77.5977 65.0528 77.6279 65.3397 77.7634C65.6267 77.8989 65.8568 78.1311 65.9897 78.4192C66.1968 78.8443 66.0987 79.1495 66.175 79.1822C66.2513 79.2149 66.502 78.9206 66.3821 78.2885C66.3019 77.908 66.0895 77.5682 65.7827 77.3293C65.5762 77.1686 65.3396 77.0511 65.0868 76.9837C64.8341 76.9163 64.5703 76.9004 64.3113 76.937C63.6802 77.0564 63.0907 77.337 62.5999 77.7514C62.1091 78.1657 61.7338 78.6999 61.5102 79.3021C60.8526 80.6279 60.5307 82.0951 60.5729 83.5745C60.6492 86.6589 62.2296 89.5581 64.4421 90.212C64.8533 90.3314 65.286 90.3572 65.7085 90.2874C66.131 90.2176 66.5325 90.0541 66.8835 89.8088C67.363 89.4491 67.4393 89.1003 67.3957 89.1003Z" fill="#6F4439"/>
<path d="M71.9952 48.3922C73.9352 49.82 75.9951 51.2914 78.382 51.662C80.7689 52.0325 83.5591 50.7029 84.0495 48.3378C84.2675 47.2479 84.0495 46.038 84.7798 45.2424C85.6517 44.2833 87.1885 44.643 88.4637 44.8283C90.696 45.0782 92.9466 44.5543 94.8391 43.3442C96.7317 42.134 98.1515 40.311 98.8614 38.1798C99.9513 39.9237 102.589 39.9346 104.311 38.8882C106.033 37.8419 107.243 36.0763 108.671 34.5831C110.098 33.0899 112.006 31.7711 114.022 32.1308C115.112 32.3379 116.202 33.0464 117.292 32.9919C119.319 32.8829 120.376 30.5614 120.758 28.6322C121.139 26.7031 121.455 24.2726 123.188 23.2917C124.921 22.3108 126.839 22.9974 128.638 23.2917C130.436 23.5859 132.877 23.2917 133.422 21.4933C133.521 21.011 133.519 20.5136 133.418 20.0319C133.317 19.5502 133.118 19.0943 132.834 18.6923C131.657 16.7936 129.874 15.3481 127.773 14.5904C125.672 13.8326 123.376 13.8071 121.259 14.5179C120.594 11.9411 119.181 9.61911 117.197 7.84537C115.213 6.07163 112.748 4.92574 110.113 4.55249C107.478 4.17925 104.792 4.59541 102.393 5.74837C99.995 6.90134 97.9922 8.73936 96.638 11.0302C95.0627 9.49852 93.1415 8.36916 91.037 7.73787C88.9325 7.10657 86.7069 6.99194 84.5487 7.40369C82.3905 7.81544 80.3633 8.74143 78.6391 10.1032C76.9148 11.4649 75.5443 13.2223 74.6436 15.2264C72.7981 14.6995 70.8391 14.7206 69.0053 15.2872C67.1716 15.8538 65.5421 16.9414 64.3155 18.4176C63.0888 19.8937 62.3178 21.6947 62.0965 23.6012C61.8751 25.5077 62.213 27.4374 63.0688 29.1554C60.2569 30.6376 57.8046 33.2861 57.6193 36.4578C57.434 39.6294 60.4312 42.8882 63.5157 42.1689C62.7468 43.4003 62.4985 44.8867 62.8256 46.3011C63.1526 47.7155 64.0281 48.9421 65.2595 49.711C66.4909 50.4799 67.9773 50.7282 69.3918 50.4011C70.8062 50.0741 72.0328 49.1986 72.8017 47.9672" fill="#1E1A1A"/>
<path d="M62.4046 42.1035C62.3235 42.6314 62.3575 43.1707 62.5042 43.6842C62.6509 44.1978 62.9069 44.6736 63.2547 45.079C63.9757 46.0831 65.0507 46.7764 66.2628 47.019C67.0333 47.1772 67.8294 47.1614 68.5931 46.9729C69.3567 46.7843 70.0686 46.4277 70.677 45.9291L70.0339 45.8092C70.7878 47.2704 71.7743 48.5993 72.9549 49.7438C73.739 50.5211 74.6637 51.1425 75.6797 51.5748C77.0003 52.0742 78.4433 52.1516 79.8098 51.7963C81.1763 51.441 82.3989 50.6706 83.309 49.5912C83.9622 48.6443 84.4215 47.5775 84.6605 46.4522C84.802 46.058 84.8577 45.6381 84.824 45.2207C84.7586 45.2207 84.6169 45.613 84.3335 46.3106C83.9861 47.3414 83.4746 48.3093 82.8185 49.177C81.2818 51.3568 76.5189 52.2833 73.5979 49.068C72.4931 47.9854 71.5563 46.7437 70.8187 45.3841L70.5571 44.9264L70.1647 45.2642C69.6597 45.7055 69.0647 46.0315 68.421 46.2198C67.7773 46.408 67.1004 46.4538 66.4372 46.3541C65.3724 46.1756 64.4062 45.623 63.7125 44.7956C63.103 43.9934 62.6585 43.0784 62.4046 42.1035Z" fill="#3F3B3A"/>
<path d="M243.58 242.777C243.58 242.777 272.495 241.916 274.228 241.371C276.866 240.782 279.601 240.782 282.239 241.371C284.299 242.025 292.527 244.946 292.527 244.946L309.966 249.6C309.966 249.6 327.503 261.033 327.154 263.333C326.805 265.633 324.876 267.202 321.704 266.014C318.533 264.826 302.718 256.586 302.718 256.586L285.279 254.744C285.279 254.744 261.498 263.289 256.691 262.864C251.885 262.439 239.58 260.357 239.58 260.357C239.58 260.357 237.847 248.031 238.719 246.08C239.591 244.129 243.58 242.777 243.58 242.777Z" fill="#AE7461"/>
<path d="M325.901 273.535C325.901 273.535 311.242 257.829 307.187 255.715C303.133 253.6 280.528 249.883 280.528 249.883C280.528 249.883 273.291 246.886 270.643 247.943C267.994 249.001 239.929 253.24 238.697 253.393C237.466 253.546 244.692 278.112 244.692 278.112C251.691 279.118 258.815 278.819 265.705 277.229C276.997 274.581 280.888 271.05 280.888 271.05L292.157 268.085L299.067 270.712C299.067 270.712 300.299 280.935 305.247 280.401L307.536 278.81L305.77 267.518L313.007 270.515C313.007 270.515 318.664 278.995 322.893 277.752C327.122 276.51 325.901 273.535 325.901 273.535Z" fill="#AE7461"/>
<path d="M325.901 273.534C326.004 273.936 326.041 274.352 326.01 274.766C325.958 275.265 325.77 275.741 325.465 276.139C325.027 276.679 324.456 277.096 323.808 277.349C323.022 277.736 322.133 277.866 321.269 277.72C320.244 277.44 319.287 276.954 318.457 276.292C316.394 274.63 314.6 272.659 313.138 270.45L305.912 267.431L305.618 267.3V267.616C306.141 271.017 306.708 274.831 307.351 278.919L307.438 278.722L305.149 280.303H305.247C304.78 280.34 304.311 280.276 303.871 280.117C303.431 279.957 303.031 279.704 302.697 279.376C301.978 278.678 301.404 277.845 301.007 276.924C300.157 274.976 299.589 272.918 299.318 270.81V270.668L299.187 270.614L292.299 267.976H292.223H292.146L280.855 270.919H280.79C278.401 272.627 275.771 273.968 272.986 274.897C270.086 275.927 267.118 276.754 264.103 277.371C260.978 277.995 257.806 278.36 254.621 278.461C251.341 278.579 248.058 278.396 244.812 277.916L245.03 278.112C244.528 276.379 243.94 274.526 243.46 272.663C241.902 267.104 240.343 261.644 239.221 256.238C239.079 255.575 238.973 254.906 238.904 254.232C238.894 254.08 238.894 253.927 238.904 253.774C238.97 253.665 238.904 253.698 238.904 253.774H239.035L240.049 253.622L244.082 253.012L251.983 251.769C257.16 250.93 262.185 250.101 267.013 249.186C268.212 248.935 269.389 248.728 270.588 248.369C271.689 248.038 272.858 248 273.978 248.26C276.217 248.697 278.407 249.354 280.517 250.221H280.572C288.463 251.54 295.689 252.848 301.999 254.352C303.517 254.702 305.013 255.143 306.479 255.671C307.787 256.279 308.99 257.092 310.043 258.08C312.223 259.889 314.032 261.676 315.699 263.289C319.034 266.559 321.563 269.153 323.329 270.919L325.301 272.957C325.759 273.415 325.999 273.633 325.999 273.633C325.999 273.633 325.792 273.382 325.356 272.902L323.438 270.821C321.727 269.022 319.22 266.363 315.917 263.093C314.261 261.469 312.419 259.66 310.282 257.829C309.748 257.371 309.193 256.902 308.604 256.467C308.002 256.016 307.342 255.649 306.642 255.377C305.159 254.837 303.645 254.386 302.108 254.025C295.787 252.477 288.572 251.148 280.67 249.785H280.724C278.583 248.897 276.36 248.222 274.087 247.769C272.88 247.494 271.622 247.535 270.435 247.889C269.346 248.227 268.125 248.434 266.937 248.685C262.13 249.589 257.128 250.396 251.918 251.224L244.016 252.456L239.983 253.077L238.97 253.229H238.752H238.632C238.559 253.278 238.499 253.343 238.456 253.418C238.412 253.494 238.387 253.578 238.381 253.665C238.365 253.854 238.365 254.044 238.381 254.232C238.447 254.932 238.552 255.627 238.697 256.314C239.787 261.763 241.389 267.213 242.948 272.782C243.482 274.657 244.038 276.521 244.517 278.232V278.406H244.692C247.97 278.896 251.287 279.078 254.599 278.951C257.814 278.861 261.016 278.496 264.169 277.861C267.212 277.244 270.206 276.406 273.128 275.355C274.551 274.848 275.944 274.262 277.302 273.6C278.651 272.964 279.927 272.182 281.106 271.267L280.997 271.322L292.266 268.347H292.114L299.024 270.973L298.871 270.777C299.151 272.936 299.742 275.043 300.626 277.033C301.046 278.006 301.657 278.885 302.424 279.616C302.805 279.983 303.26 280.264 303.758 280.443C304.255 280.621 304.785 280.692 305.313 280.652H305.367L307.656 279.06L307.765 278.984V278.853C307.122 274.777 306.511 270.962 305.977 267.562L305.727 267.758L312.975 270.733L312.909 270.679C314.408 272.906 316.247 274.885 318.359 276.543C319.222 277.211 320.212 277.697 321.269 277.97C322.173 278.119 323.101 277.974 323.917 277.556C324.585 277.287 325.169 276.842 325.607 276.27C325.917 275.851 326.102 275.352 326.141 274.831C326.181 274.385 326.098 273.937 325.901 273.534Z" fill="#6F4439"/>
<path d="M281.529 260.216C281.891 260.257 282.257 260.257 282.619 260.216C283.328 260.161 284.352 260.063 285.627 259.932L290.074 259.431L291.36 259.289C291.782 259.219 292.213 259.219 292.636 259.289C293.56 259.43 294.477 259.619 295.382 259.856C299.055 260.946 302.739 261.633 304.101 263.812C304.69 264.607 305.133 265.5 305.409 266.45C305.605 267.126 305.66 267.54 305.693 267.54C305.751 267.176 305.725 266.803 305.616 266.45C305.419 265.439 305.011 264.481 304.417 263.638C304.007 263.048 303.502 262.529 302.924 262.101C302.255 261.633 301.521 261.265 300.744 261.011C299.018 260.383 297.261 259.841 295.48 259.387C294.555 259.14 293.616 258.947 292.668 258.81C292.199 258.739 291.721 258.739 291.251 258.81L289.976 258.984L285.529 259.595C284.265 259.78 283.251 259.943 282.543 260.063C282.2 260.067 281.859 260.118 281.529 260.216Z" fill="#6F4439"/>
<path d="M320.876 268.314C320.508 267.874 320.103 267.465 319.666 267.093C318.849 266.341 317.65 265.284 316.135 264.02C314.62 262.755 312.778 261.273 310.686 259.736C309.596 258.973 308.506 258.189 307.263 257.447C306.632 257.071 305.98 256.729 305.312 256.423C304.602 256.146 303.873 255.917 303.132 255.736C298.111 254.52 293.013 253.646 287.874 253.121L283.231 252.543C282.665 252.449 282.093 252.401 281.52 252.401C282.067 252.573 282.629 252.693 283.198 252.761L287.808 253.513C291.699 254.2 297.16 254.679 302.958 256.281C303.666 256.457 304.361 256.679 305.04 256.946C305.689 257.238 306.323 257.566 306.936 257.927C308.146 258.646 309.269 259.409 310.337 260.161C312.517 261.665 314.315 263.104 315.863 264.325L319.503 267.257C319.932 267.644 320.391 267.998 320.876 268.314Z" fill="#6F4439"/>
<path d="M138.285 165.939C143.506 173.323 148.124 181.116 152.094 189.241C157.337 200.14 174.274 237.252 174.274 237.252L243.298 240.87L242.273 267.54C242.273 267.54 175.615 291.289 160.694 286.701C145.773 282.112 129.871 264.902 129.871 264.902L122.732 152.424C122.732 152.424 128.651 151.323 138.285 165.939Z" fill="#AB2526"/>
<path d="M123.854 152.696C123.854 152.696 141.554 192.838 144.137 209.84C149.27 243.627 150.992 264.717 150.992 264.717L157.009 316.956H39.1351C39.1351 316.956 35.2332 220.14 37.74 187.683C39.6146 163.356 58.252 148.206 65.8705 139.89C66.3282 139.389 68.4209 132.577 68.4209 132.577L123.352 146.647L123.854 152.696Z" fill="#AB2526"/>
<path d="M129.554 158.789C129.58 158.922 129.624 159.05 129.685 159.171C129.805 159.443 129.947 159.814 130.143 160.26L131.897 164.457C133.412 168.097 135.603 173.383 137.805 180.097C140.365 187.946 142.4 195.956 143.897 204.075C145.652 213.241 147.069 223.41 148.257 234.123C150.437 255.573 152.388 274.984 153.815 289.066C154.546 296.074 155.134 301.752 155.548 305.709C155.766 307.649 155.93 309.164 156.05 310.232C156.115 310.733 156.159 311.115 156.191 311.409C156.206 311.545 156.232 311.68 156.268 311.812C156.277 311.678 156.277 311.543 156.268 311.409C156.268 311.115 156.213 310.722 156.181 310.221C156.082 309.131 155.952 307.638 155.788 305.687C155.418 301.72 154.884 296.041 154.23 289.022C152.867 274.962 151.069 255.518 148.78 234.058C147.603 223.344 146.164 213.154 144.42 203.977C142.898 195.829 140.818 187.796 138.197 179.933C135.941 173.23 133.696 167.944 132.115 164.337C131.331 162.517 130.688 161.121 130.252 160.184C130.045 159.726 129.881 159.378 129.75 159.094C129.691 158.989 129.625 158.887 129.554 158.789Z" fill="#1E1A1A"/>
<g opacity="0.3">
<path d="M68.3116 221.982C69.4015 211.29 74.208 200.554 83.0035 194.385L154.872 297.011C142.185 303.856 128.093 310.918 114 307.91C106.371 306.286 99.6791 301.818 94.2078 296.314C82.84 284.88 76.6712 269.306 72.3442 253.807C69.456 243.431 67.2326 232.674 68.3116 221.982Z" fill="black"/>
</g>
<path d="M60.1706 209.59C69.1188 241.273 89.2711 279.932 95.4618 287.703C99.9303 293.418 105.634 298.046 112.147 301.242C118.659 304.437 125.81 306.117 133.064 306.155C141.173 306.155 209.706 292.804 230.065 288.815C231.74 288.483 233.28 287.667 234.495 286.467C235.71 285.268 236.546 283.738 236.899 282.068L237.074 281.229L246.174 278.744L241.302 254.21L240.332 252.848L142.317 255.932L113.805 176.511C113.26 175.606 105.031 148.958 82.699 150.168" fill="#AB2526"/>
<path d="M82.6984 150.19H83.4396C84.1666 150.169 84.8943 150.187 85.6194 150.244C88.4581 150.413 91.2461 151.073 93.8591 152.195C98.0336 154.098 101.714 156.936 104.616 160.489C108.536 165.302 111.597 170.756 113.663 176.609C120.867 196.729 130.643 224.064 142.098 256.052L142.153 256.227H142.338L240.31 253.153L240.07 253.033L241.04 254.396V254.287C242.446 261.382 243.939 268.924 245.4 276.554L245.847 278.821L246.054 278.483L236.909 280.946L236.735 281V281.164C236.468 283.182 235.518 285.047 234.043 286.45C233.308 287.128 232.46 287.67 231.536 288.052C230.587 288.401 229.604 288.653 228.604 288.804L216.615 291.147L193.182 295.649C177.826 298.559 163.035 301.327 148.921 303.714C145.39 304.303 141.902 304.804 138.458 305.349C136.736 305.567 135.014 305.807 133.325 305.883C131.628 305.903 129.932 305.82 128.246 305.632C121.73 304.933 115.425 302.911 109.717 299.692C104.418 296.649 99.7285 292.651 95.8863 287.899C94.1513 285.612 92.5641 283.217 91.1343 280.728C89.7065 278.297 88.355 275.889 87.0798 273.524C79.0686 258.564 72.049 243.094 66.0664 227.213C63.9956 221.59 62.5133 217.175 61.576 214.135C61.1183 212.641 60.7586 211.497 60.4861 210.712C60.2136 209.927 60.1155 209.557 60.1155 209.557C60.1155 209.557 60.2136 209.949 60.4316 210.723L61.4343 214.167C62.3389 217.186 63.7885 221.611 65.794 227.246C71.7097 243.168 78.6862 258.676 86.6766 273.665C87.9409 276.041 89.2923 278.45 90.7092 280.891C92.1433 283.406 93.7417 285.824 95.4939 288.128C99.3821 292.958 104.14 297.017 109.521 300.096C115.277 303.355 121.637 305.406 128.213 306.123C129.92 306.319 131.639 306.407 133.357 306.384C135.101 306.308 136.812 306.068 138.545 305.85C142 305.36 145.499 304.76 149.03 304.226C163.199 301.85 177.945 299.093 193.313 296.194L216.746 291.692L228.735 289.36C229.769 289.203 230.785 288.94 231.765 288.575C232.755 288.173 233.664 287.593 234.446 286.864C236.007 285.383 237.018 283.415 237.313 281.284L237.106 281.502L246.25 279.039L246.501 278.962V278.712C246.359 277.992 246.195 277.218 246.043 276.445C244.528 268.815 243.035 261.273 241.683 254.178V254.112L240.713 252.75L240.626 252.63H240.31L142.295 255.747L142.534 255.911L113.935 176.522C111.847 170.663 108.757 165.213 104.802 160.413C101.861 156.84 98.1298 154.001 93.9027 152.119C91.2703 151.008 88.4625 150.369 85.6085 150.233C84.8827 150.185 84.1544 150.185 83.4286 150.233L82.6984 150.19Z" fill="#1E1A1A"/>
<path d="M163.908 249.666C165.21 247.179 166.798 244.853 168.638 242.734C170.606 240.747 172.801 238.998 175.178 237.524C174.366 237.74 173.596 238.09 172.9 238.559C171.152 239.585 169.562 240.859 168.181 242.341C166.801 243.825 165.641 245.499 164.736 247.311C164.341 248.049 164.062 248.843 163.908 249.666Z" fill="#1E1A1A"/>
<path d="M130.459 275.169C130.557 275.169 130.753 273.916 131.32 271.9C132.071 269.33 133.152 266.868 134.535 264.575C135.937 262.295 137.634 260.21 139.581 258.374C141.075 256.957 142.121 256.194 142.066 256.129C141.779 256.235 141.511 256.386 141.271 256.576C140.586 257.032 139.931 257.53 139.309 258.069C135.162 261.669 132.234 266.467 130.928 271.802C130.726 272.6 130.584 273.412 130.502 274.232C130.439 274.54 130.424 274.857 130.459 275.169Z" fill="#1E1A1A"/>
<g opacity="0.3">
<path d="M156.607 255.333L150.907 255.551C149.98 233.153 145.37 210.865 141.425 188.772C151.484 209.328 154.122 232.598 156.607 255.333Z" fill="black"/>
</g>
<path d="M67.7771 139.89C67.9487 139.978 68.1324 140.041 68.3221 140.075L69.8916 140.511L75.668 142.048C80.5399 143.345 87.2647 145.198 94.7414 147.083C102.218 148.969 109.052 150.429 114.044 151.247C116.54 151.661 118.567 151.955 119.973 152.097L121.597 152.261C121.785 152.287 121.976 152.287 122.164 152.261C121.985 152.193 121.798 152.149 121.608 152.13L120.005 151.857C118.61 151.65 116.594 151.29 114.12 150.833C109.161 149.917 102.349 148.402 94.8831 146.473C87.4173 144.544 80.7143 142.789 75.7661 141.59C73.3138 140.991 71.3193 140.5 69.9351 140.228L68.3439 139.901C68.1562 139.873 67.9657 139.869 67.7771 139.89Z" fill="#1E1A1A"/>
</svg>
