<svg width="506" height="317" viewBox="0 0 506 317" fill="none" xmlns="http://www.w3.org/2000/svg">
<path d="M101.695 2.99804C101.695 3.41408 101.818 3.82078 102.05 4.1667C102.281 4.51262 102.609 4.78223 102.994 4.94144C103.378 5.10065 103.801 5.14231 104.209 5.06115C104.617 4.97998 104.992 4.77964 105.286 4.48546C105.58 4.19128 105.781 3.81647 105.862 3.40842C105.943 3.00038 105.901 2.57742 105.742 2.19305C105.583 1.80869 105.313 1.48017 104.967 1.24903C104.621 1.01789 104.215 0.894531 103.799 0.894531C103.241 0.894531 102.706 1.11614 102.311 1.51063C101.917 1.90512 101.695 2.44016 101.695 2.99804Z" fill="#E0E0E0"/>
<path d="M84.038 15.2374C84.038 15.4772 92.8772 15.6625 103.798 15.6625C114.719 15.6625 123.558 15.4772 123.558 15.2374C123.558 14.9976 114.708 14.8232 103.798 14.8232C92.8881 14.8232 84.038 14.9867 84.038 15.2374Z" fill="#E0E0E0"/>
<path d="M84.038 21.5265C84.038 21.7554 92.8772 21.9515 103.798 21.9515C114.719 21.9515 123.558 21.7554 123.558 21.5265C123.558 21.2976 114.708 21.1123 103.798 21.1123C92.8881 21.1123 84.038 21.2649 84.038 21.5265Z" fill="#E0E0E0"/>
<path d="M84.038 27.7491C84.038 27.978 92.8772 28.1742 103.798 28.1742C114.719 28.1742 123.558 27.978 123.558 27.7491C123.558 27.5203 114.708 27.335 103.798 27.335C92.8881 27.335 84.038 27.5203 84.038 27.7491Z" fill="#E0E0E0"/>
<path d="M84.038 34.006C84.038 34.2348 92.8772 34.431 103.798 34.431C114.719 34.431 123.558 34.2348 123.558 34.006C123.558 33.7771 114.708 33.5918 103.798 33.5918C92.8881 33.5918 84.038 33.7771 84.038 34.006Z" fill="#E0E0E0"/>
<path d="M84.038 40.2618C84.038 40.4907 92.8772 40.6869 103.798 40.6869C114.719 40.6869 123.558 40.4907 123.558 40.2618C123.558 40.0329 114.708 39.8477 103.798 39.8477C92.8881 39.8477 84.038 40.0547 84.038 40.2618Z" fill="#E0E0E0"/>
<path d="M84.038 46.5177C84.038 46.7465 92.8772 46.9427 103.798 46.9427C114.719 46.9427 123.558 46.7465 123.558 46.5177C123.558 46.2888 114.708 46.1035 103.798 46.1035C92.8881 46.1035 84.038 46.2888 84.038 46.5177Z" fill="#E0E0E0"/>
<path d="M84.038 52.7735C84.038 53.0024 92.8772 53.1986 103.798 53.1986C114.719 53.1986 123.558 53.0024 123.558 52.7735C123.558 52.5447 114.708 52.3594 103.798 52.3594C92.8881 52.3594 84.038 52.5447 84.038 52.7735Z" fill="#E0E0E0"/>
<path d="M505.288 301.044L447.763 262.2L169.019 260.87L156.267 301.633L505.288 301.044Z" fill="#455A64"/>
<path d="M156.987 316.957L505.866 316.706V300.281L156.834 301.371L156.987 316.957Z" fill="#455A64"/>
<path d="M165.543 301.284C165.543 301.437 240.888 301.535 333.792 301.491C426.695 301.448 502.052 301.284 502.052 301.121C502.052 300.957 426.728 300.87 333.792 300.914C240.855 300.957 165.543 301.121 165.543 301.284Z" fill="#263238"/>
<path d="M164.332 80.3262H360.897V205.36H164.332V80.3262Z" fill="white"/>
<path d="M325.497 80.3262H360.897V205.36H325.497V80.3262Z" fill="#EBEBEB"/>
<path d="M345.333 93.8197C345.149 93.7095 344.951 93.6252 344.744 93.569L344.624 92.9805H343.643L343.491 93.5581C343.285 93.6124 343.087 93.693 342.902 93.7979L342.401 93.4709L341.692 94.1467L341.998 94.6589C341.887 94.8427 341.803 95.0407 341.747 95.2475L341.158 95.3674V96.3592L341.736 96.5009C341.782 96.7109 341.86 96.9129 341.965 97.1003L341.638 97.5908L342.325 98.2992L342.837 97.9941C343.02 98.1077 343.218 98.1957 343.425 98.2556L343.545 98.8333H344.537L344.679 98.2556C344.885 98.2013 345.082 98.1207 345.267 98.0158L345.769 98.3428L346.477 97.6562L346.172 97.1439C346.282 96.9602 346.367 96.7621 346.423 96.5554L347.011 96.4355V95.4545L346.434 95.3129C346.385 95.1036 346.308 94.9019 346.205 94.7134L346.532 94.2121L345.845 93.5036L345.333 93.8088V93.8197ZM344.81 95.1385C345 95.3406 345.105 95.6076 345.105 95.8851C345.105 96.1625 345 96.4295 344.81 96.6317C344.607 96.8249 344.338 96.9327 344.058 96.9327C343.778 96.9327 343.508 96.8249 343.306 96.6317C343.181 96.4206 343.132 96.1739 343.165 95.9313C343.198 95.6887 343.312 95.4643 343.488 95.2944C343.665 95.1244 343.893 95.0187 344.137 94.9944C344.38 94.9701 344.625 95.0285 344.831 95.1603L344.81 95.1385Z" fill="#E0E0E0"/>
<path d="M337.159 121.449H352.57C352.778 121.449 352.985 121.408 353.177 121.328C353.37 121.248 353.544 121.13 353.691 120.982C353.838 120.834 353.954 120.659 354.033 120.466C354.112 120.273 354.152 120.066 354.15 119.858C354.15 119.439 353.984 119.037 353.687 118.74C353.391 118.444 352.989 118.277 352.57 118.277H337.137C336.928 118.276 336.722 118.316 336.529 118.395C336.336 118.473 336.16 118.589 336.012 118.736C335.864 118.883 335.747 119.058 335.667 119.25C335.587 119.443 335.546 119.649 335.546 119.858C335.546 120.069 335.587 120.277 335.669 120.472C335.75 120.666 335.869 120.843 336.019 120.991C336.169 121.139 336.347 121.256 336.543 121.334C336.739 121.413 336.948 121.452 337.159 121.449Z" fill="#E0E0E0"/>
<path d="M337.159 113.373H352.57C352.99 113.37 353.392 113.201 353.688 112.903C353.984 112.605 354.15 112.202 354.15 111.782C354.15 111.362 353.984 110.96 353.688 110.664C353.391 110.368 352.989 110.201 352.57 110.201H337.137C336.928 110.2 336.722 110.24 336.529 110.318C336.336 110.397 336.16 110.513 336.012 110.66C335.864 110.807 335.747 110.982 335.667 111.174C335.587 111.367 335.546 111.573 335.546 111.782C335.546 111.992 335.588 112.201 335.669 112.396C335.75 112.59 335.869 112.767 336.019 112.915C336.169 113.063 336.347 113.179 336.543 113.258C336.739 113.337 336.948 113.376 337.159 113.373Z" fill="#E0E0E0"/>
<path d="M337.159 105.972H352.57C352.989 105.972 353.391 105.806 353.688 105.51C353.984 105.213 354.15 104.811 354.15 104.392C354.15 103.972 353.984 103.569 353.688 103.271C353.392 102.973 352.99 102.804 352.57 102.801H337.137C336.724 102.806 336.33 102.972 336.037 103.263C335.744 103.554 335.576 103.947 335.567 104.359C335.563 104.571 335.601 104.78 335.679 104.977C335.757 105.173 335.874 105.352 336.022 105.502C336.171 105.652 336.348 105.771 336.543 105.852C336.738 105.933 336.948 105.974 337.159 105.972Z" fill="#E0E0E0"/>
<path d="M295.688 98.8005H310.314C310.733 98.8005 311.135 98.6341 311.432 98.3377C311.728 98.0413 311.894 97.6393 311.894 97.2202C311.896 97.0117 311.856 96.805 311.777 96.612C311.699 96.419 311.582 96.2435 311.435 96.0956C311.289 95.9477 311.114 95.8303 310.921 95.7502C310.729 95.6701 310.523 95.6289 310.314 95.6289H295.688C295.479 95.6289 295.273 95.6701 295.08 95.7502C294.888 95.8303 294.713 95.9477 294.566 96.0956C294.419 96.2435 294.303 96.419 294.224 96.612C294.146 96.805 294.106 97.0117 294.107 97.2202C294.107 97.6393 294.274 98.0413 294.57 98.3377C294.866 98.6341 295.268 98.8005 295.688 98.8005Z" fill="#263238"/>
<path d="M295.688 107.105H310.314C310.523 107.105 310.729 107.064 310.921 106.984C311.114 106.904 311.289 106.786 311.435 106.639C311.582 106.491 311.699 106.315 311.777 106.122C311.856 105.929 311.896 105.722 311.894 105.514C311.894 105.095 311.728 104.693 311.432 104.396C311.135 104.1 310.733 103.934 310.314 103.934H295.688C295.268 103.934 294.866 104.1 294.57 104.396C294.274 104.693 294.107 105.095 294.107 105.514C294.106 105.722 294.146 105.929 294.224 106.122C294.303 106.315 294.419 106.491 294.566 106.639C294.713 106.786 294.888 106.904 295.08 106.984C295.273 107.064 295.479 107.105 295.688 107.105Z" fill="#E0E0E0"/>
<path d="M295.688 115.683H310.314C310.733 115.683 311.135 115.517 311.432 115.22C311.728 114.924 311.894 114.522 311.894 114.103C311.896 113.895 311.856 113.688 311.777 113.495C311.699 113.302 311.582 113.126 311.435 112.978C311.289 112.831 311.114 112.713 310.921 112.633C310.729 112.553 310.523 112.512 310.314 112.512H295.688C295.479 112.512 295.273 112.553 295.08 112.633C294.888 112.713 294.713 112.831 294.566 112.978C294.419 113.126 294.303 113.302 294.224 113.495C294.146 113.688 294.106 113.895 294.107 114.103C294.107 114.522 294.274 114.924 294.57 115.22C294.866 115.517 295.268 115.683 295.688 115.683Z" fill="#FF8523"/>
<path d="M301.922 132.271H310.314C310.523 132.271 310.729 132.23 310.921 132.15C311.114 132.07 311.289 131.952 311.435 131.804C311.582 131.657 311.699 131.481 311.777 131.288C311.856 131.095 311.896 130.888 311.894 130.68C311.894 130.261 311.728 129.859 311.432 129.562C311.135 129.266 310.733 129.1 310.314 129.1H301.922C301.503 129.1 301.101 129.266 300.804 129.562C300.508 129.859 300.341 130.261 300.341 130.68C300.34 130.888 300.38 131.095 300.459 131.288C300.537 131.481 300.654 131.657 300.8 131.804C300.947 131.952 301.122 132.07 301.315 132.15C301.507 132.23 301.713 132.271 301.922 132.271Z" fill="#263238"/>
<path d="M301.922 140.871H310.314C310.523 140.871 310.729 140.83 310.921 140.75C311.114 140.669 311.289 140.552 311.435 140.404C311.582 140.256 311.699 140.081 311.777 139.888C311.856 139.695 311.896 139.488 311.894 139.28C311.894 138.86 311.728 138.458 311.432 138.162C311.135 137.866 310.733 137.699 310.314 137.699H301.922C301.503 137.699 301.101 137.866 300.804 138.162C300.508 138.458 300.341 138.86 300.341 139.28C300.34 139.488 300.38 139.695 300.459 139.888C300.537 140.081 300.654 140.256 300.8 140.404C300.947 140.552 301.122 140.669 301.315 140.75C301.507 140.83 301.713 140.871 301.922 140.871Z" fill="#263238"/>
<path d="M277.017 140.871H292.385C292.807 140.871 293.212 140.703 293.51 140.405C293.808 140.106 293.976 139.702 293.976 139.28C293.973 138.859 293.804 138.458 293.506 138.161C293.208 137.865 292.805 137.699 292.385 137.699H277.017C276.809 137.698 276.602 137.738 276.409 137.816C276.216 137.895 276.04 138.011 275.893 138.158C275.745 138.305 275.627 138.48 275.547 138.672C275.467 138.865 275.426 139.071 275.426 139.28C275.426 139.702 275.593 140.106 275.892 140.405C276.19 140.703 276.595 140.871 277.017 140.871Z" fill="#E0E0E0"/>
<path d="M285.704 148.511H301.083C301.502 148.511 301.904 148.345 302.2 148.049C302.497 147.752 302.663 147.35 302.663 146.931C302.663 146.511 302.497 146.108 302.201 145.81C301.905 145.512 301.503 145.343 301.083 145.34H285.704C285.284 145.343 284.882 145.512 284.586 145.81C284.29 146.108 284.124 146.511 284.124 146.931C284.124 147.35 284.29 147.752 284.587 148.049C284.883 148.345 285.285 148.511 285.704 148.511Z" fill="#FF8523"/>
<path d="M282.303 154.069H292.865C293.461 154.069 293.944 154.552 293.944 155.148V156.162C293.944 156.758 293.461 157.241 292.865 157.241H282.303C281.707 157.241 281.224 156.758 281.224 156.162V155.148C281.224 154.552 281.707 154.069 282.303 154.069Z" fill="#FF8523"/>
<path d="M282.816 174.331H292.364C292.573 174.331 292.78 174.29 292.973 174.21C293.166 174.13 293.341 174.013 293.489 173.865C293.637 173.717 293.754 173.542 293.834 173.349C293.914 173.155 293.955 172.949 293.955 172.74C293.955 172.531 293.914 172.325 293.834 172.132C293.754 171.94 293.636 171.765 293.488 171.618C293.34 171.471 293.165 171.355 292.972 171.276C292.779 171.198 292.572 171.158 292.364 171.159H282.816C282.397 171.159 281.995 171.326 281.699 171.622C281.402 171.918 281.236 172.32 281.236 172.74C281.234 172.948 281.274 173.155 281.353 173.348C281.432 173.541 281.548 173.716 281.695 173.864C281.842 174.012 282.016 174.129 282.209 174.21C282.401 174.29 282.608 174.331 282.816 174.331Z" fill="#FF8523"/>
<path d="M282.816 192.38H292.364C292.572 192.381 292.779 192.341 292.972 192.262C293.165 192.184 293.34 192.068 293.488 191.921C293.636 191.774 293.754 191.599 293.834 191.407C293.914 191.214 293.955 191.008 293.955 190.799C293.955 190.59 293.914 190.383 293.834 190.19C293.754 189.997 293.637 189.822 293.489 189.674C293.341 189.526 293.166 189.409 292.973 189.329C292.78 189.249 292.573 189.208 292.364 189.208H282.816C282.608 189.208 282.401 189.249 282.209 189.329C282.016 189.409 281.842 189.527 281.695 189.675C281.548 189.823 281.432 189.998 281.353 190.191C281.274 190.384 281.234 190.591 281.236 190.799C281.236 191.218 281.402 191.62 281.699 191.917C281.995 192.213 282.397 192.38 282.816 192.38Z" fill="#FF8523"/>
<path d="M259.328 192.38H276.069C276.277 192.381 276.484 192.341 276.677 192.262C276.87 192.184 277.046 192.068 277.193 191.921C277.341 191.774 277.459 191.599 277.539 191.407C277.619 191.214 277.66 191.008 277.66 190.799C277.66 190.377 277.493 189.972 277.194 189.674C276.896 189.376 276.491 189.208 276.069 189.208H259.328C259.119 189.208 258.913 189.249 258.721 189.329C258.528 189.409 258.353 189.527 258.207 189.675C258.06 189.823 257.943 189.998 257.865 190.191C257.786 190.384 257.746 190.591 257.748 190.799C257.748 191.218 257.914 191.62 258.21 191.917C258.507 192.213 258.909 192.38 259.328 192.38Z" fill="#455A64"/>
<path d="M247.612 192.38H250.021C250.229 192.381 250.436 192.341 250.629 192.262C250.822 192.184 250.998 192.068 251.145 191.921C251.293 191.774 251.411 191.599 251.491 191.407C251.571 191.214 251.612 191.008 251.612 190.799C251.612 190.59 251.571 190.383 251.491 190.19C251.411 189.997 251.294 189.822 251.146 189.674C250.998 189.526 250.823 189.409 250.63 189.329C250.437 189.249 250.23 189.208 250.021 189.208H247.612C247.19 189.208 246.785 189.376 246.487 189.674C246.189 189.972 246.021 190.377 246.021 190.799C246.024 191.219 246.193 191.621 246.491 191.917C246.789 192.213 247.192 192.38 247.612 192.38Z" fill="#E0E0E0"/>
<path d="M260.331 174.331H274.5C274.922 174.331 275.327 174.163 275.625 173.865C275.924 173.566 276.091 173.162 276.091 172.74C276.091 172.531 276.05 172.325 275.97 172.132C275.89 171.94 275.772 171.765 275.625 171.618C275.477 171.471 275.301 171.355 275.108 171.276C274.915 171.198 274.708 171.158 274.5 171.159H260.331C259.912 171.159 259.51 171.326 259.214 171.622C258.917 171.918 258.751 172.32 258.751 172.74C258.749 172.948 258.789 173.155 258.868 173.348C258.947 173.541 259.063 173.716 259.21 173.864C259.357 174.012 259.531 174.129 259.724 174.21C259.916 174.29 260.123 174.331 260.331 174.331Z" fill="#E0E0E0"/>
<path d="M229.301 182.255H274.478C274.9 182.255 275.305 182.087 275.603 181.789C275.902 181.49 276.069 181.085 276.069 180.663C276.069 180.455 276.028 180.249 275.948 180.056C275.868 179.864 275.751 179.689 275.603 179.542C275.455 179.395 275.279 179.279 275.086 179.2C274.893 179.121 274.687 179.082 274.478 179.083H229.301C228.882 179.083 228.48 179.25 228.184 179.546C227.888 179.842 227.721 180.244 227.721 180.663C227.72 180.872 227.759 181.079 227.838 181.272C227.917 181.465 228.033 181.64 228.18 181.788C228.327 181.936 228.502 182.053 228.694 182.133C228.887 182.213 229.093 182.255 229.301 182.255Z" fill="#E0E0E0"/>
<path d="M224.092 174.331H252.931C253.353 174.331 253.758 174.163 254.056 173.865C254.355 173.566 254.522 173.162 254.522 172.74C254.519 172.319 254.35 171.917 254.052 171.621C253.754 171.325 253.351 171.159 252.931 171.159H224.092C223.884 171.158 223.677 171.198 223.484 171.276C223.291 171.355 223.115 171.471 222.967 171.618C222.82 171.765 222.702 171.94 222.622 172.132C222.542 172.325 222.501 172.531 222.501 172.74C222.501 173.162 222.668 173.566 222.967 173.865C223.265 174.163 223.67 174.331 224.092 174.331Z" fill="#455A64"/>
<path d="M263.035 154.069H275.994C276.589 154.069 277.073 154.552 277.073 155.148V156.162C277.073 156.758 276.589 157.241 275.994 157.241H263.035C262.439 157.241 261.955 156.758 261.955 156.162V155.148C261.955 154.552 262.439 154.069 263.035 154.069Z" fill="#455A64"/>
<path d="M252.691 154.069H256.669C257.265 154.069 257.748 154.552 257.748 155.148V156.162C257.748 156.758 257.265 157.241 256.669 157.241H252.691C252.095 157.241 251.612 156.758 251.612 156.162V155.148C251.612 154.552 252.095 154.069 252.691 154.069Z" fill="#E0E0E0"/>
<path d="M229.901 154.069H245.857C246.453 154.069 246.936 154.552 246.936 155.148V156.162C246.936 156.758 246.453 157.241 245.857 157.241H229.901C229.305 157.241 228.822 156.758 228.822 156.162V155.148C228.822 154.552 229.305 154.069 229.901 154.069Z" fill="#E0E0E0"/>
<path d="M275.295 148.511H278.718C278.926 148.513 279.133 148.473 279.326 148.394C279.519 148.316 279.694 148.199 279.842 148.052C279.99 147.906 280.107 147.731 280.188 147.538C280.268 147.346 280.309 147.14 280.309 146.931C280.309 146.509 280.141 146.104 279.843 145.806C279.544 145.507 279.14 145.34 278.718 145.34H275.295C274.875 145.343 274.473 145.512 274.177 145.81C273.881 146.108 273.715 146.511 273.715 146.931C273.715 147.35 273.881 147.752 274.178 148.049C274.474 148.345 274.876 148.511 275.295 148.511Z" fill="#263238"/>
<path d="M246.282 148.511H268.08C268.499 148.511 268.901 148.345 269.198 148.049C269.494 147.752 269.661 147.35 269.661 146.931C269.661 146.511 269.495 146.108 269.198 145.81C268.902 145.512 268.5 145.343 268.08 145.34H246.282C245.861 145.343 245.458 145.511 245.16 145.809C244.862 146.107 244.694 146.51 244.691 146.931C244.694 147.351 244.863 147.753 245.161 148.049C245.459 148.345 245.862 148.511 246.282 148.511Z" fill="#E0E0E0"/>
<path d="M272.277 98.8005H286.893C287.312 98.8005 287.714 98.6341 288.01 98.3377C288.307 98.0413 288.473 97.6393 288.473 97.2202C288.475 97.0117 288.435 96.805 288.356 96.612C288.277 96.419 288.161 96.2435 288.014 96.0956C287.867 95.9477 287.692 95.8303 287.5 95.7502C287.308 95.6701 287.101 95.6289 286.893 95.6289H272.277C271.855 95.6289 271.45 95.7966 271.152 96.095C270.853 96.3934 270.686 96.7982 270.686 97.2202C270.686 97.4287 270.727 97.635 270.807 97.8275C270.887 98.0199 271.005 98.1946 271.153 98.3415C271.3 98.4884 271.476 98.6046 271.669 98.6834C271.862 98.7622 272.069 98.802 272.277 98.8005Z" fill="#455A64"/>
<path d="M253.389 107.105H286.893C287.101 107.105 287.308 107.064 287.5 106.984C287.692 106.904 287.867 106.786 288.014 106.639C288.161 106.491 288.277 106.315 288.356 106.122C288.435 105.929 288.475 105.722 288.473 105.514C288.473 105.095 288.307 104.693 288.01 104.397C287.714 104.1 287.312 103.934 286.893 103.934H253.389C253.181 103.932 252.974 103.972 252.781 104.051C252.588 104.13 252.412 104.246 252.264 104.393C252.117 104.54 251.999 104.714 251.919 104.907C251.839 105.099 251.798 105.306 251.798 105.514C251.798 105.936 251.965 106.341 252.264 106.639C252.562 106.938 252.967 107.105 253.389 107.105Z" fill="#263238"/>
<path d="M217.422 115.683H286.893C287.312 115.683 287.714 115.517 288.01 115.22C288.307 114.924 288.473 114.522 288.473 114.103C288.475 113.895 288.435 113.688 288.356 113.495C288.277 113.302 288.161 113.126 288.014 112.978C287.867 112.831 287.692 112.713 287.5 112.633C287.308 112.553 287.101 112.512 286.893 112.512H217.422C217.214 112.512 217.007 112.553 216.815 112.633C216.622 112.713 216.448 112.831 216.301 112.978C216.154 113.126 216.038 113.302 215.959 113.495C215.88 113.688 215.84 113.895 215.842 114.103C215.842 114.522 216.008 114.924 216.305 115.22C216.601 115.517 217.003 115.683 217.422 115.683Z" fill="#E0E0E0"/>
<path d="M254.141 121.732H286.893C287.313 121.729 287.715 121.56 288.011 121.262C288.307 120.964 288.473 120.561 288.473 120.141C288.473 119.722 288.307 119.32 288.01 119.023C287.714 118.727 287.312 118.561 286.893 118.561H254.141C253.933 118.559 253.726 118.599 253.533 118.678C253.34 118.757 253.164 118.873 253.017 119.02C252.869 119.166 252.751 119.341 252.671 119.534C252.591 119.726 252.55 119.933 252.55 120.141C252.55 120.563 252.717 120.968 253.016 121.266C253.314 121.565 253.719 121.732 254.141 121.732Z" fill="#E0E0E0"/>
<path d="M260.833 132.271H293.595C293.804 132.271 294.01 132.23 294.202 132.15C294.395 132.07 294.57 131.952 294.716 131.804C294.863 131.657 294.98 131.481 295.058 131.288C295.137 131.095 295.177 130.888 295.175 130.68C295.175 130.261 295.009 129.859 294.713 129.562C294.416 129.266 294.014 129.1 293.595 129.1H260.833C260.413 129.1 260.011 129.266 259.715 129.562C259.419 129.859 259.252 130.261 259.252 130.68C259.251 130.888 259.291 131.095 259.369 131.288C259.448 131.481 259.564 131.657 259.711 131.804C259.858 131.952 260.033 132.07 260.225 132.15C260.418 132.23 260.624 132.271 260.833 132.271Z" fill="#455A64"/>
<path d="M242.489 132.271H253.476C253.898 132.271 254.302 132.104 254.601 131.805C254.899 131.507 255.067 131.102 255.067 130.68C255.067 130.472 255.026 130.265 254.945 130.073C254.865 129.88 254.748 129.706 254.6 129.559C254.452 129.412 254.277 129.296 254.084 129.217C253.891 129.138 253.684 129.098 253.476 129.1H242.489C242.069 129.1 241.666 129.266 241.368 129.562C241.07 129.858 240.901 130.26 240.898 130.68C240.898 131.102 241.066 131.507 241.364 131.805C241.662 132.104 242.067 132.271 242.489 132.271Z" fill="#FF8523"/>
<path d="M214.424 132.218H235.132C235.341 132.219 235.547 132.179 235.74 132.1C235.933 132.022 236.109 131.905 236.257 131.759C236.405 131.612 236.522 131.437 236.602 131.244C236.682 131.052 236.723 130.846 236.723 130.637C236.723 130.215 236.556 129.81 236.257 129.512C235.959 129.214 235.554 129.046 235.132 129.046H214.424C214.215 129.046 214.009 129.087 213.817 129.167C213.624 129.247 213.449 129.365 213.303 129.513C213.156 129.661 213.039 129.836 212.961 130.029C212.882 130.222 212.842 130.429 212.844 130.637C212.844 131.056 213.01 131.458 213.306 131.755C213.603 132.051 214.005 132.218 214.424 132.218Z" fill="#263238"/>
<path d="M186.206 132.218H206.914C207.334 132.218 207.736 132.051 208.032 131.755C208.328 131.458 208.495 131.056 208.495 130.637C208.496 130.429 208.456 130.222 208.378 130.029C208.299 129.836 208.183 129.661 208.036 129.513C207.889 129.365 207.714 129.247 207.522 129.167C207.329 129.087 207.123 129.046 206.914 129.046H186.206C185.784 129.046 185.379 129.214 185.081 129.512C184.783 129.81 184.615 130.215 184.615 130.637C184.615 130.846 184.656 131.052 184.736 131.244C184.816 131.437 184.934 131.612 185.082 131.759C185.23 131.905 185.405 132.022 185.598 132.1C185.791 132.179 185.998 132.219 186.206 132.218Z" fill="#E0E0E0"/>
<path d="M343.851 130.005H352.57C352.99 130.002 353.392 129.833 353.688 129.535C353.984 129.237 354.15 128.834 354.15 128.413C354.15 127.994 353.984 127.592 353.688 127.296C353.391 127 352.989 126.833 352.57 126.833H343.851C343.432 126.833 343.03 127 342.733 127.296C342.437 127.592 342.27 127.994 342.27 128.413C342.27 128.834 342.437 129.237 342.733 129.535C343.029 129.833 343.431 130.002 343.851 130.005Z" fill="#E0E0E0"/>
<path d="M346.456 155.661H352.57C352.778 155.661 352.985 155.62 353.177 155.54C353.37 155.459 353.544 155.342 353.691 155.194C353.838 155.046 353.954 154.871 354.033 154.678C354.112 154.485 354.152 154.278 354.15 154.07C354.15 153.65 353.984 153.248 353.687 152.952C353.391 152.656 352.989 152.489 352.57 152.489H346.434C346.015 152.489 345.613 152.656 345.316 152.952C345.02 153.248 344.853 153.65 344.853 154.07C344.852 154.28 344.892 154.488 344.973 154.683C345.053 154.877 345.171 155.054 345.32 155.202C345.469 155.35 345.647 155.467 345.842 155.546C346.037 155.625 346.245 155.664 346.456 155.661Z" fill="#E0E0E0"/>
<path d="M335.567 138.55H352.57C352.989 138.55 353.391 138.383 353.687 138.087C353.984 137.79 354.15 137.388 354.15 136.969C354.152 136.761 354.112 136.554 354.033 136.361C353.954 136.168 353.838 135.993 353.691 135.845C353.544 135.697 353.37 135.579 353.177 135.499C352.985 135.419 352.778 135.378 352.57 135.378H335.567C335.359 135.378 335.153 135.419 334.96 135.499C334.768 135.579 334.593 135.697 334.446 135.845C334.299 135.993 334.183 136.168 334.104 136.361C334.025 136.554 333.986 136.761 333.987 136.969C333.987 137.388 334.154 137.79 334.45 138.087C334.746 138.383 335.148 138.55 335.567 138.55Z" fill="#E0E0E0"/>
<path d="M338.554 147.105H352.57C352.989 147.105 353.391 146.939 353.687 146.642C353.984 146.346 354.15 145.944 354.15 145.525C354.152 145.316 354.112 145.11 354.033 144.917C353.954 144.724 353.838 144.548 353.691 144.4C353.544 144.252 353.37 144.135 353.177 144.055C352.985 143.975 352.778 143.934 352.57 143.934H338.532C338.324 143.934 338.117 143.975 337.925 144.055C337.732 144.135 337.558 144.252 337.411 144.4C337.264 144.548 337.148 144.724 337.069 144.917C336.99 145.11 336.95 145.316 336.952 145.525C336.952 145.734 336.993 145.942 337.074 146.135C337.155 146.328 337.273 146.503 337.422 146.65C337.571 146.797 337.748 146.913 337.942 146.991C338.137 147.069 338.344 147.108 338.554 147.105Z" fill="#E0E0E0"/>
<path d="M317.475 97.2205C317.475 97.5395 317.569 97.8514 317.747 98.1167C317.924 98.3819 318.176 98.5887 318.471 98.7108C318.765 98.8329 319.09 98.8648 319.403 98.8025C319.715 98.7403 320.003 98.5867 320.228 98.3611C320.454 98.1355 320.608 97.8481 320.67 97.5352C320.732 97.2223 320.7 96.8979 320.578 96.6032C320.456 96.3085 320.249 96.0565 319.984 95.8793C319.719 95.702 319.407 95.6074 319.088 95.6074C318.66 95.6074 318.25 95.7774 317.947 96.0799C317.645 96.3824 317.475 96.7927 317.475 97.2205Z" fill="#455A64"/>
<path d="M319.088 90.3648C318.197 90.3648 317.475 89.6426 317.475 88.7517C317.475 87.8609 318.197 87.1387 319.088 87.1387C319.979 87.1387 320.701 87.8609 320.701 88.7517C320.701 89.6426 319.979 90.3648 319.088 90.3648Z" fill="#455A64"/>
<path d="M319.088 107.106C318.197 107.106 317.475 106.384 317.475 105.493C317.475 104.602 318.197 103.88 319.088 103.88C319.979 103.88 320.701 104.602 320.701 105.493C320.701 106.384 319.979 107.106 319.088 107.106Z" fill="#455A64"/>
<path d="M319.088 115.715C318.197 115.715 317.475 114.993 317.475 114.102C317.475 113.211 318.197 112.489 319.088 112.489C319.979 112.489 320.701 113.211 320.701 114.102C320.701 114.993 319.979 115.715 319.088 115.715Z" fill="#455A64"/>
<path d="M319.088 124.315C318.197 124.315 317.475 123.593 317.475 122.702C317.475 121.811 318.197 121.089 319.088 121.089C319.979 121.089 320.701 121.811 320.701 122.702C320.701 123.593 319.979 124.315 319.088 124.315Z" fill="#455A64"/>
<path d="M317.475 131.301C317.473 131.621 317.565 131.934 317.741 132.201C317.917 132.467 318.168 132.676 318.463 132.799C318.758 132.923 319.082 132.957 319.396 132.896C319.709 132.835 319.998 132.682 320.225 132.457C320.451 132.232 320.606 131.944 320.669 131.631C320.732 131.318 320.701 130.993 320.579 130.698C320.457 130.402 320.251 130.15 319.985 129.972C319.72 129.794 319.407 129.699 319.088 129.699C318.662 129.699 318.253 129.868 317.951 130.168C317.649 130.468 317.478 130.875 317.475 131.301Z" fill="#455A64"/>
<path d="M319.088 141.525C318.197 141.525 317.475 140.803 317.475 139.912C317.475 139.021 318.197 138.299 319.088 138.299C319.979 138.299 320.701 139.021 320.701 139.912C320.701 140.803 319.979 141.525 319.088 141.525Z" fill="#455A64"/>
<path d="M319.088 150.125C318.197 150.125 317.475 149.402 317.475 148.512C317.475 147.621 318.197 146.898 319.088 146.898C319.979 146.898 320.701 147.621 320.701 148.512C320.701 149.402 319.979 150.125 319.088 150.125Z" fill="#455A64"/>
<path d="M317.475 157.122C317.475 157.441 317.569 157.753 317.747 158.018C317.924 158.283 318.176 158.49 318.471 158.612C318.765 158.734 319.09 158.766 319.403 158.704C319.715 158.642 320.003 158.488 320.228 158.262C320.454 158.037 320.608 157.749 320.67 157.437C320.732 157.124 320.7 156.799 320.578 156.505C320.456 156.21 320.249 155.958 319.984 155.781C319.719 155.603 319.407 155.509 319.088 155.509C318.66 155.509 318.25 155.679 317.947 155.981C317.645 156.284 317.475 156.694 317.475 157.122Z" fill="#455A64"/>
<path d="M317.475 165.72C317.475 166.039 317.569 166.351 317.747 166.617C317.924 166.882 318.176 167.089 318.471 167.211C318.765 167.333 319.09 167.365 319.403 167.303C319.715 167.24 320.003 167.087 320.228 166.861C320.454 166.636 320.608 166.348 320.67 166.035C320.732 165.722 320.7 165.398 320.578 165.103C320.456 164.808 320.249 164.557 319.984 164.379C319.719 164.202 319.407 164.107 319.088 164.107C318.66 164.107 318.25 164.277 317.947 164.58C317.645 164.882 317.475 165.293 317.475 165.72Z" fill="#455A64"/>
<path d="M319.088 175.944C318.197 175.944 317.475 175.222 317.475 174.331C317.475 173.44 318.197 172.718 319.088 172.718C319.979 172.718 320.701 173.44 320.701 174.331C320.701 175.222 319.979 175.944 319.088 175.944Z" fill="#455A64"/>
<path d="M317.475 182.93C317.475 183.249 317.569 183.561 317.747 183.827C317.924 184.092 318.176 184.299 318.471 184.421C318.765 184.543 319.09 184.575 319.403 184.513C319.715 184.45 320.003 184.297 320.228 184.071C320.454 183.845 320.608 183.558 320.67 183.245C320.732 182.932 320.7 182.608 320.578 182.313C320.456 182.018 320.249 181.767 319.984 181.589C319.719 181.412 319.407 181.317 319.088 181.317C318.66 181.317 318.25 181.487 317.947 181.79C317.645 182.092 317.475 182.503 317.475 182.93Z" fill="#455A64"/>
<path d="M319.088 193.154C318.197 193.154 317.475 192.432 317.475 191.541C317.475 190.65 318.197 189.928 319.088 189.928C319.979 189.928 320.701 190.65 320.701 191.541C320.701 192.432 319.979 193.154 319.088 193.154Z" fill="#455A64"/>
<path d="M355 63.2803H168.506C167.399 63.2803 166.337 63.7201 165.555 64.5029C164.772 65.2858 164.332 66.3475 164.332 67.4546V80.3809H360.897V69.1658C360.897 68.392 360.744 67.6257 360.448 66.911C360.151 66.1962 359.717 65.5469 359.169 65.0002C358.621 64.4536 357.971 64.0203 357.256 63.7252C356.541 63.43 355.774 63.2789 355 63.2803Z" fill="#E0E0E0"/>
<path d="M350.739 74.67C349.445 74.67 348.395 73.6209 348.395 72.3267C348.395 71.0325 349.445 69.9834 350.739 69.9834C352.033 69.9834 353.082 71.0325 353.082 72.3267C353.082 73.6209 352.033 74.67 350.739 74.67Z" fill="white"/>
<path d="M341.191 72.3267C341.191 72.7902 341.329 73.2432 341.586 73.6286C341.844 74.0139 342.21 74.3143 342.638 74.4916C343.066 74.669 343.537 74.7154 343.992 74.625C344.446 74.5346 344.864 74.3114 345.192 73.9837C345.519 73.656 345.742 73.2384 345.833 72.7839C345.923 72.3293 345.877 71.8582 345.7 71.43C345.522 71.0018 345.222 70.6358 344.836 70.3783C344.451 70.1209 343.998 69.9834 343.535 69.9834C343.227 69.982 342.921 70.0416 342.636 70.1588C342.351 70.2761 342.092 70.4486 341.874 70.6665C341.657 70.8844 341.484 71.1433 341.367 71.4283C341.25 71.7132 341.19 72.0186 341.191 72.3267Z" fill="white"/>
<path d="M333.986 72.3267C333.986 72.7902 334.124 73.2432 334.381 73.6286C334.639 74.0139 335.005 74.3143 335.433 74.4916C335.861 74.669 336.332 74.7154 336.787 74.625C337.241 74.5346 337.659 74.3114 337.987 73.9837C338.314 73.656 338.537 73.2384 338.628 72.7839C338.718 72.3293 338.672 71.8582 338.494 71.43C338.317 71.0018 338.017 70.6358 337.631 70.3783C337.246 70.1209 336.793 69.9834 336.33 69.9834C336.021 69.982 335.716 70.0416 335.431 70.1588C335.146 70.2761 334.887 70.4486 334.669 70.6665C334.451 70.8844 334.279 71.1433 334.162 71.4283C334.044 71.7132 333.985 72.0186 333.986 72.3267Z" fill="white"/>
<path d="M319.088 203.41L302.467 221.383L287.394 203.41H319.088Z" fill="white"/>
<path d="M169.661 205.372C169.076 205.337 168.497 205.227 167.939 205.045C167.13 204.76 166.402 204.283 165.817 203.654C165.232 203.026 164.809 202.265 164.582 201.437C164.425 200.863 164.362 200.267 164.397 199.672V197.666C164.397 196.26 164.397 194.724 164.397 193.067C164.397 189.743 164.397 185.906 164.397 181.59C164.397 164.315 164.452 139.335 164.484 108.457C164.484 100.741 164.484 92.6647 164.484 84.2288C164.484 80.0072 164.484 75.7093 164.484 71.3352C164.484 70.2453 164.484 69.1554 164.484 68.0654C164.601 66.998 165.051 65.9945 165.771 65.198C166.492 64.4015 167.445 63.8526 168.495 63.6295C169.603 63.5103 170.717 63.4739 171.83 63.5205H229.792H293.845H353.79C354.51 63.5205 355.284 63.5205 355.97 63.5205C356.664 63.5873 357.336 63.799 357.943 64.1418C358.552 64.489 359.083 64.9589 359.501 65.5217C359.92 66.0845 360.217 66.728 360.373 67.4115C360.521 68.407 360.568 69.4147 360.515 70.4197V115.738C360.515 131.542 360.515 146.96 360.515 161.994V184.152C360.515 187.785 360.515 191.392 360.515 194.974C360.515 196.751 360.515 198.549 360.515 200.293C360.466 201.132 360.207 201.945 359.764 202.659C359.32 203.373 358.706 203.964 357.976 204.38C357.249 204.799 356.428 205.028 355.589 205.045H317.693L317.616 205.121L302.358 221.143H302.696L289.355 205.23L289.29 205.154H289.192L201.814 205.241L177.956 205.307L201.814 205.372L289.192 205.459L289.028 205.383L302.434 221.524L302.597 221.721L302.772 221.535L318.031 205.535L317.856 205.612H355.676C356.594 205.583 357.492 205.333 358.292 204.882C359.098 204.422 359.777 203.769 360.268 202.981C360.759 202.193 361.046 201.296 361.104 200.369C361.104 198.56 361.104 196.805 361.104 195.018V184.195C361.104 176.929 361.104 169.543 361.104 162.037V115.792C361.104 107.894 361.104 99.9017 361.104 91.8145V68.9265C361.117 68.3919 361.066 67.8576 360.951 67.3352C360.771 66.5812 360.438 65.8722 359.973 65.2517C359.508 64.6313 358.921 64.1126 358.248 63.7276C357.577 63.3479 356.835 63.1104 356.068 63.0301C355.273 62.9756 354.586 63.0301 353.889 63.0301H229.901H171.939C170.797 62.9782 169.653 63.0183 168.517 63.15C167.374 63.3955 166.337 63.9953 165.554 64.8641C164.771 65.7329 164.283 66.8265 164.157 67.9892C164.092 69.1445 164.157 70.169 164.157 71.2589C164.157 75.6185 164.157 79.9164 164.157 84.1525C164.157 92.5811 164.157 100.657 164.157 108.381C164.157 139.258 164.234 164.239 164.255 181.514C164.255 185.874 164.255 189.666 164.255 192.991C164.255 194.647 164.255 196.184 164.255 197.59V199.596C164.228 200.202 164.297 200.809 164.463 201.394C164.732 202.376 165.281 203.258 166.043 203.933C166.58 204.425 167.215 204.796 167.907 205.023C168.326 205.165 168.762 205.253 169.204 205.285L169.661 205.372Z" fill="#263238"/>
<path d="M402.268 164.479C402.268 164.479 408.491 165.819 409.57 170.244C410.649 174.669 400.851 280.325 400.513 282.886C399.892 286.93 396.48 292.074 388.807 291.791C382.104 291.551 290.868 291.791 267.904 291.791C264.841 291.791 263.01 289.197 262.607 286.101L375.576 279.431L402.268 164.479Z" fill="#E0E0E0"/>
<path d="M405.101 168.009L395.292 281.948C395.201 282.848 394.784 283.683 394.119 284.295C393.454 284.908 392.588 285.255 391.684 285.272L262.585 285.85L287.391 261.24L371.248 260.651L380.218 171.377C380.282 170.795 380.526 170.247 380.917 169.811C381.308 169.375 381.826 169.073 382.398 168.946L401.188 164.587C401.681 164.487 402.19 164.502 402.676 164.631C403.163 164.76 403.613 164.999 403.991 165.33C404.37 165.661 404.667 166.075 404.859 166.54C405.052 167.004 405.134 167.507 405.101 168.009Z" fill="#E0E0E0"/>
<path d="M405.101 168.01C405.12 167.825 405.12 167.639 405.101 167.454C405.076 166.906 404.903 166.374 404.6 165.917C404.356 165.538 404.036 165.214 403.661 164.964C403.286 164.715 402.863 164.546 402.42 164.467C401.842 164.392 401.255 164.44 400.698 164.609L398.79 165.045L388.818 167.334L382.496 168.794C381.881 168.911 381.319 169.22 380.89 169.676C380.461 170.132 380.188 170.713 380.109 171.334C379.99 172.554 379.859 173.808 379.728 175.094C377.624 195.802 374.627 225.23 371.009 260.63L371.248 260.401L287.38 260.957H287.271L287.184 261.044L262.388 285.643L261.898 286.134H262.585H268.307L362.943 285.687L384.197 285.578H389.319C390.169 285.578 390.998 285.578 391.869 285.578C392.771 285.522 393.626 285.156 394.289 284.543C394.948 283.936 395.375 283.119 395.499 282.232C395.597 281.393 395.651 280.586 395.728 279.758C395.859 278.123 396 276.488 396.142 274.886C397.232 262.003 398.256 249.992 399.183 239.039C401.025 217.121 402.518 199.388 403.542 187.127C404.044 181.001 404.436 176.227 404.698 173.012C404.829 171.399 404.916 170.178 404.981 169.339C405.046 168.5 405.068 168.086 405.068 168.086C405.068 168.086 405.003 168.5 404.927 169.328C404.85 170.157 404.73 171.399 404.589 173.001C404.294 176.271 403.869 180.99 403.324 187.105C402.235 199.366 400.687 217.099 398.769 238.995C397.82 249.96 396.774 261.96 395.662 274.842C395.524 276.455 395.383 278.079 395.237 279.714C395.161 280.532 395.107 281.371 395.019 282.167C394.889 282.944 394.506 283.657 393.929 284.194C393.328 284.735 392.558 285.051 391.75 285.087C390.932 285.087 390.071 285.087 389.232 285.087H384.098L362.845 285.175L268.219 285.578H262.497L262.705 286.057L287.609 261.436L287.413 261.524L371.27 260.891H371.488V260.674C375.009 225.273 377.93 195.78 379.979 175.127C380.109 173.841 380.24 172.587 380.36 171.366C380.429 170.797 380.677 170.263 381.069 169.844C381.461 169.425 381.976 169.141 382.54 169.034L388.861 167.552L398.812 165.187L400.72 164.74C401.257 164.566 401.826 164.51 402.387 164.576C402.825 164.647 403.245 164.806 403.619 165.044C403.994 165.282 404.317 165.594 404.567 165.961C404.871 166.407 405.052 166.926 405.09 167.465C405.112 167.824 405.079 168.01 405.101 168.01Z" fill="#263238"/>
<path d="M310.606 282.886H298.606L313.777 263.213H320.895L310.606 282.886Z" fill="#263238"/>
<path d="M400.665 173.154L391.499 272.205L374.365 258.581L381.777 175.203C381.803 174.878 381.94 174.571 382.163 174.334C382.387 174.096 382.685 173.941 383.008 173.895L399.019 171.607C399.234 171.577 399.452 171.595 399.659 171.661C399.866 171.727 400.055 171.838 400.213 171.986C400.371 172.135 400.493 172.317 400.571 172.519C400.65 172.721 400.682 172.938 400.665 173.154Z" fill="#263238"/>
<path d="M382.323 282.886H369.941L357.353 263.213H364.481L382.323 282.886Z" fill="#263238"/>
<path d="M367.118 282.886H355.118L348.546 263.213H355.674L367.118 282.886Z" fill="#263238"/>
<path d="M352.437 282.886H340.437L339.794 263.213H346.911L352.437 282.886Z" fill="#263238"/>
<path d="M338.813 282.886H326.813L331.249 263.213H338.366L338.813 282.886Z" fill="#263238"/>
<path d="M324.622 282.886H312.622L322.398 263.213H329.515L324.622 282.886Z" fill="#263238"/>
<path d="M299.162 279.049C299.162 279.147 317.462 279.224 340.034 279.224C362.606 279.224 380.895 279.147 380.895 279.049C380.895 278.951 362.606 278.886 340.034 278.886C317.462 278.886 299.162 278.962 299.162 279.049Z" fill="#E0E0E0"/>
<path d="M301.343 275.474C301.343 275.572 318.716 275.648 340.154 275.648C361.593 275.648 378.966 275.572 378.966 275.474C378.966 275.376 361.593 275.311 340.154 275.311C318.716 275.311 301.343 275.354 301.343 275.474Z" fill="#E0E0E0"/>
<path d="M301.342 272.205C301.342 272.39 317.691 272.543 337.854 272.543C358.018 272.543 374.366 272.358 374.366 272.205C374.366 272.052 358.018 271.867 337.843 271.867C317.669 271.867 301.342 271.987 301.342 272.205Z" fill="#E0E0E0"/>
<path d="M300.884 269.186C300.884 269.371 316.884 269.524 336.611 269.524C356.339 269.524 372.349 269.371 372.349 269.186C372.349 269 356.35 268.837 336.611 268.837C316.873 268.837 300.884 268.99 300.884 269.186Z" fill="#E0E0E0"/>
<path d="M299.163 267.006C299.163 267.191 315.271 267.344 335.129 267.344C354.988 267.344 371.096 267.191 371.096 267.006C371.096 266.821 354.999 266.657 335.129 266.657C315.26 266.657 299.163 266.81 299.163 267.006Z" fill="#E0E0E0"/>
<path d="M297.44 264.717C297.44 264.913 313.843 265.066 334.072 265.066C354.3 265.066 370.714 264.913 370.714 264.717C370.714 264.521 354.366 264.379 334.072 264.379C313.778 264.379 297.44 264.575 297.44 264.717Z" fill="#E0E0E0"/>
<path d="M393.505 281.949L371.097 261.033L393.505 281.949Z" fill="#E0E0E0"/>
<path d="M371.097 261.034C370.988 261.143 375.915 265.916 382.084 271.693C388.253 277.469 393.353 282.069 393.462 281.949C393.571 281.829 388.656 277.066 382.476 271.279C376.296 265.491 371.25 260.914 371.097 261.034Z" fill="#263238"/>
<path d="M1.06512 183.094C1.06512 183.094 2.15505 171.519 30.994 164.118C44.9121 160.543 78.1434 158.832 81.9036 180.467C82.0235 181.164 98.4484 317 98.4484 317H37.0103L1.06512 183.094Z" fill="#455A64"/>
<path d="M10.797 316.957H39.1346L29.6742 183.922C28.9767 177.448 22.2738 172.773 14.6989 173.492L12.1594 173.732C4.59547 174.451 -0.211044 181.743 0.00693512 190.08L10.797 316.957Z" fill="#455A64"/>
<path d="M37.0087 312.171C37.1722 312.171 35.1668 285.937 32.5401 253.622C29.9134 221.306 27.6573 195.104 27.5047 195.115C27.3522 195.126 29.3467 221.338 31.9734 253.665C34.6 285.992 36.8562 312.182 37.0087 312.171Z" fill="#263238"/>
<path d="M6.50349 176.805C7.80997 176.401 9.14284 176.087 10.4926 175.867C13.7597 175.422 17.0824 176.07 19.9428 177.71C22.8033 179.351 25.0409 181.891 26.3071 184.935C26.7935 186.212 27.194 187.519 27.506 188.848C27.5409 188.484 27.5226 188.117 27.4515 187.758C27.3098 186.747 27.05 185.756 26.6777 184.805C25.4681 181.612 23.1875 178.939 20.2256 177.241C17.2636 175.543 13.8041 174.927 10.438 175.497C9.42825 175.652 8.44044 175.926 7.49531 176.314C7.1419 176.427 6.80752 176.592 6.50349 176.805Z" fill="#263238"/>
<path d="M95.9963 10.4199C95.702 2.62706 100.988 1.58076 105.053 2.47448C107.577 0.716464 110.616 -0.147306 113.687 0.0205609C116.758 0.188428 119.685 1.37828 122.002 3.40089C123.862 2.38528 125.954 1.86934 128.073 1.90339C130.193 1.93744 132.267 2.52032 134.094 3.59517C135.921 4.67003 137.438 6.20013 138.497 8.03618C139.556 9.87222 140.122 11.9515 140.138 14.0711C142.273 13.8105 144.436 14.2287 146.321 15.2665C148.205 16.3043 149.715 17.909 150.637 19.853C151.558 21.797 151.844 23.9818 151.454 26.0975C151.064 28.2132 150.018 30.1525 148.464 31.6404C150.889 32.366 152.938 34.0003 154.186 36.2017C155.433 38.4032 155.782 41.0015 155.158 43.4538C154.535 45.9062 152.988 48.0228 150.841 49.3615C148.694 50.7002 146.112 51.1574 143.636 50.6375L95.8328 18.8013C92.9664 15.7823 96.1489 14.5833 95.9963 10.4199Z" fill="#263238"/>
<path d="M145.019 52.0439C144.546 41.5539 140.142 31.6263 132.681 24.2367C125.221 16.847 115.252 12.537 104.758 12.1642L102.578 12.0879C79.2214 12.6219 66.6111 32.7961 67.7991 56.0984L68.4095 133.852L68.5621 148.621L121.968 161.318L122.512 130.539C122.512 130.539 145.052 127.858 146.12 105.471C146.676 94.6593 145.924 72.2944 145.019 52.0439Z" fill="#AE7461"/>
<path d="M122.731 130.517C112.323 130.151 102.239 126.807 93.6743 120.882C93.6743 120.882 100.007 137.23 122.437 136.032L122.731 130.517Z" fill="#6F4439"/>
<path d="M138.491 74.6696C138.471 75.5033 138.126 76.2961 137.529 76.8786C136.932 77.4611 136.131 77.787 135.298 77.7868C134.889 77.8043 134.481 77.7398 134.098 77.5972C133.715 77.4546 133.364 77.2366 133.066 76.9563C132.769 76.6759 132.53 76.3388 132.365 75.9648C132.2 75.5908 132.111 75.1875 132.104 74.7786C132.124 73.945 132.469 73.1522 133.066 72.5697C133.663 71.9872 134.464 71.6613 135.298 71.6615C135.706 71.6425 136.115 71.7059 136.499 71.848C136.883 71.99 137.234 72.2079 137.532 72.4886C137.83 72.7692 138.068 73.1069 138.233 73.4817C138.398 73.8564 138.486 74.2604 138.491 74.6696Z" fill="#263238"/>
<path d="M140.039 64.0325C139.636 64.4249 137.27 62.5503 133.826 62.4413C130.382 62.3323 127.799 63.9562 127.44 63.5312C127.265 63.335 127.69 62.5939 128.824 61.8418C130.349 60.8573 132.144 60.3734 133.957 60.4576C135.748 60.5108 137.475 61.1373 138.884 62.2451C139.897 63.0625 140.224 63.8255 140.039 64.0325Z" fill="#263238"/>
<path d="M110.818 73.9616C110.795 74.7963 110.447 75.5891 109.849 76.1713C109.25 76.7535 108.448 77.0791 107.613 77.0788C107.205 77.0963 106.797 77.0318 106.414 76.8892C106.03 76.7466 105.68 76.5286 105.382 76.2483C105.084 75.9679 104.846 75.6308 104.681 75.2568C104.515 74.8828 104.427 74.4795 104.42 74.0706C104.44 73.237 104.785 72.4442 105.382 71.8617C105.978 71.2792 106.779 70.9533 107.613 70.9535C108.023 70.9345 108.432 70.9978 108.816 71.1398C109.201 71.2817 109.553 71.4994 109.851 71.7799C110.15 72.0605 110.39 72.3981 110.556 72.7728C110.722 73.1476 110.811 73.5518 110.818 73.9616Z" fill="#263238"/>
<path d="M107.091 62.3535C106.688 62.7568 104.323 60.8822 100.879 60.7623C97.4346 60.6424 94.8515 62.2881 94.4918 61.8522C94.3175 61.656 94.7425 60.9149 95.8761 60.1519C97.4043 59.174 99.1968 58.6907 101.01 58.7677C102.799 58.8299 104.523 59.4555 105.936 60.5552C106.96 61.4053 107.342 62.1792 107.091 62.3535Z" fill="#263238"/>
<path d="M117.531 88.2827C117.531 88.0865 119.711 87.7922 123.155 87.4653C124.038 87.4108 124.877 87.2691 125.052 86.6696C125.157 85.7634 124.982 84.8468 124.55 84.043C123.824 81.8631 123.039 79.5998 122.196 77.2528C118.927 67.5963 116.583 59.6617 116.976 59.5309C117.368 59.4001 120.332 67.1603 123.602 76.7951L125.869 83.6506C126.382 84.7312 126.502 85.9571 126.207 87.1165C126.07 87.4229 125.864 87.6935 125.605 87.9071C125.346 88.1207 125.041 88.2717 124.714 88.3481C124.221 88.4621 123.716 88.5134 123.21 88.5007C119.7 88.5334 117.531 88.4789 117.531 88.2827Z" fill="#263238"/>
<path d="M107.342 90.2997C107.908 90.2997 107.778 94.0272 110.884 96.8391C113.99 99.6511 117.979 99.335 117.99 99.8582C117.99 100.098 117.086 100.556 115.396 100.534C113.205 100.49 111.101 99.6718 109.456 98.2233C107.869 96.8326 106.888 94.8773 106.72 92.7738C106.611 91.1825 107.058 90.267 107.342 90.2997Z" fill="#263238"/>
<path d="M107.495 52.5234C107.048 53.3953 104.116 52.5234 100.508 52.4253C96.9007 52.3272 93.8708 52.992 93.5329 52.0983C93.3912 51.6623 94.0234 50.8667 95.3095 50.1583C96.9865 49.2777 98.8666 48.8566 100.759 48.9375C102.612 48.9755 104.421 49.5059 106.001 50.4743C107.146 51.27 107.691 52.0983 107.495 52.5234Z" fill="#263238"/>
<path d="M139.582 54.5282C139.004 55.3457 136.595 54.6372 133.751 54.7353C130.906 54.8334 128.508 55.5092 127.909 54.7353C127.647 54.3539 127.996 53.5473 128.999 52.7626C130.375 51.8088 132.004 51.2851 133.678 51.2579C135.353 51.2308 136.998 51.7013 138.404 52.61C139.462 53.3511 139.832 54.1359 139.582 54.5282Z" fill="#263238"/>
<path d="M143.233 41.7111C143.233 41.7111 137.783 27.466 131.167 23.9565C123.113 19.695 119.265 28.5668 111.549 26.1364C103.832 23.7059 96.1376 19.5969 87.9415 25.3516C78.9825 31.6404 82.9062 36.4251 82.0124 46.3433C78.3939 86.5826 70.6229 97.7106 69.206 78.6481C69.0534 76.5664 63.3314 74.7026 62.7973 65.8853C62.0889 54.4522 62.1434 40.5994 64.9772 32.5995C67.3641 25.8639 71.4185 21.2863 78.5683 16.3381C89.8598 8.53435 104.977 8.89401 115.211 10.3C125.445 11.706 144.791 24.1745 143.233 41.7111Z" fill="#263238"/>
<path d="M70.6449 78.0596C70.6472 77.2366 70.4825 76.4217 70.1606 75.6642C69.8387 74.9067 69.3664 74.2224 68.7724 73.6528C68.1783 73.0832 67.4748 72.6401 66.7044 72.3503C65.9341 72.0606 65.113 71.9302 64.2908 71.967C60.0946 72.2177 55.3535 74.4193 55.3317 83.0732C55.2663 98.4082 70.6776 95.302 70.7103 94.8551C70.743 94.4082 70.6776 84.4792 70.6449 78.0596Z" fill="#AE7461"/>
<path d="M67.3957 89.1005C67.3194 89.1005 67.1232 89.2858 66.6654 89.4929C66.0247 89.7461 65.3116 89.7461 64.6709 89.4929C63.0578 88.8934 61.6955 86.3104 61.641 83.5529C61.6019 82.2375 61.8589 80.9301 62.393 79.7273C62.541 79.2478 62.8026 78.8111 63.1556 78.4544C63.5085 78.0977 63.9423 77.8314 64.4202 77.6783C64.7272 77.5979 65.0527 77.6281 65.3397 77.7636C65.6266 77.8991 65.8567 78.1313 65.9897 78.4194C66.1968 78.8445 66.0987 79.1497 66.175 79.1824C66.2513 79.215 66.502 78.9208 66.3821 78.2886C66.3018 77.9082 66.0894 77.5684 65.7826 77.3295C65.5762 77.1688 65.3395 77.0512 65.0868 76.9838C64.834 76.9164 64.5702 76.9006 64.3112 76.9371C63.6801 77.0566 63.0906 77.3372 62.5999 77.7515C62.1091 78.1659 61.7337 78.7001 61.5102 79.3022C60.8525 80.6281 60.5306 82.0953 60.5728 83.5747C60.6491 86.6591 62.2295 89.5583 64.442 90.2122C64.8533 90.3316 65.286 90.3574 65.7085 90.2876C66.1309 90.2178 66.5324 90.0543 66.8834 89.809C67.363 89.4493 67.4393 89.1005 67.3957 89.1005Z" fill="#6F4439"/>
<path d="M71.9952 48.3927C73.9352 49.8205 75.9951 51.2919 78.382 51.6625C80.7689 52.033 83.5591 50.7033 84.0496 48.3382C84.2676 47.2483 84.0496 46.0385 84.7798 45.2429C85.6517 44.2838 87.1885 44.6435 88.4637 44.8287C90.6961 45.0786 92.9466 44.5547 94.8392 43.3446C96.7317 42.1345 98.1515 40.3115 98.8614 38.1803C99.9513 39.9241 102.589 39.935 104.311 38.8887C106.033 37.8424 107.243 36.0768 108.671 34.5836C110.098 33.0904 112.006 31.7716 114.022 32.1313C115.112 32.3384 116.202 33.0468 117.292 32.9923C119.319 32.8834 120.376 30.5618 120.758 28.6327C121.139 26.7036 121.455 24.2731 123.188 23.2922C124.921 22.3112 126.839 22.9979 128.638 23.2922C130.436 23.5864 132.877 23.2922 133.422 21.4938C133.521 21.0115 133.519 20.5141 133.418 20.0324C133.317 19.5507 133.118 19.0948 132.834 18.6927C131.658 16.7941 129.874 15.3486 127.773 14.5909C125.672 13.8331 123.376 13.8076 121.259 14.5184C120.594 11.9416 119.181 9.61959 117.197 7.84586C115.213 6.07212 112.748 4.92622 110.113 4.55298C107.478 4.17974 104.792 4.5959 102.393 5.74886C99.995 6.90182 97.9922 8.73985 96.638 11.0307C95.0628 9.49901 93.1415 8.36965 91.037 7.73835C88.9325 7.10706 86.7069 6.99243 84.5487 7.40418C82.3905 7.81593 80.3634 8.74192 78.6391 10.1037C76.9149 11.4654 75.5443 13.2228 74.6437 15.2268C72.7981 14.6999 70.8391 14.7211 69.0054 15.2877C67.1716 15.8543 65.5422 16.9419 64.3155 18.418C63.0888 19.8942 62.3179 21.6952 62.0965 23.6017C61.8752 25.5082 62.213 27.4379 63.0688 29.1559C60.2569 30.6381 57.8046 33.2866 57.6193 36.4582C57.434 39.6299 60.4313 42.8887 63.5157 42.1694C62.7468 43.4008 62.4986 44.8872 62.8256 46.3016C63.1526 47.716 64.0282 48.9426 65.2596 49.7115C66.491 50.4804 67.9774 50.7287 69.3918 50.4016C70.8062 50.0746 72.0328 49.1991 72.8017 47.9677" fill="#263238"/>
<path d="M62.4045 42.1035C62.3234 42.6314 62.3574 43.1707 62.5041 43.6842C62.6509 44.1978 62.9069 44.6736 63.2546 45.079C63.9756 46.0831 65.0506 46.7764 66.2628 47.019C67.0333 47.1772 67.8294 47.1614 68.593 46.9729C69.3566 46.7843 70.0686 46.4277 70.6769 45.9291L70.0339 45.8092C70.7877 47.2704 71.7743 48.5993 72.9548 49.7438C73.739 50.5211 74.6636 51.1425 75.6796 51.5748C77.0002 52.0742 78.4433 52.1516 79.8097 51.7963C81.1762 51.441 82.3988 50.6706 83.309 49.5912C83.9621 48.6443 84.4214 47.5775 84.6604 46.4522C84.802 46.058 84.8577 45.6381 84.8239 45.2207C84.7585 45.2207 84.6169 45.613 84.3335 46.3106C83.9861 47.3414 83.4745 48.3093 82.8185 49.177C81.2817 51.3568 76.5188 52.2833 73.5979 49.068C72.4931 47.9854 71.5563 46.7437 70.8186 45.3841L70.557 44.9264L70.1647 45.2642C69.6597 45.7055 69.0646 46.0315 68.4209 46.2198C67.7773 46.408 67.1004 46.4538 66.4372 46.3541C65.3723 46.1756 64.4061 45.623 63.7124 44.7956C63.103 43.9934 62.6585 43.0784 62.4045 42.1035Z" fill="#455A64"/>
<path d="M243.58 242.778C243.58 242.778 272.495 241.916 274.228 241.372C276.866 240.782 279.601 240.782 282.239 241.372C284.299 242.025 292.527 244.946 292.527 244.946L309.966 249.6C309.966 249.6 327.503 261.033 327.154 263.333C326.805 265.633 324.876 267.202 321.704 266.014C318.533 264.826 302.718 256.587 302.718 256.587L285.28 254.745C285.28 254.745 261.498 263.29 256.691 262.865C251.885 262.439 239.58 260.358 239.58 260.358C239.58 260.358 237.847 248.031 238.719 246.08C239.591 244.129 243.58 242.778 243.58 242.778Z" fill="#AE7461"/>
<path d="M325.901 273.535C325.901 273.535 311.242 257.829 307.187 255.715C303.133 253.6 280.528 249.884 280.528 249.884C280.528 249.884 273.291 246.886 270.643 247.944C267.994 249.001 239.929 253.241 238.697 253.393C237.466 253.546 244.692 278.112 244.692 278.112C251.691 279.119 258.816 278.819 265.705 277.229C276.997 274.581 280.888 271.05 280.888 271.05L292.157 268.085L299.067 270.712C299.067 270.712 300.299 280.935 305.247 280.401L307.536 278.81L305.77 267.518L313.007 270.516C313.007 270.516 318.664 278.995 322.893 277.753C327.122 276.51 325.901 273.535 325.901 273.535Z" fill="#AE7461"/>
<path d="M325.901 273.534C326.004 273.936 326.041 274.352 326.01 274.766C325.958 275.265 325.77 275.74 325.465 276.139C325.026 276.679 324.456 277.096 323.808 277.349C323.022 277.736 322.133 277.866 321.269 277.719C320.244 277.44 319.287 276.954 318.457 276.292C316.394 274.629 314.6 272.659 313.138 270.45L305.912 267.431L305.618 267.3V267.616C306.141 271.017 306.708 274.831 307.351 278.918L307.438 278.722L305.149 280.303H305.247C304.78 280.34 304.311 280.276 303.871 280.116C303.431 279.957 303.031 279.704 302.697 279.376C301.978 278.678 301.404 277.844 301.007 276.924C300.157 274.976 299.589 272.917 299.318 270.809V270.668L299.187 270.613L292.299 267.976H292.223H292.146L280.855 270.918H280.79C278.401 272.626 275.771 273.967 272.986 274.897C270.086 275.927 267.118 276.754 264.103 277.371C260.978 277.995 257.806 278.359 254.621 278.461C251.341 278.579 248.058 278.396 244.812 277.916L245.03 278.112C244.528 276.379 243.94 274.526 243.46 272.662C241.902 267.104 240.343 261.643 239.22 256.237C239.079 255.575 238.973 254.906 238.904 254.232C238.893 254.08 238.893 253.927 238.904 253.774C238.97 253.665 238.904 253.698 238.904 253.774H239.035L240.049 253.622L244.081 253.011L251.983 251.769C257.16 250.93 262.185 250.101 267.013 249.186C268.212 248.935 269.389 248.728 270.588 248.368C271.689 248.038 272.858 248 273.978 248.259C276.217 248.697 278.407 249.354 280.517 250.221H280.572C288.462 251.54 295.689 252.848 301.999 254.352C303.517 254.702 305.013 255.142 306.479 255.671C307.787 256.279 308.99 257.092 310.043 258.079C312.222 259.889 314.032 261.676 315.699 263.289C319.034 266.559 321.563 269.153 323.329 270.918L325.301 272.957C325.759 273.414 325.999 273.632 325.999 273.632C325.999 273.632 325.792 273.382 325.356 272.902L323.438 270.82C321.726 269.022 319.22 266.363 315.917 263.093C314.261 261.469 312.419 259.66 310.282 257.829C309.748 257.371 309.193 256.902 308.604 256.466C308.002 256.016 307.342 255.649 306.642 255.376C305.159 254.837 303.645 254.386 302.108 254.025C295.787 252.477 288.571 251.148 280.67 249.785H280.724C278.583 248.897 276.36 248.221 274.087 247.769C272.88 247.493 271.622 247.535 270.435 247.889C269.346 248.227 268.125 248.434 266.937 248.684C262.13 249.589 257.128 250.395 251.918 251.224L244.016 252.455L239.983 253.077L238.97 253.229H238.752H238.632C238.559 253.278 238.499 253.342 238.456 253.418C238.412 253.494 238.387 253.578 238.381 253.665C238.365 253.854 238.365 254.043 238.381 254.232C238.447 254.931 238.552 255.626 238.697 256.314C239.787 261.763 241.389 267.213 242.948 272.782C243.482 274.657 244.038 276.521 244.517 278.232V278.406H244.692C247.97 278.896 251.287 279.078 254.599 278.951C257.814 278.861 261.015 278.496 264.168 277.861C267.211 277.243 270.206 276.406 273.127 275.354C274.551 274.848 275.944 274.262 277.302 273.6C278.651 272.964 279.927 272.182 281.106 271.267L280.997 271.322L292.266 268.346H292.114L299.024 270.973L298.871 270.777C299.151 272.936 299.742 275.043 300.626 277.033C301.045 278.006 301.657 278.885 302.424 279.616C302.805 279.982 303.26 280.264 303.758 280.443C304.255 280.621 304.785 280.692 305.312 280.651H305.367L307.656 279.06L307.765 278.984V278.853C307.122 274.777 306.511 270.962 305.977 267.562L305.727 267.758L312.974 270.733L312.909 270.679C314.408 272.906 316.247 274.885 318.359 276.542C319.222 277.211 320.212 277.697 321.269 277.97C322.173 278.119 323.101 277.974 323.917 277.556C324.585 277.286 325.169 276.842 325.607 276.27C325.917 275.85 326.102 275.352 326.141 274.831C326.181 274.385 326.098 273.937 325.901 273.534Z" fill="#6F4439"/>
<path d="M281.529 260.216C281.891 260.257 282.257 260.257 282.619 260.216C283.328 260.161 284.352 260.063 285.627 259.933L290.074 259.431L291.36 259.29C291.782 259.219 292.213 259.219 292.635 259.29C293.56 259.43 294.477 259.62 295.382 259.856C299.055 260.946 302.739 261.633 304.101 263.813C304.69 264.607 305.133 265.5 305.409 266.45C305.605 267.126 305.66 267.54 305.693 267.54C305.751 267.176 305.725 266.803 305.616 266.45C305.419 265.439 305.011 264.481 304.417 263.638C304.007 263.048 303.502 262.529 302.924 262.101C302.255 261.633 301.521 261.265 300.744 261.012C299.018 260.383 297.261 259.841 295.48 259.388C294.555 259.14 293.616 258.947 292.668 258.81C292.199 258.739 291.721 258.739 291.251 258.81L289.976 258.984L285.529 259.595C284.265 259.78 283.251 259.943 282.543 260.063C282.2 260.067 281.858 260.118 281.529 260.216Z" fill="#6F4439"/>
<path d="M320.876 268.314C320.508 267.874 320.103 267.466 319.666 267.093C318.849 266.341 317.65 265.284 316.135 264.02C314.62 262.755 312.778 261.273 310.686 259.736C309.596 258.974 308.506 258.189 307.263 257.448C306.632 257.072 305.98 256.73 305.312 256.423C304.602 256.146 303.874 255.917 303.133 255.737C298.111 254.52 293.013 253.647 287.874 253.121L283.231 252.543C282.665 252.449 282.093 252.402 281.52 252.401C282.067 252.573 282.629 252.693 283.198 252.761L287.808 253.513C291.699 254.2 297.16 254.679 302.958 256.281C303.666 256.457 304.361 256.679 305.04 256.946C305.689 257.238 306.323 257.566 306.936 257.927C308.146 258.647 309.269 259.41 310.337 260.162C312.517 261.666 314.315 263.104 315.863 264.325L319.503 267.257C319.932 267.645 320.392 267.998 320.876 268.314Z" fill="#6F4439"/>
<path d="M138.285 165.939C143.506 173.323 148.124 181.116 152.094 189.241C157.337 200.14 174.274 237.252 174.274 237.252L243.298 240.87L242.273 267.54C242.273 267.54 175.615 291.289 160.694 286.701C145.773 282.112 129.871 264.903 129.871 264.903L122.732 152.424C122.732 152.424 128.651 151.323 138.285 165.939Z" fill="#FF8523"/>
<path d="M123.854 152.697C123.854 152.697 141.554 192.838 144.137 209.841C149.27 243.628 150.992 264.718 150.992 264.718L157.009 316.957H39.1351C39.1351 316.957 35.2332 220.14 37.74 187.683C39.6146 163.356 58.252 148.206 65.8705 139.89C66.3282 139.389 68.4209 132.577 68.4209 132.577L123.352 146.648L123.854 152.697Z" fill="#FF8523"/>
<path d="M129.554 158.789C129.58 158.922 129.624 159.05 129.685 159.171C129.805 159.443 129.947 159.814 130.143 160.26L131.897 164.457C133.412 168.097 135.603 173.383 137.805 180.097C140.365 187.946 142.4 195.956 143.897 204.075C145.652 213.241 147.069 223.41 148.257 234.123C150.437 255.573 152.388 274.984 153.815 289.066C154.546 296.074 155.134 301.752 155.548 305.709C155.766 307.649 155.93 309.164 156.05 310.232C156.115 310.733 156.159 311.115 156.191 311.409C156.206 311.545 156.232 311.68 156.268 311.812C156.277 311.678 156.277 311.543 156.268 311.409C156.268 311.115 156.213 310.722 156.181 310.221C156.082 309.131 155.952 307.638 155.788 305.687C155.418 301.72 154.884 296.041 154.23 289.022C152.867 274.962 151.069 255.518 148.78 234.058C147.603 223.344 146.164 213.154 144.42 203.977C142.898 195.829 140.818 187.796 138.197 179.933C135.941 173.23 133.696 167.944 132.115 164.337C131.331 162.517 130.688 161.121 130.252 160.184C130.045 159.726 129.881 159.378 129.75 159.094C129.691 158.989 129.625 158.887 129.554 158.789Z" fill="#263238"/>
<g opacity="0.3">
<path d="M68.3115 221.982C69.4014 211.29 74.2079 200.555 83.0035 194.386L154.872 297.011C142.185 303.856 128.093 310.919 114 307.911C106.371 306.287 99.6791 301.818 94.2077 296.314C82.84 284.881 76.6711 269.306 72.3442 253.807C69.4559 243.432 67.2325 232.674 68.3115 221.982Z" fill="black"/>
</g>
<path d="M60.1705 209.59C69.1187 241.273 89.2711 279.932 95.4618 287.703C99.9302 293.418 105.634 298.046 112.146 301.242C118.659 304.437 125.81 306.117 133.064 306.155C141.172 306.155 209.706 292.804 230.065 288.815C231.74 288.483 233.28 287.667 234.495 286.467C235.709 285.268 236.545 283.739 236.899 282.069L237.073 281.229L246.174 278.744L241.302 254.21L240.332 252.848L142.317 255.933L113.805 176.511C113.26 175.606 105.031 148.958 82.699 150.168" fill="#FF8523"/>
<path d="M82.6984 150.19H83.4396C84.1666 150.169 84.8943 150.187 85.6194 150.244C88.4581 150.413 91.2461 151.073 93.8591 152.195C98.0336 154.098 101.714 156.936 104.616 160.489C108.536 165.303 111.597 170.756 113.663 176.609C120.867 196.729 130.643 224.064 142.098 256.053L142.153 256.227H142.338L240.31 253.153L240.07 253.034L241.04 254.396V254.287C242.446 261.382 243.939 268.924 245.4 276.554L245.847 278.821L246.054 278.483L236.909 280.946L236.735 281.001V281.164C236.468 283.182 235.518 285.048 234.043 286.45C233.308 287.128 232.46 287.67 231.536 288.052C230.587 288.401 229.604 288.653 228.604 288.804L216.615 291.148L193.182 295.649C177.826 298.559 163.035 301.327 148.921 303.714C145.39 304.303 141.902 304.804 138.458 305.349C136.736 305.567 135.014 305.807 133.325 305.883C131.628 305.903 129.932 305.82 128.246 305.632C121.73 304.933 115.425 302.912 109.717 299.692C104.418 296.65 99.7285 292.651 95.8863 287.9C94.1513 285.613 92.5641 283.217 91.1343 280.728C89.7065 278.298 88.355 275.889 87.0798 273.524C79.0686 258.564 72.049 243.094 66.0664 227.214C63.9956 221.59 62.5133 217.176 61.576 214.135C61.1183 212.642 60.7586 211.497 60.4861 210.712C60.2136 209.928 60.1155 209.557 60.1155 209.557C60.1155 209.557 60.2136 209.949 60.4316 210.723L61.4343 214.167C62.3389 217.186 63.7885 221.611 65.794 227.246C71.7097 243.169 78.6862 258.676 86.6766 273.665C87.9409 276.041 89.2923 278.45 90.7092 280.892C92.1433 283.406 93.7417 285.824 95.4939 288.129C99.3821 292.958 104.14 297.017 109.521 300.096C115.277 303.355 121.637 305.406 128.213 306.123C129.92 306.32 131.639 306.407 133.357 306.384C135.101 306.308 136.812 306.068 138.545 305.85C142 305.36 145.499 304.761 149.03 304.226C163.199 301.85 177.945 299.093 193.313 296.194L216.746 291.693L228.735 289.36C229.769 289.203 230.785 288.94 231.765 288.575C232.755 288.173 233.664 287.593 234.446 286.864C236.007 285.383 237.018 283.415 237.313 281.284L237.106 281.502L246.25 279.039L246.501 278.962V278.712C246.359 277.992 246.195 277.219 246.043 276.445C244.528 268.815 243.035 261.273 241.683 254.178V254.113L240.713 252.75L240.626 252.63H240.31L142.295 255.747L142.534 255.911L113.935 176.522C111.847 170.664 108.757 165.213 104.802 160.413C101.861 156.841 98.1298 154.001 93.9027 152.119C91.2703 151.008 88.4625 150.37 85.6085 150.233C84.8827 150.185 84.1544 150.185 83.4286 150.233L82.6984 150.19Z" fill="#263238"/>
<path d="M163.908 249.666C165.21 247.18 166.798 244.853 168.638 242.734C170.606 240.747 172.801 238.999 175.178 237.524C174.366 237.741 173.596 238.091 172.9 238.56C171.152 239.585 169.562 240.859 168.181 242.342C166.801 243.825 165.641 245.499 164.736 247.312C164.341 248.049 164.062 248.843 163.908 249.666Z" fill="#263238"/>
<path d="M130.459 275.17C130.557 275.17 130.753 273.916 131.32 271.9C132.071 269.33 133.152 266.868 134.535 264.576C135.937 262.295 137.634 260.21 139.581 258.374C141.075 256.957 142.121 256.194 142.066 256.129C141.779 256.235 141.511 256.386 141.271 256.576C140.586 257.032 139.931 257.531 139.309 258.069C135.162 261.67 132.234 266.467 130.928 271.802C130.726 272.6 130.584 273.413 130.502 274.232C130.439 274.541 130.424 274.857 130.459 275.17Z" fill="#263238"/>
<g opacity="0.3">
<path d="M156.607 255.333L150.907 255.551C149.98 233.153 145.37 210.865 141.425 188.772C151.484 209.328 154.122 232.598 156.607 255.333Z" fill="black"/>
</g>
<path d="M67.7772 139.89C67.9488 139.978 68.1324 140.041 68.3221 140.076L69.8916 140.512L75.6681 142.048C80.54 143.345 87.2647 145.198 94.7415 147.084C102.218 148.969 109.052 150.43 114.044 151.247C116.54 151.661 118.567 151.956 119.973 152.097L121.597 152.261C121.785 152.287 121.976 152.287 122.164 152.261C121.985 152.193 121.798 152.149 121.608 152.13L120.006 151.858C118.61 151.65 116.594 151.291 114.12 150.833C109.161 149.918 102.349 148.403 94.8832 146.473C87.4173 144.544 80.7144 142.79 75.7662 141.591C73.3139 140.991 71.3194 140.501 69.9352 140.228L68.3439 139.901C68.1563 139.873 67.9658 139.869 67.7772 139.89Z" fill="#263238"/>
</svg>
