<svg width="524" height="550" viewBox="0 0 524 550" fill="none" xmlns="http://www.w3.org/2000/svg">
<path d="M76.6995 540.397C75.6842 538.813 74.9974 537.041 74.6798 535.187C74.3621 533.332 74.4202 531.433 74.8504 529.602C75.7429 525.937 77.4633 522.526 79.8794 519.63C84.3795 513.918 91.6973 509.868 98.4829 507.288C100.868 515.01 97.1918 523.61 95.0424 527.811C91.6574 534.534 81.4722 544.618 76.6853 540.353" fill="#AB2526"/>
<path d="M98.7724 493.424C98.0417 495.398 96.8012 497.143 95.1772 498.482C93.5531 499.82 91.6034 500.705 89.5265 501.045C87.4421 501.359 85.316 501.254 83.2732 500.734C81.2303 500.215 79.3118 499.292 77.6305 498.021C76.0493 496.882 74.5817 495.306 74.4756 493.362C74.4805 492.453 74.7295 491.561 75.1966 490.781C75.6637 490 76.3318 489.36 77.1311 488.925C78.7412 488.067 80.5511 487.654 82.3741 487.729C88.5848 487.689 94.617 488.785 98.7724 493.424Z" fill="#AB2526"/>
<path d="M117.065 478.695C116.778 479.105 116.455 479.489 116.102 479.843L113.368 482.874C110.418 486.321 106.928 489.268 103.035 491.598C99.1064 493.893 94.6351 495.094 90.0855 495.078C88.7142 495.054 87.3506 494.867 86.0234 494.521C85.5499 494.407 85.2007 494.265 84.9568 494.186C84.7129 494.108 84.5967 494.048 84.6041 494.033C86.4045 494.429 88.2389 494.649 90.0818 494.691C94.544 494.583 98.9078 493.357 102.773 491.125C106.588 488.805 110.039 485.932 113.013 482.6C114.207 481.377 115.181 480.372 115.862 479.702C116.23 479.328 116.633 478.991 117.065 478.695Z" fill="#263238"/>
<path d="M83.787 532.029C83.8539 531.821 83.9439 531.621 84.0554 531.433C84.2966 531.015 84.5828 530.474 84.9469 529.798C85.6906 528.345 86.874 526.337 88.3173 523.856C91.2082 518.834 95.267 511.906 99.962 504.469C104.657 497.031 109.017 490.285 112.264 485.499C113.911 483.087 115.207 481.164 116.15 479.84L117.212 478.284C117.335 478.101 117.475 477.93 117.63 477.773C117.546 477.978 117.437 478.172 117.307 478.35L116.299 479.889L112.551 485.637C109.395 490.478 105.061 497.192 100.384 504.684C95.7062 512.176 91.5826 519.016 88.6229 523.976L85.0809 529.912L84.1132 531.499C84.0195 531.684 83.9103 531.862 83.787 532.029Z" fill="#263238"/>
<path d="M109.997 495.234C108.321 499.34 107.648 503.786 108.033 508.204C108.418 512.622 109.85 516.885 112.21 520.64C113.43 522.539 115.354 524.477 117.563 524.067C119.772 523.656 120.891 521.148 121.302 518.928C122.074 514.283 121.453 509.513 119.518 505.219C117.582 500.926 114.42 497.302 110.428 494.803" fill="#AB2526"/>
<path d="M114.978 514.298C114.669 513.941 114.397 513.553 114.167 513.141C113.863 512.68 113.587 512.202 113.341 511.709C113.058 511.133 112.673 510.505 112.37 509.754C112.003 508.946 111.683 508.118 111.411 507.273C111.074 506.313 110.791 505.336 110.562 504.345C110.051 502.063 109.798 499.731 109.809 497.393C109.864 495.053 110.187 492.726 110.771 490.458C111.029 489.474 111.349 488.508 111.729 487.565C112.037 486.733 112.395 485.921 112.8 485.132C113.12 484.473 113.476 483.831 113.866 483.211C114.134 482.733 114.436 482.274 114.769 481.839C115.014 481.441 115.301 481.072 115.627 480.737C115.732 480.8 114.501 482.399 113.12 485.296C112.742 486.084 112.408 486.893 112.119 487.718C111.772 488.659 111.475 489.618 111.227 490.59C110.68 492.822 110.381 495.108 110.334 497.406C110.321 499.703 110.553 501.995 111.026 504.243C111.272 505.268 111.504 506.248 111.817 507.142C112.069 507.98 112.367 508.803 112.711 509.607C113.957 512.565 115.07 514.244 114.978 514.298Z" fill="#263238"/>
<path d="M105.536 446.568C105.534 446.325 105.501 446.083 105.437 445.848C105.332 445.3 105.189 444.63 105.025 443.822C104.65 442.062 104.053 439.537 103.265 436.419C101.687 430.183 99.2546 421.639 96.4321 412.263C93.6096 402.886 91.0969 394.356 89.402 388.17C88.5831 385.147 87.9162 382.669 87.4186 380.828C87.1631 380.037 86.9537 379.389 86.8602 378.837C86.8243 378.595 86.7488 378.361 86.6367 378.144C86.6381 378.388 86.6714 378.63 86.7359 378.865C86.9062 379.392 86.9912 380.068 87.1588 380.888C87.5295 382.636 88.1302 385.172 88.919 388.29C90.482 394.518 92.9253 403.059 95.7439 412.461C98.5625 421.863 101.076 430.357 102.781 436.539C103.597 439.551 104.267 442.04 104.765 443.881C105.02 444.672 105.23 445.321 105.323 445.873C105.368 446.112 105.439 446.345 105.536 446.568Z" fill="#263238"/>
<path d="M30.8495 453.213C31.0857 451.346 31.6943 449.546 32.6392 447.919C33.5842 446.293 34.8463 444.872 36.3505 443.742C39.3846 441.502 42.8917 439.987 46.6025 439.313C53.7181 437.814 61.9308 439.397 68.7928 441.766C65.673 449.222 57.3382 453.466 52.9957 455.312C46.0881 458.302 31.8065 459.512 30.8668 453.17" fill="#AB2526"/>
<path d="M77.9017 431.312C76.0757 432.358 74.0049 432.902 71.9003 432.889C69.7957 432.875 67.7323 432.304 65.92 431.234C64.119 430.139 62.555 428.695 61.3201 426.986C60.0851 425.278 59.204 423.34 58.7287 421.287C58.2454 419.399 58.1295 417.248 59.2939 415.689C59.8807 414.994 60.6433 414.469 61.5022 414.17C62.361 413.87 63.2845 413.807 64.1762 413.986C65.962 414.359 67.6159 415.203 68.9669 416.429C73.7597 420.379 77.6863 425.088 77.9017 431.312Z" fill="#AB2526"/>
<path d="M101.384 431.734C100.901 431.864 100.407 431.952 99.9088 431.998L95.8681 432.571C91.3937 433.326 86.8266 433.35 82.3444 432.643C77.8582 431.886 73.6565 429.941 70.1753 427.012C69.1382 426.115 68.2114 425.097 67.4143 423.981C67.1239 423.59 66.947 423.257 66.8104 423.04C66.6738 422.823 66.6227 422.703 66.6378 422.697C67.766 424.154 69.0329 425.499 70.4206 426.713C73.9141 429.491 78.0492 431.347 82.4468 432.112C86.8626 432.777 91.3527 432.784 95.7707 432.134C97.4713 431.961 98.8631 431.813 99.8152 431.736C100.337 431.685 100.863 431.684 101.384 431.734Z" fill="#263238"/>
<path d="M41.6529 451.334C41.8377 451.217 42.035 451.121 42.2412 451.048C42.694 450.883 43.2607 450.651 43.9733 450.365C45.4758 449.727 47.6713 448.944 50.369 447.966C55.8074 445.964 63.3638 443.249 71.7349 440.551C80.106 437.853 87.7772 435.47 93.3366 433.878C96.1474 433.082 98.3746 432.437 99.9472 432.026L101.76 431.512C101.972 431.451 102.189 431.409 102.408 431.388C102.212 431.491 102.005 431.571 101.79 431.624L100.03 432.159L93.4687 434.168C87.9433 435.86 80.3128 438.235 71.9201 440.987C63.5275 443.738 55.9778 446.344 50.5268 448.254L44.0028 450.539L42.2431 451.136C42.0522 451.219 41.8548 451.285 41.6529 451.334Z" fill="#263238"/>
<path d="M85.3567 439.896C81.4384 441.973 78.0713 444.954 75.5344 448.592C72.9975 452.229 71.3638 456.419 70.7686 460.814C70.4876 463.053 70.7219 465.774 72.6803 466.876C74.6387 467.977 77.1055 466.769 78.8441 465.329C82.4142 462.258 84.9954 458.199 86.2624 453.663C87.5294 449.128 87.4254 444.319 85.9635 439.842" fill="#AB2526"/>
<path d="M76.9587 457.721C76.9506 457.249 76.9908 456.777 77.0786 456.313C77.1402 455.765 77.2349 455.221 77.3621 454.685C77.514 454.061 77.6212 453.333 77.87 452.561C78.1068 451.706 78.392 450.865 78.7242 450.043C79.0813 449.09 79.4905 448.158 79.9501 447.251C81.0205 445.172 82.3214 443.221 83.8282 441.433C85.3717 439.672 87.1112 438.093 89.013 436.727C89.8412 436.137 90.7063 435.6 91.6032 435.121C92.3724 434.68 93.1675 434.286 93.9842 433.94C94.6526 433.639 95.3369 433.375 96.0339 433.149C96.5463 432.954 97.0719 432.795 97.6067 432.675C98.0493 432.527 98.5068 432.427 98.9711 432.379C99.0115 432.495 97.0421 432.933 94.1247 434.271C93.3293 434.634 92.5545 435.04 91.8036 435.488C90.9344 435.989 90.0913 436.534 89.2777 437.121C87.4271 438.483 85.7322 440.046 84.2238 441.779C82.7407 443.534 81.4493 445.442 80.3718 447.471C79.9038 448.415 79.4531 449.316 79.1204 450.203C78.7766 451.007 78.4779 451.83 78.2256 452.668C77.2861 455.737 77.0637 457.739 76.9587 457.721Z" fill="#263238"/>
<path d="M113.13 399.686C113.285 399.498 113.415 399.291 113.516 399.07C113.787 398.582 114.106 397.976 114.499 397.25C115.339 395.66 116.5 393.339 117.893 390.441C120.68 384.643 124.29 376.527 128.135 367.521C131.98 358.515 135.519 350.357 138.184 344.523C139.494 341.678 140.57 339.348 141.369 337.616C141.68 336.846 141.935 336.214 142.217 335.73C142.344 335.522 142.436 335.294 142.489 335.056C142.334 335.243 142.204 335.451 142.103 335.672C141.896 336.186 141.528 336.759 141.131 337.496C140.295 339.075 139.13 341.407 137.737 344.305C134.944 350.088 131.344 358.209 127.48 367.232C123.616 376.254 120.1 384.384 117.446 390.223C116.14 393.057 115.059 395.397 114.261 397.13C113.95 397.9 113.695 398.532 113.413 399.016C113.294 399.228 113.199 399.453 113.13 399.686Z" fill="#263238"/>
<path d="M131.04 103.321C131.98 102.784 132.757 102.001 133.286 101.056C133.816 100.111 134.078 99.0393 134.045 97.9565C134.012 96.8738 133.685 95.8205 133.099 94.9095C132.513 93.9985 131.69 93.2641 130.718 92.7852C131.099 92.3936 131.399 91.9309 131.601 91.4234C131.804 90.9159 131.904 90.3735 131.896 89.8273C131.889 89.2811 131.774 88.7416 131.558 88.2398C131.342 87.738 131.029 87.2837 130.638 86.9027C130.246 86.5217 129.784 86.2216 129.276 86.0194C128.769 85.8173 128.226 85.7171 127.68 85.7245C127.134 85.732 126.594 85.847 126.093 86.0629C125.591 86.2788 125.136 86.5915 124.755 86.983C124.578 86.0747 124.143 85.2364 123.504 84.5669C122.865 83.8975 122.048 83.4249 121.149 83.205C120.25 82.9851 119.307 83.027 118.431 83.3259C117.555 83.6248 116.783 84.1681 116.206 84.8917C115.269 84.5096 114.247 84.3807 113.245 84.518C112.242 84.6552 111.293 85.0537 110.492 85.6735C109.692 86.2933 109.069 87.1127 108.685 88.0493C108.302 88.986 108.171 90.0071 108.307 91.0102C107.564 90.2995 106.613 89.8458 105.593 89.7158C104.574 89.5858 103.539 89.7864 102.642 90.288C101.745 90.7896 101.032 91.5659 100.609 92.5026C100.186 93.4393 100.075 94.4871 100.291 95.4919C98.2827 95.5462 95.9584 95.7875 94.8656 97.475C93.7729 99.1625 94.4301 101.122 95.0524 102.898C95.7106 105.029 96.6012 107.081 97.7081 109.017C99.5419 111.964 102.326 114.197 105.601 115.348C107.299 116.265 109.249 116.609 111.158 116.329C113.068 116.049 114.836 115.159 116.2 113.793" fill="#263238"/>
<path d="M135.706 109.918C136.172 109.333 136.509 108.657 136.695 107.932C136.881 107.208 136.912 106.453 136.786 105.716C136.659 104.979 136.379 104.277 135.963 103.656C135.547 103.035 135.004 102.508 134.371 102.111C133.737 101.714 133.027 101.456 132.286 101.352C131.546 101.249 130.792 101.303 130.073 101.511C129.355 101.719 128.689 102.076 128.119 102.559C127.548 103.042 127.086 103.641 126.763 104.315C126.387 105.03 126.065 105.911 125.332 106.196C124.599 106.482 123.847 106.106 123.101 105.898C122.14 105.629 121.122 105.641 120.168 105.932C119.213 106.223 118.362 106.781 117.714 107.54C117.067 108.299 116.65 109.227 116.512 110.215C116.375 111.204 116.523 112.21 116.94 113.117C114.047 112.838 110.638 114.303 110.141 117.157C109.752 119.71 111.938 122.121 114.452 122.692C117.025 123.075 119.651 122.577 121.906 121.279C127.459 118.538 132.028 114.147 134.988 108.707" fill="#AB2526"/>
<path d="M119.955 115.128C119.947 115.288 119.005 115.228 118.113 114.57C117.221 113.912 116.908 113.018 117.055 112.946C117.202 112.875 117.699 113.515 118.476 114.077C119.252 114.639 120.008 114.989 119.955 115.128Z" fill="white"/>
<path d="M128.757 111.58C128.593 111.634 128.353 110.328 127.438 109.034C126.522 107.741 125.548 106.939 125.677 106.776C126.659 107.099 127.475 107.794 127.952 108.711C128.59 109.523 128.879 110.555 128.757 111.58Z" fill="white"/>
<path d="M133.219 108.829C133.055 108.882 132.965 107.516 132.204 106.136C131.443 104.756 130.41 103.962 130.506 103.809C131.455 104.221 132.239 104.94 132.731 105.85C133.223 106.76 133.395 107.809 133.219 108.829Z" fill="white"/>
<path d="M117.353 119.39C117.374 119.456 116.979 119.583 116.344 119.534C115.514 119.443 114.727 119.122 114.07 118.608C113.413 118.093 112.912 117.405 112.625 116.622C112.43 116.018 112.445 115.613 112.514 115.602C113.013 116.545 113.663 117.401 114.436 118.136C115.821 119.229 117.413 119.2 117.353 119.39Z" fill="white"/>
<path d="M186.467 156.452C188.135 155.242 189.299 153.459 189.736 151.444C190.173 149.43 189.853 147.325 188.836 145.532C189.67 144.437 190.271 143.182 190.602 141.846C190.932 140.51 190.986 139.12 190.759 137.762C190.532 136.404 190.029 135.107 189.281 133.951C188.533 132.795 187.557 131.805 186.411 131.041C187.154 129.827 187.514 128.419 187.447 126.999C187.38 125.578 186.887 124.21 186.033 123.073C185.18 121.936 184.004 121.081 182.659 120.619C181.313 120.158 179.861 120.111 178.488 120.485C178.577 118.796 178.218 117.114 177.448 115.608C176.679 114.103 175.526 112.826 174.107 111.908C172.687 110.99 171.05 110.463 169.361 110.379C167.672 110.295 165.991 110.658 164.487 111.431C164.218 109.738 163.461 108.16 162.307 106.891C161.153 105.623 159.654 104.719 157.994 104.291C156.333 103.864 154.584 103.93 152.961 104.484C151.338 105.037 149.912 106.052 148.858 107.405C142.958 103.184 133.422 105.888 130.636 112.587C124.388 111.087 117.391 115.98 116.649 122.359C112.218 120.284 106.64 123.335 104.667 127.818C102.693 132.302 103.576 137.549 105.464 142.119C104.414 143.09 103.64 144.321 103.221 145.688C102.802 147.055 102.753 148.509 103.079 149.901C103.406 151.293 104.095 152.573 105.078 153.612C106.061 154.65 107.302 155.409 108.674 155.811C106.096 162.553 110.124 171.042 116.978 173.293C117.56 176.39 119.043 179.247 121.242 181.504C123.441 183.761 126.258 185.319 129.339 185.982" fill="#263238"/>
<path d="M122.78 147.348L119.061 142.483L151.651 125.89C161.96 121.674 176.554 128.995 180.305 139.48C184.501 151.118 189.157 165.495 190.327 174.75C192.709 193.392 179.694 199.598 179.694 199.598L187.534 227.627L148.198 238.622L122.78 147.348Z" fill="#FFBE9D"/>
<path d="M177.674 153.08C177.842 153.663 177.781 154.288 177.505 154.828C177.228 155.367 176.757 155.782 176.187 155.987C175.614 156.192 174.983 156.162 174.431 155.904C173.88 155.646 173.452 155.181 173.243 154.609C173.073 154.026 173.132 153.401 173.409 152.86C173.685 152.32 174.158 151.905 174.73 151.702C175.303 151.497 175.934 151.527 176.486 151.785C177.037 152.043 177.465 152.509 177.674 153.08Z" fill="#263238"/>
<path d="M178.746 148.063C178.553 148.441 176.457 147.662 173.997 148.384C171.537 149.106 170.1 150.856 169.748 150.63C169.581 150.526 169.711 149.914 170.325 149.109C171.179 148.066 172.331 147.309 173.627 146.938C174.901 146.563 176.262 146.604 177.511 147.055C178.442 147.421 178.85 147.896 178.746 148.063Z" fill="#263238"/>
<path d="M153.247 159.564C153.417 160.146 153.357 160.772 153.081 161.313C152.804 161.853 152.332 162.267 151.759 162.471C151.188 162.675 150.559 162.646 150.008 162.39C149.458 162.134 149.031 161.672 148.818 161.103C148.649 160.52 148.708 159.895 148.984 159.354C149.261 158.814 149.734 158.399 150.306 158.196C150.877 157.992 151.506 158.021 152.057 158.277C152.607 158.533 153.035 158.995 153.247 159.564Z" fill="#263238"/>
<path d="M154.196 155.666C154.003 156.044 151.896 155.268 149.447 155.987C146.998 156.705 145.55 158.459 145.198 158.233C145.024 158.143 145.15 157.52 145.778 156.723C146.624 155.677 147.775 154.919 149.07 154.556C150.347 154.179 151.711 154.219 152.964 154.669C153.874 155.006 154.297 155.488 154.196 155.666Z" fill="#263238"/>
<path d="M168.955 171.159C170.132 170.377 171.404 169.746 172.74 169.282C173.355 169.083 173.899 168.737 173.885 168.281C173.741 167.619 173.406 167.015 172.922 166.541L169.676 162.312C165.125 156.261 161.638 151.212 161.88 151.024C162.123 150.836 166.018 155.608 170.566 161.649L173.757 165.932C174.37 166.576 174.736 167.416 174.79 168.304C174.76 168.559 174.671 168.804 174.53 169.018C174.388 169.232 174.198 169.41 173.975 169.538C173.643 169.738 173.285 169.894 172.912 170.002C171.648 170.555 170.318 170.944 168.955 171.159Z" fill="#263238"/>
<path d="M179.767 199.562C171.232 202.189 162.142 202.437 153.477 200.278C153.477 200.278 163.111 210.985 181.055 203.999L179.767 199.562Z" fill="#EB996E"/>
<path d="M149.223 143.162C149.315 143.897 146.89 144.765 144.391 146.458C141.893 148.151 140.094 149.981 139.451 149.606C139.161 149.421 139.238 148.644 139.799 147.602C140.369 146.124 141.503 144.933 142.951 144.29C144.245 143.413 145.732 142.862 147.285 142.684C148.432 142.593 149.175 142.826 149.223 143.162Z" fill="#263238"/>
<path d="M176.219 140.424C175.913 141.093 174.06 140.915 171.993 141.388C169.926 141.862 168.282 142.672 167.736 142.181C167.497 141.931 167.634 141.304 168.265 140.59C169.122 139.682 170.245 139.068 171.473 138.839C172.687 138.575 173.953 138.691 175.099 139.172C175.971 139.582 176.335 140.107 176.219 140.424Z" fill="#263238"/>
<path d="M136.698 130.344C137.509 131.658 138.644 132.741 139.995 133.489C140.678 133.839 141.466 133.926 142.209 133.733C142.952 133.54 143.598 133.08 144.025 132.442C144.56 132.74 145.156 132.915 145.768 132.954C146.38 132.993 146.992 132.894 147.561 132.666C148.131 132.438 148.642 132.086 149.057 131.636C149.473 131.185 149.783 130.648 149.965 130.062C151.08 130.582 152.334 130.722 153.536 130.461C154.738 130.2 155.821 129.552 156.62 128.616L162.226 128.019C164.261 127.822 166.716 127.308 167.376 125.372C167.538 124.932 167.586 124.407 167.932 124.089C168.336 123.825 168.802 123.674 169.284 123.652C170.059 123.453 170.772 123.062 171.356 122.515C171.941 121.968 172.378 121.282 172.628 120.521C173.107 118.996 173.322 117.4 173.263 115.803C173.323 113.357 173.004 110.306 170.706 109.35C169.784 109.064 168.807 109.001 167.856 109.166C165.906 109.223 163.989 109.685 162.228 110.523C160.184 111.873 158.69 113.909 158.016 116.263C158.009 115.599 157.747 114.963 157.284 114.487C156.821 114.011 156.192 113.732 155.528 113.706C154.183 113.721 152.898 114.266 151.954 115.225C150.503 116.556 149.471 118.28 148.984 120.188C147.507 120.664 146.193 121.543 145.188 122.725C144.184 123.906 143.528 125.345 143.295 126.878C142.495 126.656 141.657 126.599 140.834 126.71C140.011 126.822 139.219 127.1 138.506 127.527C138.247 127.659 138.018 127.842 137.831 128.065C137.645 128.288 137.505 128.546 137.421 128.824C137.388 128.963 137.386 129.107 137.415 129.246C137.445 129.385 137.504 129.516 137.589 129.629C137.674 129.743 137.784 129.837 137.909 129.903C138.035 129.97 138.173 130.008 138.315 130.016" fill="#263238"/>
<path d="M154.046 125.905C153.964 127.234 154.317 128.553 155.052 129.663C155.787 130.772 156.864 131.612 158.12 132.054C159.376 132.497 160.741 132.518 162.009 132.114C163.278 131.71 164.38 130.903 165.149 129.817C165.965 130.875 167.132 131.609 168.439 131.886C169.747 132.164 171.111 131.968 172.287 131.332C172.761 132.844 173.633 134.2 174.811 135.258C175.99 136.316 177.432 137.037 178.985 137.346C178.834 139.086 179.346 140.818 180.419 142.197C180.741 142.65 181.149 143.034 181.621 143.327C182.093 143.62 182.618 143.817 183.167 143.906C183.823 143.924 184.477 143.807 185.086 143.562C185.696 143.317 186.249 142.949 186.71 142.482C187.44 141.899 188.042 141.173 188.481 140.349C188.92 139.525 189.186 138.62 189.263 137.69C189.302 136.756 189.007 135.839 188.431 135.102C187.855 134.366 187.036 133.858 186.121 133.67C187.206 131.775 187.858 129.662 188.029 127.485C188.131 126.871 188.111 126.243 187.969 125.637C187.828 125.031 187.568 124.459 187.204 123.954C187.012 123.716 186.769 123.524 186.494 123.391C186.218 123.258 185.917 123.187 185.611 123.184C185.305 123.181 185.003 123.245 184.725 123.373C184.447 123.5 184.2 123.687 184.003 123.921C184.187 122.912 184.083 121.871 183.703 120.919C183.323 119.966 182.681 119.14 181.852 118.536C181.024 117.932 180.041 117.574 179.018 117.503C177.995 117.432 176.972 117.652 176.068 118.137C175.79 117.319 175.284 116.598 174.61 116.059C173.935 115.52 173.121 115.185 172.262 115.094C171.404 115.003 170.537 115.159 169.764 115.544C168.992 115.929 168.345 116.528 167.902 117.268" fill="#263238"/>
<path d="M132.336 130.734C131.791 128.484 129.183 127.397 126.967 127.785C124.774 128.353 122.799 129.561 121.294 131.255C119.91 130.415 118.302 130.018 116.686 130.119C115.07 130.22 113.524 130.814 112.256 131.821C109.766 133.839 108.833 137.185 107.117 139.911C106.06 141.252 105.221 142.751 104.633 144.353C104.22 146.003 104.93 148.128 106.591 148.501C105.765 149.127 105.123 149.964 104.732 150.924C104.341 151.884 104.216 152.932 104.369 153.957C104.523 154.982 104.95 155.947 105.605 156.751C106.261 157.554 107.12 158.166 108.094 158.522C108.712 158.747 109.426 158.892 109.816 159.422C110.095 159.901 110.216 160.457 110.159 161.01C110.087 163.641 109.504 166.268 109.79 168.881C110.076 171.494 111.529 174.264 114.092 174.953C114.759 175.138 115.532 175.204 115.984 175.737C116.255 176.106 116.399 176.553 116.395 177.012C116.356 178.516 116.182 180.013 115.875 181.486C115.569 182.968 115.809 184.511 116.551 185.83C116.954 186.469 117.594 186.922 118.33 187.091C119.067 187.26 119.84 187.131 120.482 186.732C120.421 189.736 121.526 192.934 124.001 194.622C126.475 196.31 132.613 195.48 135.37 192.26L133.08 184.082C132.161 182.814 131.924 174.531 130.516 173.288C130.516 173.288 129.784 179.323 134.967 176.703C136.892 176.615 138.616 170.307 138.254 168.361C138.014 167.422 137.514 166.569 136.811 165.901C136.108 165.233 135.231 164.777 134.28 164.586C135.407 162.888 135.902 160.848 135.678 158.823C135.454 156.797 134.525 154.915 133.055 153.505C134.017 153.071 134.801 152.32 135.277 151.378C135.753 150.436 135.892 149.359 135.671 148.327C135.45 147.295 134.882 146.37 134.061 145.706C133.241 145.041 132.217 144.679 131.162 144.677C132.269 143.922 133.205 142.941 133.908 141.8C134.612 140.659 135.067 139.382 135.244 138.053C135.422 136.725 135.317 135.373 134.938 134.088C134.558 132.802 133.912 131.61 133.042 130.591" fill="#263238"/>
<path d="M106.485 140.844C106.485 140.844 106.271 141.083 106.076 141.643C105.748 142.728 105.802 143.893 106.23 144.943C106.657 145.993 107.432 146.864 108.424 147.412C109.24 147.831 110.152 148.03 111.068 147.989C111.985 147.948 112.875 147.669 113.651 147.179L113.07 146.882C113.106 147.381 113.243 147.867 113.471 148.312C113.699 148.757 114.015 149.152 114.399 149.472C114.783 149.793 115.227 150.033 115.706 150.178C116.185 150.323 116.688 150.371 117.185 150.318C117.682 150.264 118.164 150.112 118.601 149.869C119.038 149.625 119.422 149.297 119.73 148.902C120.037 148.508 120.262 148.055 120.391 147.572C120.52 147.089 120.551 146.585 120.481 146.089L119.657 146.355C119.967 146.895 120.406 147.349 120.936 147.675C121.465 148.002 122.067 148.192 122.688 148.227C123.502 148.287 124.313 148.072 124.99 147.617C125.65 147.161 126.124 146.482 126.326 145.706C126.529 144.984 126.514 144.219 126.283 143.505C126.053 142.792 125.617 142.163 125.031 141.696L124.703 142.445C125.965 142.676 127.262 142.647 128.512 142.358C129.763 142.069 130.94 141.526 131.973 140.764C133.294 139.76 134.313 138.411 134.916 136.865C135.52 135.32 135.684 133.637 135.392 132.004C135.343 131.544 135.199 131.098 134.969 130.697C135.263 132.365 135.182 134.078 134.733 135.711C134.188 137.509 133.066 139.078 131.54 140.175C130.578 140.85 129.49 141.326 128.341 141.574C127.192 141.822 126.005 141.838 124.849 141.621L122.969 141.246L124.543 142.363C124.99 142.726 125.322 143.211 125.499 143.759C125.676 144.307 125.69 144.894 125.54 145.45C125.388 146.035 125.031 146.545 124.534 146.889C124.037 147.232 123.433 147.385 122.832 147.32C122.357 147.298 121.895 147.16 121.486 146.918C121.078 146.675 120.736 146.335 120.49 145.929L119.227 143.595L119.662 146.22C119.702 146.625 119.66 147.034 119.539 147.423C119.418 147.811 119.22 148.172 118.957 148.483C118.695 148.794 118.373 149.049 118.01 149.233C117.647 149.418 117.251 149.528 116.845 149.557C116.095 149.537 115.377 149.246 114.824 148.737C114.272 148.228 113.923 147.537 113.841 146.79L113.807 146.122L113.259 146.493C112.596 146.933 111.83 147.193 111.037 147.25C110.243 147.306 109.448 147.157 108.729 146.816C108.175 146.541 107.685 146.153 107.29 145.676C106.896 145.199 106.606 144.645 106.44 144.049C106.162 142.997 106.178 141.888 106.485 140.844Z" fill="#455A64"/>
<path d="M169.01 109.922C169.253 110.199 169.43 110.528 169.527 110.883C169.574 111.079 169.574 111.283 169.528 111.479C169.482 111.675 169.39 111.858 169.261 112.013C169.095 112.216 168.874 112.366 168.625 112.447C168.375 112.527 168.108 112.534 167.855 112.467L166.981 112.203L167.592 112.891C168.04 113.455 168.313 114.138 168.376 114.855C168.44 115.572 168.291 116.292 167.948 116.926C167.484 117.69 166.742 118.245 165.877 118.474C165.013 118.703 164.093 118.59 163.311 118.157L162.748 117.841L162.687 118.479C162.583 119.554 162.211 120.585 161.604 121.478C160.997 122.371 160.176 123.097 159.215 123.59C158.255 124.082 157.186 124.326 156.107 124.297C155.027 124.269 153.973 123.97 153.039 123.428L152.691 123.213L152.465 123.565C151.411 125.25 149.919 126.617 148.149 127.519C146.775 128.247 145.271 128.696 143.722 128.839C142.306 128.912 140.887 128.826 139.49 128.581C139.49 128.581 139.838 128.796 140.552 129.014C141.592 129.299 142.67 129.418 143.747 129.365C145.406 129.297 147.033 128.883 148.523 128.15C150.45 127.225 152.084 125.786 153.246 123.992L152.696 124.169C153.747 124.799 154.941 125.151 156.166 125.192C157.39 125.232 158.605 124.961 159.695 124.402C160.785 123.844 161.716 123.017 162.398 121.999C163.08 120.982 163.492 119.807 163.595 118.586L162.972 118.909C163.822 119.402 164.821 119.574 165.788 119.394C166.754 119.214 167.624 118.693 168.239 117.926C168.854 117.159 169.174 116.198 169.141 115.215C169.108 114.232 168.724 113.294 168.058 112.571L167.795 112.996C168.141 113.075 168.504 113.051 168.837 112.926C169.169 112.801 169.458 112.581 169.667 112.294C169.814 112.083 169.911 111.841 169.949 111.587C169.986 111.332 169.965 111.073 169.885 110.828C169.561 110.011 169 109.889 169.01 109.922Z" fill="#455A64"/>
<path d="M134.619 109.371C134.641 109.437 134.943 109.097 135.581 108.855C136.024 108.692 136.497 108.626 136.968 108.66C137.439 108.694 137.898 108.827 138.314 109.052C138.903 109.424 139.395 109.933 139.748 110.534C140.1 111.136 140.304 111.813 140.34 112.51C140.389 114.287 139.99 116.047 139.179 117.629L139.972 118.016C140.251 117.452 141.367 117.565 141.801 118.007C142.052 118.314 142.24 118.668 142.353 119.048C142.465 119.429 142.5 119.828 142.456 120.222C142.394 121.676 142.027 123.1 141.38 124.403C140.701 125.595 139.91 126.72 139.019 127.762C139.019 127.762 139.426 127.631 140.022 127.111C140.803 126.414 141.465 125.594 141.98 124.683C142.761 123.32 143.223 121.798 143.332 120.23C143.393 119.729 143.351 119.221 143.207 118.737C143.063 118.254 142.821 117.805 142.496 117.419C142.068 116.989 141.488 116.745 140.882 116.739C140.559 116.719 140.236 116.787 139.949 116.935C139.661 117.083 139.42 117.307 139.249 117.582L140.041 117.969C140.92 116.246 141.32 114.32 141.2 112.39C141.133 111.576 140.865 110.792 140.419 110.108C139.974 109.423 139.365 108.861 138.648 108.471C138.152 108.237 137.609 108.121 137.061 108.132C136.513 108.142 135.975 108.28 135.489 108.533C134.722 108.938 134.587 109.346 134.619 109.371Z" fill="#455A64"/>
<path d="M107.92 125.045C108.783 124.328 109.746 123.739 110.777 123.297C111.935 122.872 113.187 122.774 114.398 123.013C115.929 123.337 117.302 124.179 118.286 125.397L118.791 126.022L119.013 125.247C119.253 124.472 119.729 123.792 120.376 123.303C121.023 122.814 121.807 122.541 122.618 122.522C123.428 122.502 124.224 122.739 124.894 123.197C125.563 123.655 126.071 124.311 126.346 125.074L126.506 125.568L126.954 125.302C127.62 124.929 128.359 124.703 129.12 124.642C129.881 124.58 130.647 124.684 131.364 124.945C132.515 125.371 133.472 126.2 134.059 127.278C134.555 128.281 134.835 129.377 134.879 130.495C134.879 130.495 135.035 130.19 135.07 129.584C135.104 128.701 134.916 127.823 134.525 127.03C133.927 125.804 132.899 124.841 131.636 124.324C130.817 123.997 129.936 123.855 129.055 123.909C128.175 123.962 127.317 124.21 126.544 124.634L127.151 124.862C126.836 123.914 126.224 123.091 125.406 122.515C124.588 121.94 123.608 121.642 122.608 121.665C121.608 121.688 120.642 122.031 119.851 122.643C119.061 123.255 118.488 124.105 118.216 125.068L118.947 124.928C117.813 123.59 116.235 122.705 114.502 122.434C113.168 122.211 111.798 122.383 110.561 122.93C109.76 123.276 109.035 123.778 108.43 124.407C108.047 124.725 107.873 124.975 107.92 125.045Z" fill="#455A64"/>
<path d="M99.0316 97.0392C99.2856 96.3472 99.6934 95.7218 100.224 95.2103C100.844 94.649 101.66 94.3548 102.495 94.3917C103.029 94.4198 103.549 94.5782 104.007 94.8529C104.466 95.1276 104.851 95.5104 105.128 95.9679L106.023 97.4987L105.758 95.7401C105.652 94.8544 105.8 93.9568 106.184 93.1518C106.568 92.3468 107.173 91.6675 107.929 91.1929C108.828 90.6901 109.869 90.5023 110.887 90.6593C111.905 90.8163 112.841 91.3091 113.547 92.0594L113.832 92.3797L114.164 92.0907C114.6 91.7106 115.113 91.429 115.668 91.265C116.604 90.9431 117.621 90.9414 118.559 91.2601C119.496 91.5787 120.301 92.1997 120.847 93.0255C121.307 93.7794 121.547 94.6466 121.541 95.5295C121.534 96.4125 121.282 97.2762 120.812 98.0234L120.046 99.1079L121.259 98.5825C121.876 98.3314 122.549 98.255 123.207 98.3615C123.864 98.4681 124.479 98.7536 124.985 99.1868C125.374 99.5311 125.68 99.9603 125.877 100.441C126.075 100.922 126.159 101.442 126.124 101.961C126.042 102.901 125.686 103.797 125.099 104.537C125.099 104.537 125.374 104.448 125.703 104.038C126.178 103.443 126.468 102.721 126.536 101.961C126.613 101.364 126.547 100.756 126.342 100.189C126.138 99.6226 125.802 99.1124 125.362 98.7011C124.779 98.1588 124.055 97.7929 123.273 97.646C122.491 97.4991 121.684 97.5773 120.944 97.8713L121.403 98.4269C121.978 97.5616 122.296 96.5513 122.321 95.5127C122.347 94.4741 122.077 93.4496 121.545 92.5574C120.903 91.5677 119.95 90.8195 118.836 90.4305C117.722 90.0414 116.51 90.0335 115.391 90.4081C114.726 90.6193 114.111 90.9625 113.582 91.4172L114.202 91.4594C113.442 90.609 112.426 90.0286 111.307 89.8055C110.189 89.5824 109.028 89.7287 107.999 90.2223C106.971 90.716 106.131 91.5303 105.605 92.5427C105.08 93.5552 104.897 94.7109 105.085 95.836L105.733 95.6267C105.388 95.089 104.915 94.6459 104.355 94.3372C103.796 94.0286 103.168 93.8642 102.53 93.859C102.054 93.8603 101.583 93.9563 101.145 94.1416C100.707 94.3268 100.311 94.5975 99.9785 94.9378C99.5645 95.3542 99.2633 95.869 99.1029 96.4338C98.9861 96.8234 99.006 97.0354 99.0316 97.0392Z" fill="#455A64"/>
<path d="M76.3743 111.031C76.9607 110.285 77.7625 109.738 78.6707 109.464C79.1806 109.312 79.719 109.282 80.2426 109.376C80.7662 109.47 81.2603 109.686 81.685 110.007C82.2113 110.429 82.61 110.99 82.8367 111.625C83.0635 112.261 83.1095 112.947 82.9695 113.607L82.283 116.365L83.6172 113.847C84.0115 113.185 84.6156 112.673 85.3338 112.393C86.0519 112.112 86.8431 112.079 87.5819 112.3C88.3892 112.615 89.0441 113.229 89.4107 114.014C89.7773 114.799 89.8275 115.695 89.5507 116.517L90.3848 116.732C90.4481 116.26 90.6039 115.805 90.8431 115.393C91.0823 114.981 91.4004 114.62 91.7791 114.331C92.1577 114.042 92.5896 113.831 93.0501 113.709C93.5105 113.586 93.9906 113.556 94.4627 113.62C94.9349 113.683 95.3899 113.839 95.8019 114.078C96.2138 114.317 96.5746 114.635 96.8637 115.014C97.1527 115.393 97.3644 115.824 97.4865 116.285C97.6086 116.745 97.6389 117.225 97.5755 117.698L98.1701 117.36C97.8754 117.18 97.655 116.9 97.5489 116.572C97.4428 116.243 97.4579 115.887 97.5917 115.569C97.7397 115.251 97.9734 114.98 98.2667 114.786C98.5599 114.593 98.9011 114.485 99.2521 114.475C99.9656 114.496 100.66 114.708 101.264 115.089C101.867 115.47 102.357 116.007 102.682 116.643L103.248 116.217C103.036 115.948 102.907 115.623 102.877 115.282C102.846 114.94 102.916 114.597 103.076 114.295C103.209 114.002 103.405 113.743 103.652 113.537C103.899 113.332 104.189 113.184 104.5 113.107C105.042 112.983 105.604 112.968 106.152 113.064C106.699 113.16 107.222 113.365 107.69 113.666C109.239 114.706 110.016 115.572 110.094 115.474C109.965 115.238 109.798 115.026 109.599 114.845C109.095 114.274 108.524 113.766 107.897 113.332C107.391 112.971 106.814 112.72 106.206 112.593C105.597 112.466 104.968 112.466 104.359 112.595C103.959 112.688 103.584 112.869 103.262 113.124C102.94 113.379 102.677 113.702 102.494 114.07C102.268 114.489 102.169 114.965 102.21 115.439C102.251 115.913 102.43 116.364 102.725 116.738L103.277 116.305C102.87 115.616 102.337 115.01 101.705 114.519C100.993 113.957 100.099 113.675 99.1934 113.729C98.6866 113.742 98.1941 113.9 97.7742 114.184C97.3542 114.468 97.0244 114.867 96.8235 115.332C96.617 115.851 96.6056 116.427 96.7913 116.954C96.9771 117.48 97.3474 117.922 97.8338 118.196L98.3644 118.45L98.4393 117.855C98.5218 116.716 98.167 115.588 97.4472 114.701C96.7274 113.814 95.6967 113.235 94.5649 113.081C93.433 112.927 92.2851 113.211 91.3547 113.873C90.4243 114.536 89.7814 115.528 89.5568 116.648L90.3908 116.864C90.739 115.903 90.71 114.845 90.3095 113.905C89.9091 112.964 89.1671 112.21 88.2329 111.795C87.2988 111.38 86.242 111.334 85.2755 111.667C84.3089 112 83.5046 112.687 83.0244 113.59L83.6721 113.829C83.834 113.037 83.7632 112.215 83.4683 111.462C83.1735 110.709 82.6671 110.058 82.0102 109.586C81.1932 109.035 80.1996 108.81 79.2248 108.954C78.25 109.098 77.3644 109.602 76.7419 110.366C76.4316 110.757 76.3562 111.012 76.3743 111.031Z" fill="#263238"/>
<path d="M202.324 164.227C202.324 164.227 202.06 164.312 201.582 164.26C201.25 164.224 200.928 164.12 200.637 163.955C200.346 163.791 200.092 163.568 199.89 163.302C199.554 162.907 199.322 162.433 199.215 161.926C199.108 161.418 199.13 160.891 199.278 160.394C199.721 159.061 200.436 157.834 201.378 156.792L200.787 156.352C200.167 157.121 199.345 157.702 198.413 158.028C197.481 158.355 196.476 158.415 195.512 158.201C194.426 157.945 193.462 157.32 192.785 156.432C192.109 155.544 191.762 154.448 191.804 153.333C191.807 152.568 191.977 151.813 192.303 151.121C192.55 150.489 193.013 149.966 193.61 149.644C194.082 149.491 194.632 149.993 194.78 150.564C194.851 150.847 194.834 151.145 194.732 151.418C194.629 151.692 194.447 151.928 194.207 152.095C193.689 152.448 193.102 152.69 192.485 152.803C191.868 152.917 191.234 152.901 190.623 152.756C189.492 152.56 188.435 152.063 187.562 151.318C186.297 150.221 185.497 148.684 185.324 147.018C185.2 145.845 185.378 145.157 185.291 145.148C185.02 145.737 184.911 146.388 184.977 147.033C185.002 147.932 185.208 148.816 185.582 149.633C185.957 150.45 186.492 151.183 187.156 151.789C188.09 152.633 189.236 153.206 190.471 153.448C191.191 153.632 191.943 153.659 192.675 153.53C193.407 153.4 194.103 153.115 194.717 152.695C195.055 152.426 195.322 152.077 195.493 151.68C195.68 151.246 195.712 150.76 195.582 150.305C195.464 149.849 195.209 149.44 194.852 149.133C194.653 148.958 194.415 148.834 194.159 148.772C193.902 148.709 193.633 148.709 193.377 148.773C192.915 148.926 192.509 149.213 192.212 149.598C191.932 149.939 191.694 150.313 191.504 150.712C191.126 151.529 190.933 152.42 190.939 153.321C190.928 154.659 191.35 155.966 192.142 157.045C192.926 158.069 194.059 158.769 195.326 159.013C196.443 159.25 197.603 159.165 198.674 158.768C199.744 158.371 200.679 157.678 201.371 156.77L200.783 156.341C199.803 157.475 199.087 158.812 198.688 160.257C198.537 160.845 198.54 161.462 198.696 162.049C198.851 162.636 199.155 163.173 199.577 163.609C199.824 163.898 200.132 164.128 200.478 164.285C200.824 164.441 201.2 164.52 201.58 164.515C202.103 164.444 202.331 164.248 202.324 164.227Z" fill="#263238"/>
<path d="M129.034 99.6626C129.034 99.6626 129.241 99.7777 129.663 99.8839C130.271 100.042 130.892 100.142 131.519 100.182C132.553 100.297 133.597 100.058 134.479 99.5052C135.028 99.126 135.464 98.6035 135.738 97.9945C135.903 97.6387 135.984 97.2492 135.973 96.8568C135.962 96.4644 135.86 96.08 135.675 95.734L135.363 96.2349C135.78 96.2665 136.198 96.2152 136.594 96.0838C136.99 95.9524 137.356 95.7437 137.671 95.4696C137.986 95.1956 138.243 94.8618 138.428 94.4875C138.613 94.1133 138.722 93.706 138.748 93.2894C138.774 92.8729 138.717 92.4552 138.58 92.0608C138.444 91.6664 138.23 91.303 137.952 90.9918C137.674 90.6806 137.337 90.4278 136.96 90.2479C136.583 90.0681 136.175 89.9649 135.758 89.9443L135.842 90.7665C136.662 90.5317 137.366 90.0027 137.82 89.2806C138.274 88.5586 138.446 87.6944 138.302 86.8537C138.133 85.9745 137.663 85.1814 136.974 84.6097C136.285 84.038 135.419 83.7231 134.523 83.7188C133.781 83.6787 133.04 83.8222 132.365 84.1368L132.852 84.8533C133.32 84.4252 133.684 83.8959 133.916 83.3057C134.149 82.7156 134.244 82.0802 134.193 81.4479C134.143 80.8155 133.949 80.203 133.626 79.657C133.304 79.111 132.861 78.6459 132.331 78.297C131.801 77.9482 131.199 77.7249 130.569 77.6442C129.94 77.5634 129.301 77.6273 128.7 77.831C128.1 78.0347 127.553 78.3729 127.103 78.8196C126.653 79.2664 126.311 79.8101 126.102 80.4092L126.652 80.2318C125.904 79.7712 125.043 79.5277 124.165 79.5286C123.286 79.5294 122.426 79.7746 121.679 80.2366C120.775 80.8329 120.119 81.7389 119.836 82.7844C119.553 83.8299 119.661 84.9428 120.14 85.9141C120.246 86.1842 120.423 86.4205 120.652 86.598C120.179 85.6585 119.993 84.6 120.118 83.5554C120.195 82.9769 120.402 82.4233 120.724 81.9367C121.046 81.4501 121.474 81.0432 121.977 80.7469C122.629 80.3742 123.37 80.1859 124.121 80.2019C124.872 80.2179 125.605 80.4376 126.241 80.8377L126.629 81.1005L126.786 80.6493C127.169 79.7762 127.882 79.0898 128.769 78.7397C129.656 78.3896 130.645 78.4042 131.521 78.7802C131.979 79.0458 132.369 79.4127 132.663 79.8527C132.957 80.2927 133.146 80.7943 133.216 81.3187C133.286 81.8432 133.234 82.3767 133.066 82.8783C132.898 83.3799 132.616 83.8363 132.244 84.2123L130.204 86.0846L132.727 84.9178C133.265 84.6622 133.859 84.5496 134.453 84.5907C135.143 84.5783 135.816 84.8068 136.356 85.237C136.896 85.6672 137.269 86.2721 137.411 86.9476C137.519 87.5766 137.4 88.2236 137.075 88.773C136.75 89.3225 136.241 89.7385 135.637 89.9468L132.133 90.7028L135.717 90.7581C136.051 90.7788 136.378 90.8669 136.677 91.017C136.976 91.1672 137.242 91.3762 137.458 91.6316C137.674 91.887 137.836 92.1835 137.935 92.5033C138.034 92.823 138.067 93.1595 138.032 93.4923C137.912 94.0844 137.585 94.6147 137.112 94.9898C136.638 95.3648 136.047 95.5604 135.443 95.5419L134.794 95.4848L135.117 96.0354C135.339 96.5679 135.367 97.1612 135.197 97.7124C135.027 98.2636 134.67 98.7381 134.187 99.0535C133.405 99.5653 132.482 99.8208 131.548 99.7846C129.945 99.7806 129.042 99.5751 129.034 99.6626Z" fill="#263238"/>
<path d="M131.131 168.806C130.847 168.752 119.927 167.924 122.462 178.401C124.997 188.877 135.034 184.118 134.971 183.811C134.908 183.504 131.131 168.806 131.131 168.806Z" fill="#FFBE9D"/>
<path d="M130.797 180.658C130.797 180.658 130.646 180.828 130.378 181.048C129.985 181.336 129.5 181.467 129.016 181.415C127.765 181.298 126.461 179.814 125.931 177.874C125.683 176.985 125.634 176.052 125.788 175.142C125.808 174.791 125.911 174.45 126.09 174.147C126.269 173.844 126.518 173.589 126.816 173.403C127.012 173.297 127.239 173.262 127.458 173.304C127.677 173.346 127.875 173.462 128.019 173.633C128.224 173.894 128.178 174.128 128.273 174.121C128.368 174.115 128.454 173.893 128.261 173.482C128.144 173.235 127.942 173.038 127.693 172.925C127.35 172.786 126.967 172.78 126.62 172.908C126.21 173.1 125.857 173.394 125.593 173.762C125.329 174.129 125.165 174.558 125.114 175.008C124.895 176.025 124.927 177.081 125.21 178.083C125.789 180.177 127.358 181.878 128.982 181.948C129.283 181.958 129.582 181.901 129.858 181.78C130.134 181.659 130.379 181.479 130.576 181.251C130.835 180.888 130.83 180.647 130.797 180.658Z" fill="#EB996E"/>
<path d="M163.024 176.8C163.307 176.276 163.712 175.829 164.204 175.494C164.696 175.159 165.261 174.946 165.851 174.874C166.442 174.802 167.041 174.873 167.599 175.079C168.157 175.286 168.658 175.624 169.059 176.064C169.384 176.431 169.63 176.862 169.781 177.329C169.932 177.796 169.984 178.289 169.935 178.777C169.837 179.455 169.534 180.087 169.068 180.589C168.602 181.091 167.993 181.439 167.324 181.586C166.648 181.706 165.952 181.613 165.332 181.32C164.711 181.027 164.197 180.549 163.86 179.951C163.203 178.744 162.307 177.359 163.251 176.375" fill="#EB996E"/>
<path d="M162.019 174.213C162.403 174.088 163.395 176.558 166.271 177.498C169.146 178.438 171.718 177.085 171.887 177.419C171.94 177.584 171.482 178.156 170.349 178.631C168.884 179.247 167.247 179.32 165.732 178.837C164.271 178.379 163.047 177.368 162.323 176.019C161.818 175.018 161.887 174.255 162.019 174.213Z" fill="#263238"/>
<path d="M134.294 219.65L140.89 216.221L181.268 207.024L197.426 209.157L201.86 210.152C201.86 210.152 193.824 235.192 178.506 238.927C163.189 242.661 130.458 229.673 130.458 229.673L128.084 222.736L134.294 219.65Z" fill="#FFBE9D"/>
<path d="M255.786 217.058L217.706 208.879C213.303 208.845 192.736 208.537 192.736 208.537C192.736 208.537 185.726 236.037 173.341 238.411C166.648 239.7 157.005 236.664 149.622 233.601C143.271 230.976 137.394 227.324 132.227 222.793L130.221 221.014C124.585 222.835 108.418 232.728 102.722 236.279C101.363 237.117 100.281 238.336 99.6077 239.784C97.3579 244.575 92.9754 253.731 93.7942 261.073C94.5721 268.101 95.9206 291.093 95.9206 291.093L252.327 235.233L255.786 217.058Z" fill="#AB2526"/>
<path d="M306.704 201.205C304.653 203.081 286.936 216.289 286.373 217.587C285.809 218.885 255.393 218.058 255.393 218.058L252.366 235.354L322.293 211.08L306.704 201.205Z" fill="#FFBE9D"/>
<path d="M125.646 254.4C125.547 254.432 124.809 253.275 123.232 251.698C121.143 249.666 118.74 247.984 116.115 246.717C113.481 245.471 110.763 244.411 107.981 243.545C106.81 243.224 105.667 242.811 104.561 242.309C105.763 242.477 106.948 242.752 108.102 243.13C110.947 243.889 113.715 244.912 116.369 246.187C119.049 247.464 121.472 249.223 123.516 251.375C124.126 252.029 124.676 252.737 125.158 253.49C125.373 253.762 125.538 254.07 125.646 254.4Z" fill="#263238"/>
<path d="M225.004 237.823C224.481 236.788 224.058 235.706 223.742 234.591C223.086 232.558 222.181 229.757 221.312 226.616C220.443 223.476 219.805 220.6 219.376 218.519C219.082 217.385 218.898 216.225 218.827 215.056C219.229 216.141 219.548 217.254 219.782 218.387C220.371 220.624 221.094 223.387 221.894 226.428C222.694 229.47 223.516 232.201 224.138 234.426C224.526 235.531 224.816 236.667 225.004 237.823Z" fill="#263238"/>
<path d="M140.031 229.638C140.031 229.638 140.004 229.78 139.903 230.031C139.755 230.404 139.57 230.761 139.349 231.096C138.567 232.349 137.503 233.403 136.243 234.174C134.366 235.355 132.165 235.913 129.952 235.769C128.648 235.664 127.377 235.303 126.212 234.708C124.995 234.131 123.837 233.401 122.586 232.834C120.254 231.741 117.599 231.552 115.136 232.305C113.113 232.917 111.334 234.15 110.05 235.828C109.17 236.957 108.519 238.247 108.134 239.626C107.866 240.598 107.82 241.171 107.758 241.167C107.733 241.028 107.728 240.887 107.744 240.747C107.774 240.35 107.829 239.955 107.908 239.565C108.298 237.762 109.156 236.094 110.394 234.727C111.633 233.36 113.209 232.343 114.965 231.778C117.569 230.942 120.392 231.122 122.869 232.282C124.163 232.871 125.324 233.612 126.498 234.167C127.598 234.734 128.795 235.088 130.027 235.211C131.791 235.34 133.559 235.017 135.163 234.271C136.767 233.526 138.155 232.383 139.194 230.952C139.76 230.15 139.958 229.601 140.031 229.638Z" fill="white"/>
<path d="M219.045 223.09C219.045 223.09 218.513 222.607 217.421 221.819C215.765 220.719 213.9 219.971 211.943 219.621C208.84 219.03 205.629 219.503 202.829 220.964C201.02 221.969 199.448 223.351 198.219 225.017C196.991 226.682 196.134 228.592 195.707 230.617C195.183 232.966 195.367 235.419 196.236 237.664C196.698 238.812 197.442 239.823 198.4 240.605C199.435 241.39 200.701 241.809 201.999 241.796C202.66 241.791 203.311 241.633 203.9 241.335C204.49 241.037 205.003 240.607 205.4 240.079C206.231 238.969 206.628 237.594 206.517 236.212C206.375 234.789 205.748 233.457 204.741 232.442C203.721 231.371 202.446 230.576 201.035 230.133C198.04 229.28 194.834 229.58 192.049 230.973C189.122 232.391 186.585 234.502 184.657 237.122C180.545 242.345 178.135 249.044 173.465 254.531C171.179 257.281 168.221 259.394 164.879 260.665C161.641 261.906 158.15 262.338 154.707 261.925C151.361 261.581 148.192 260.258 145.593 258.124C144.348 257.09 143.331 255.809 142.607 254.361C141.883 252.914 141.466 251.333 141.385 249.716C141.253 248.171 141.525 246.618 142.173 245.209C142.822 243.8 143.825 242.583 145.085 241.679C146.304 240.876 147.708 240.402 149.164 240.301C150.619 240.201 152.076 240.478 153.393 241.106C154.637 241.769 155.632 242.819 156.227 244.097C156.768 245.324 156.974 246.673 156.823 248.005C156.545 250.51 155.346 252.822 153.458 254.491C151.706 255.921 149.594 256.842 147.354 257.154C145.382 257.435 143.38 257.424 141.411 257.121C138.29 256.56 135.226 255.714 132.26 254.593C129.799 253.738 127.881 253.132 126.548 252.798C125.889 252.635 125.386 252.506 125.036 252.437C124.686 252.368 124.522 252.312 124.522 252.312C124.522 252.312 124.708 252.325 125.055 252.383C125.401 252.441 125.915 252.53 126.582 252.678C127.897 252.993 129.871 253.545 132.331 254.364C135.289 255.448 138.34 256.257 141.447 256.782C143.385 257.065 145.355 257.062 147.292 256.774C149.457 256.459 151.495 255.558 153.184 254.167C154.973 252.562 156.105 250.351 156.359 247.961C156.494 246.711 156.299 245.448 155.795 244.297C155.245 243.102 154.314 242.122 153.148 241.513C151.908 240.922 150.537 240.665 149.167 240.764C147.798 240.864 146.478 241.319 145.337 242.082C144.157 242.939 143.219 244.086 142.614 245.412C142.009 246.739 141.758 248.199 141.886 249.652C141.971 251.191 142.373 252.697 143.066 254.074C143.759 255.451 144.729 256.67 145.915 257.656C148.434 259.706 151.497 260.976 154.727 261.312C158.079 261.704 161.476 261.281 164.629 260.079C167.868 258.835 170.734 256.781 172.954 254.114C177.539 248.739 179.974 242.044 184.142 236.73C186.141 234.027 188.771 231.853 191.802 230.398C194.729 228.944 198.094 228.641 201.234 229.547C202.733 230.025 204.087 230.872 205.172 232.012C206.246 233.13 206.914 234.576 207.069 236.119C207.188 237.629 206.749 239.13 205.836 240.339C205.389 240.922 204.816 241.397 204.16 241.726C203.504 242.056 202.781 242.232 202.046 242.242C200.636 242.243 199.265 241.783 198.141 240.931C197.089 240.095 196.271 239.001 195.768 237.755C194.873 235.425 194.693 232.881 195.252 230.448C195.702 228.37 196.594 226.413 197.868 224.71C199.141 223.007 200.766 221.598 202.631 220.579C205.496 219.111 208.775 218.664 211.928 219.311C213.912 219.689 215.793 220.483 217.448 221.64C218.032 222.063 218.568 222.55 219.045 223.09Z" fill="white"/>
<path d="M241.011 213.872C241.043 214.211 241.022 214.553 240.95 214.886C240.816 215.811 240.585 216.719 240.26 217.596C239.784 218.898 239.127 220.127 238.31 221.247C237.312 222.619 236.142 223.857 234.829 224.931C232.433 226.892 229.577 228.211 226.531 228.764C225.615 228.923 224.687 229.004 223.758 229.005C223.416 229.036 223.072 229.003 222.743 228.908C222.712 228.809 224.19 228.841 226.444 228.343C229.379 227.696 232.121 226.366 234.446 224.46C236.804 222.599 238.666 220.184 239.868 217.432C240.734 215.307 240.894 213.849 241.011 213.872Z" fill="white"/>
<path d="M253.49 217.46C253.49 217.46 253.082 217.398 252.355 217.438C251.34 217.518 250.364 217.859 249.52 218.427C248.29 219.322 247.235 220.436 246.408 221.713C245.398 223.131 244.349 224.731 243.329 226.456C241.585 229.411 240.071 232.496 238.8 235.684C237.806 238.128 237.313 239.682 237.222 239.663C237.249 239.275 237.325 238.892 237.448 238.523C237.645 237.816 237.954 236.782 238.4 235.534C239.567 232.274 241.043 229.132 242.806 226.152C243.774 224.511 244.828 222.923 245.965 221.395C246.844 220.078 247.977 218.949 249.296 218.074C250.211 217.497 251.272 217.196 252.353 217.208C252.748 217.185 253.142 217.272 253.49 217.46Z" fill="white"/>
<path d="M202.766 210.102C202.503 210.745 202.101 211.322 201.589 211.792C199.296 214.262 196.167 215.792 192.809 216.084C192.122 216.199 191.418 216.161 190.747 215.974C193.02 215.725 195.243 215.134 197.339 214.221C199.347 213.132 201.178 211.743 202.766 210.102Z" fill="white"/>
<path d="M120.365 278.915C119.867 277.289 119.278 275.693 118.602 274.134C116.866 270.427 114.166 267.256 110.783 264.952C108.923 263.709 106.9 262.73 104.772 262.041C103.023 261.487 101.207 261.172 99.3733 261.103C97.6765 261.101 95.9814 261.211 94.299 261.432C94.7133 261.232 95.1532 261.09 95.6063 261.01C96.8421 260.746 98.1032 260.619 99.3667 260.632C101.247 260.644 103.116 260.927 104.916 261.472C107.118 262.151 109.208 263.153 111.117 264.444C114.604 266.79 117.351 270.082 119.035 273.933C119.537 275.09 119.926 276.294 120.195 277.526C120.31 277.98 120.367 278.446 120.365 278.915Z" fill="white"/>
<g opacity="0.3">
<path d="M129.76 269.765C128.688 269.392 127.534 269.319 126.423 269.554C125.312 269.789 124.287 270.323 123.457 271.098C122.761 271.759 122.227 272.587 121.498 273.222C121.158 273.567 120.73 273.813 120.261 273.934C119.792 274.056 119.299 274.049 118.834 273.913C118.052 273.596 117.592 272.774 116.911 272.278C115.634 271.368 113.827 271.745 112.447 272.507C111.149 273.381 109.751 274.097 108.283 274.64C106.743 274.836 105.188 274.888 103.638 274.794C101.901 274.91 100.232 275.515 98.824 276.539C97.4159 277.563 96.3258 278.963 95.6794 280.58L95.5616 289.304L133.711 274.822C133.572 273.7 133.132 272.637 132.436 271.746C131.74 270.856 130.815 270.171 129.76 269.765Z" fill="black"/>
</g>
<path d="M144.48 270.603C144.381 270.635 143.71 269.723 142.197 268.683C140.251 267.306 137.898 266.625 135.516 266.749C133.135 266.873 130.866 267.796 129.073 269.368C127.675 270.56 127.095 271.584 127.001 271.517C126.907 271.451 127.091 271.234 127.358 270.783C127.764 270.15 128.244 269.568 128.788 269.048C130.593 267.288 132.976 266.245 135.494 266.113C138.011 265.981 140.491 266.768 142.471 268.328C143.067 268.783 143.605 269.31 144.07 269.898C144.252 270.103 144.392 270.343 144.48 270.603Z" fill="white"/>
<g opacity="0.3">
<path d="M235.137 236.928C232.337 237.25 229.5 236.879 226.878 235.847C224.348 234.662 222.287 232.04 222.562 229.246C222.099 233.867 220.312 238.257 217.415 241.887C214.518 245.518 210.634 248.234 206.23 249.711L243.515 236.987C240.736 236.619 237.921 236.599 235.137 236.928Z" fill="black"/>
</g>
<path d="M161.364 157.876C160.945 156.99 160.476 156.129 159.96 155.296C158.474 153.081 156.287 151.429 153.75 150.605C151.888 149.998 149.904 149.868 147.978 150.225C146.053 150.582 144.248 151.415 142.727 152.649C140.926 154.096 139.6 156.05 138.921 158.258C138.175 160.624 138.205 163.166 139.007 165.513C139.809 167.86 141.341 169.89 143.378 171.304C144.333 171.989 145.392 172.515 146.515 172.863C147.584 173.213 148.7 173.401 149.824 173.42C151.465 173.449 153.093 173.136 154.606 172.502C156.119 171.868 157.484 170.926 158.614 169.736C159.743 168.546 160.613 167.135 161.168 165.591C161.723 164.047 161.951 162.405 161.837 160.768C161.729 159.796 161.571 158.831 161.364 157.876C161.748 158.788 161.986 159.755 162.071 160.741C162.341 163.479 161.66 166.226 160.144 168.522C159.02 170.235 157.478 171.636 155.665 172.591C153.851 173.546 151.825 174.024 149.775 173.982C147.352 173.941 144.996 173.182 143.005 171.801C140.861 170.316 139.25 168.183 138.407 165.715C137.564 163.247 137.534 160.574 138.321 158.088C139.053 155.778 140.454 153.738 142.347 152.226C144.052 150.859 146.093 149.977 148.257 149.674C150.556 149.354 152.898 149.703 155.004 150.679C157.109 151.656 158.889 153.219 160.129 155.181C160.68 156.008 161.097 156.918 161.364 157.876Z" fill="#455A64"/>
<path d="M189.757 148.158C189.336 147.274 188.867 146.413 188.353 145.579C186.866 143.364 184.676 141.716 182.136 140.902C180.404 140.329 178.562 140.172 176.758 140.443C174.692 140.759 172.746 141.618 171.12 142.932C170.237 143.634 169.467 144.468 168.837 145.404C168.162 146.363 167.649 147.426 167.318 148.552C166.559 150.916 166.582 153.463 167.385 155.813C168.188 158.163 169.727 160.192 171.775 161.598C172.729 162.279 173.787 162.802 174.908 163.146C175.974 163.508 177.091 163.696 178.217 163.703C180.175 163.748 182.113 163.302 183.854 162.405C185.595 161.508 187.083 160.188 188.181 158.567C189.686 156.361 190.407 153.715 190.23 151.051C190.124 150.079 189.966 149.113 189.757 148.158C190.141 149.075 190.377 150.047 190.457 151.038C190.738 153.771 190.059 156.517 188.537 158.804C187.415 160.52 185.875 161.923 184.062 162.88C182.249 163.837 180.222 164.317 178.172 164.275C176.993 164.264 175.823 164.073 174.701 163.71C173.522 163.351 172.408 162.806 171.401 162.095C169.267 160.61 167.666 158.48 166.831 156.018C165.996 153.556 165.973 150.891 166.764 148.415C167.123 147.236 167.668 146.122 168.38 145.115C169.047 144.144 169.854 143.278 170.777 142.545C172.489 141.185 174.534 140.306 176.7 140.001C178.997 139.682 181.338 140.03 183.443 141.005C185.547 141.979 187.327 143.538 188.57 145.497C189.101 146.317 189.501 147.215 189.757 148.158Z" fill="#455A64"/>
<path d="M138.17 163.293C137.16 164.524 135.958 165.584 134.611 166.433C133.379 167.428 131.999 168.226 130.521 168.797C131.679 167.73 132.934 166.772 134.268 165.937C135.49 164.944 136.796 164.059 138.17 163.293Z" fill="#455A64"/>
<path d="M167.268 152.378C165.964 152.607 164.683 152.956 163.443 153.419C162.287 154.069 161.195 154.828 160.183 155.685C160.792 154.402 161.874 153.405 163.203 152.902C164.437 152.202 165.896 152.014 167.268 152.378Z" fill="#455A64"/>
<path d="M149.018 171.521C148.345 171.667 147.647 171.638 146.989 171.437C145.363 171.089 143.86 170.308 142.641 169.177C141.422 168.047 140.53 166.607 140.061 165.012C139.804 164.376 139.718 163.684 139.813 163.005C139.901 162.977 140.051 163.741 140.423 164.895C140.98 166.365 141.872 167.686 143.029 168.751C144.186 169.815 145.576 170.595 147.088 171.029C148.256 171.379 149.022 171.423 149.018 171.521Z" fill="white"/>
<path d="M177 161.585C176.366 161.712 175.71 161.673 175.095 161.472C173.568 161.123 172.158 160.382 171.004 159.324C169.864 158.255 169.013 156.914 168.532 155.427C168.28 154.831 168.187 154.18 168.261 153.537C168.521 154.101 168.745 154.681 168.931 155.274C169.502 156.636 170.357 157.861 171.439 158.868C172.529 159.861 173.821 160.607 175.227 161.053C175.828 161.195 176.42 161.372 177 161.585Z" fill="white"/>
<path d="M50.2757 303.253C50.2757 303.253 104.412 480.841 167.169 591.78L470.88 492.633L295.707 222.41L50.2757 303.253Z" fill="#E0E0E0"/>
<path d="M50.2762 303.253L295.633 222.179L295.809 222.122L295.917 222.269C345.799 299.211 406.008 392.047 471.13 492.468L471.346 492.798L470.973 492.919L446.828 500.803L167.251 592.033L167.043 592.1L166.979 591.903C164.188 586.77 161.437 581.694 158.723 576.674C157.385 574.146 155.98 571.676 154.704 569.152C153.428 566.628 152.192 564.116 150.937 561.622C148.445 556.611 145.979 551.669 143.54 546.795C141.232 541.879 138.947 536.996 136.684 532.146C135.56 529.743 134.44 527.351 133.323 524.97C132.213 522.586 131.184 520.189 130.129 517.824C128.036 513.073 125.971 508.394 123.933 503.787C121.854 499.193 119.999 494.575 118.08 490.063C116.162 485.551 114.312 481.101 112.476 476.732C98.0424 441.588 86.5614 410.477 77.4143 384.751C68.2673 359.025 61.5533 338.616 57.0391 324.678C54.7857 317.702 53.061 312.363 51.974 308.734C51.392 306.933 50.9739 305.563 50.7198 304.626C50.4394 303.758 50.3152 303.374 50.2762 303.253C50.4465 303.78 52.6999 310.756 57.1819 324.632C61.6639 338.507 68.5274 358.929 77.6854 384.651C86.8435 410.374 98.4528 441.432 112.861 476.571C114.708 480.937 116.583 485.39 118.476 489.899C120.369 494.407 122.258 499.014 124.336 503.608C126.414 508.202 128.452 512.894 130.551 517.627C131.606 519.992 132.635 522.389 133.745 524.773C134.854 527.156 135.978 529.547 137.106 531.949C139.369 536.775 141.656 541.653 143.969 546.584C146.417 551.459 148.875 556.403 151.374 561.396C152.631 563.885 153.89 566.394 155.152 568.923C156.417 571.45 157.833 573.917 159.167 576.434C161.888 581.451 164.639 586.524 167.419 591.651L167.114 591.531L446.662 500.214L470.81 492.341L470.649 492.781C405.571 392.346 345.388 299.477 295.531 222.539L295.815 222.63L50.2762 303.253Z" fill="#263238"/>
<path d="M50.2757 303.253C50.2757 303.253 57.5426 326.614 74.8757 366.79C86.3511 393.414 97.6873 429.486 119.786 473.036C166.491 565.041 179.356 577.264 179.356 577.264L475.219 479.475L303.211 216.758L50.2757 303.253Z" fill="#EBEBEB"/>
<path d="M50.2758 303.253L303.133 216.517L303.32 216.456L303.377 216.632C352.724 291.806 411.833 382.097 475.538 479.373L475.754 479.703L475.392 479.82L459.267 485.15L179.434 577.506L179.325 577.542L179.216 577.431C177.334 575.276 175.594 573.001 174.008 570.621C172.39 568.317 170.864 565.958 169.326 563.64C167.789 561.322 166.354 558.947 164.92 556.571C163.485 554.196 162.09 551.868 160.703 549.526C155.167 540.176 149.952 530.942 145.057 521.822C135.161 503.581 126.135 486.078 117.8 469.553C113.66 461.281 109.873 453.163 106.314 445.262C102.755 437.361 99.5586 429.682 96.5646 422.254C90.5511 407.393 85.4258 393.592 80.5574 381.224C78.1434 375.028 75.7111 369.226 73.3704 363.782C71.0297 358.339 68.9125 353.211 66.9672 348.429C63.0622 338.856 59.8928 330.659 57.4177 323.973C54.9425 317.287 53.1321 312.133 51.9562 308.643C51.3884 306.885 50.959 305.556 50.6716 304.666C50.3841 303.776 50.2386 303.326 50.2386 303.326C50.3202 303.578 50.8419 305.193 52.0295 308.607C53.2172 312.021 55.0633 317.248 57.5679 323.912C60.0725 330.577 63.2674 338.778 67.1908 348.332C69.1471 353.111 71.2899 358.243 73.627 363.675C75.9642 369.108 78.411 374.917 80.836 381.11C85.7299 393.481 90.8771 407.275 96.9055 422.107C99.9104 429.532 103.168 437.199 106.677 445.108C110.185 453.001 113.983 461.116 118.156 469.377C126.498 485.888 135.532 503.376 145.446 521.6C150.385 530.729 155.612 539.988 161.128 549.376C162.504 551.722 163.866 554.097 165.345 556.422C166.823 558.747 168.247 561.126 169.751 563.491C171.255 565.856 172.778 568.167 174.432 570.471C175.998 572.809 177.713 575.043 179.565 577.16L179.303 577.1L459.089 484.637L475.214 479.307L475.056 479.759C411.355 382.421 352.24 292.108 303.046 216.885L303.333 216.986L50.2758 303.253Z" fill="#263238"/>
<path d="M334.465 221.792L55.0852 317.314C78.5087 393.885 143.747 504.132 183.615 560.323L477.438 462.004C421.361 391.613 357.224 311.705 334.465 221.792Z" fill="#F5F5F5"/>
<path d="M334.464 221.792C334.546 222.045 335.018 223.506 335.9 226.727C336.422 228.342 336.951 230.391 337.647 232.811C338.344 235.231 339.044 238.074 340.187 241.163C342.356 247.39 344.803 255.152 348.507 263.953C349.395 266.174 350.313 268.478 351.262 270.864C352.287 273.214 353.397 275.634 354.52 278.135C355.643 280.635 356.813 283.205 358.008 285.852C359.203 288.5 360.62 291.16 361.971 293.914C363.321 296.669 364.759 299.504 366.214 302.395C367.67 305.285 369.352 308.163 370.974 311.158C372.596 314.152 374.222 317.23 376.033 320.285C377.845 323.339 379.685 326.482 381.568 329.683C382.521 331.28 383.459 332.906 384.451 334.515L387.502 339.377C389.567 342.641 391.666 345.97 393.798 349.366C395.93 352.762 398.193 356.16 400.585 359.561C401.738 361.288 402.919 363.029 404.078 364.778L407.724 370.018C427.231 398.294 451.23 428.759 477.64 461.842L477.867 462.132L477.516 462.246L193.433 557.37L183.688 560.627L183.468 560.698L183.349 560.518C168.842 539.908 155.393 519.041 142.804 498.285C130.215 477.529 118.381 456.893 107.45 436.499C96.5193 416.105 86.4695 395.96 77.5162 376.092C68.7456 357.015 61.1623 337.415 54.8096 317.403L54.7316 317.161L54.9733 317.083L334.431 221.803L55.1439 317.574L55.3076 317.254C61.6651 337.241 69.2523 356.816 78.0257 375.867C86.9685 395.702 97.0037 415.839 107.968 436.223C118.932 456.606 130.693 477.241 143.311 497.976C155.929 518.711 169.342 539.577 183.831 560.168L183.492 560.059L193.249 556.798L477.37 461.795L477.246 462.2C450.858 429.109 426.881 398.601 407.389 370.296C406.165 368.532 404.954 366.776 403.74 365.045C402.526 363.314 401.396 361.544 400.255 359.813L393.478 349.615C391.351 346.21 389.255 342.875 387.19 339.611C386.164 337.977 385.153 336.35 384.139 334.749C383.124 333.148 382.216 331.5 381.274 329.899C379.391 326.698 377.543 323.57 375.736 320.49C373.928 317.41 372.332 314.31 370.684 311.349C369.036 308.387 367.446 305.455 365.946 302.579L361.72 294.116C360.377 291.347 358.952 288.702 357.769 286.051C356.585 283.4 355.419 280.805 354.296 278.304C353.172 275.804 352.074 273.38 351.059 271.027C350.044 268.673 349.19 266.329 348.316 264.112C344.634 255.268 342.198 247.501 340.062 241.3C338.937 238.194 338.292 235.369 337.573 232.956C336.854 230.544 336.329 228.505 335.874 226.869C334.959 223.549 334.535 222.048 334.464 221.792Z" fill="#263238"/>
<path d="M330.406 207.464L50.2757 303.253C73.6957 379.813 108.795 445.77 148.681 501.98L246.237 526.058L480.885 445.822C424.779 375.416 353.165 297.377 330.406 207.464Z" fill="#FAFAFA"/>
<path d="M330.407 207.464C330.488 207.717 330.901 209.221 331.802 212.461C332.254 214.123 332.815 216.198 333.581 218.607C334.348 221.017 335.154 223.85 336.286 226.979C342.51 245.165 350.265 262.791 359.468 279.667C371.214 301.569 387.644 326.968 408.463 354.651C418.849 368.512 430.288 382.967 442.513 398.09C454.738 413.213 467.76 428.964 481.073 445.652L481.301 445.943L480.949 446.057L246.326 526.332L246.239 526.361L246.173 526.382L203.977 515.942L148.675 502.261L148.569 502.235L148.537 502.136C125.977 470.365 106.045 436.809 88.9385 401.799C73.4793 370.021 60.5065 337.093 50.1367 303.31L50.0587 303.068L50.3004 302.99L330.513 207.454L50.471 303.481L50.6347 303.161C60.9881 336.891 73.9292 369.772 89.3428 401.511C106.44 436.486 126.358 470.011 148.899 501.752L148.728 501.637L204.03 515.318L246.229 525.769L246.076 525.819L480.727 445.631L480.613 446.032C467.311 429.339 454.293 413.563 442.09 398.433C429.887 383.302 418.444 368.836 408.066 354.961C387.272 327.246 370.865 301.803 359.156 279.865C349.941 262.975 342.208 245.319 336.044 227.093C334.934 223.958 334.117 221.128 333.394 218.704C332.672 216.281 332.107 214.267 331.655 212.569C330.905 209.232 330.477 207.721 330.407 207.464Z" fill="#263238"/>
<path d="M148.901 501.872L217.991 471.063L246.201 526.057L148.901 501.872Z" fill="#E0E0E0"/>
<path d="M246.202 526.058C246.137 525.977 246.084 525.888 246.043 525.793C245.969 525.562 245.781 525.32 245.591 524.993L243.933 521.889C242.491 519.115 240.428 515.171 237.875 510.27C232.772 500.368 225.696 486.651 217.727 471.221L218.124 471.36L211.686 474.228L167.183 493.978L153.674 499.894L149.99 501.485L149.026 501.881L148.685 501.991C148.78 501.921 148.884 501.863 148.993 501.819L149.94 501.367L153.581 499.682L167.007 493.586L211.45 473.685L217.877 470.821L218.152 470.732L218.237 470.996C226.121 486.465 233.117 500.16 238.164 510.152C240.641 515.078 242.656 519.062 244.054 521.85C244.718 523.204 245.237 524.25 245.613 524.986L246.003 525.818C246.084 525.884 246.152 525.966 246.202 526.058Z" fill="#263238"/>
<path d="M303.196 303.995C303.245 304.149 265.541 317.189 218.988 333.112C172.436 349.035 134.62 361.808 134.571 361.654C134.521 361.5 172.215 348.463 218.793 332.544C265.371 316.625 303.146 303.841 303.196 303.995Z" fill="#263238"/>
<path d="M316.465 328.887C316.515 329.041 278.81 342.081 232.247 358.008C185.683 373.934 147.89 386.7 147.84 386.546C147.791 386.392 185.484 373.355 232.059 357.425C278.633 341.496 316.404 328.737 316.465 328.887Z" fill="#263238"/>
<path d="M335.579 351.781C335.629 351.935 297.924 364.976 251.368 380.888C204.813 396.799 167.004 409.594 166.955 409.441C166.905 409.287 204.599 396.25 251.173 380.32C297.747 364.39 335.526 351.616 335.579 351.781Z" fill="#263238"/>
<path d="M356.314 378.035C356.367 378.2 318.659 391.23 272.107 407.152C225.554 423.075 187.742 435.859 187.689 435.694C187.636 435.53 225.337 422.515 271.911 406.585C318.485 390.655 356.264 377.881 356.314 378.035Z" fill="#263238"/>
<path d="M377.871 401.73C377.92 401.884 340.216 414.924 293.66 430.836C247.104 446.748 209.295 459.543 209.246 459.389C209.196 459.236 246.89 446.198 293.464 430.269C340.038 414.339 377.817 401.565 377.871 401.73Z" fill="#263238"/>
<path d="M61.3322 299.621C61.3322 299.621 63.1393 293.76 64.6513 292.131C66.1634 290.502 68.6909 289.613 70.1893 290.233L71.6732 290.845C71.6732 290.845 76.5838 286.141 80.1048 287.163C80.1048 287.163 84.6893 282.577 88.4563 284.623C88.4563 284.623 91.7494 280.32 94.4236 282.101C97.0978 283.882 98.3875 288.1 98.2484 290.487C98.1094 292.873 99.0404 300.713 97.8082 301.293C97.8082 301.293 94.5187 302.865 93.4171 301.183C92.3156 299.501 91.7939 298.674 91.7939 298.674C91.7939 298.674 92.8245 305.621 91.3554 306.556C89.8863 307.492 86.83 308.321 85.7099 305.492C85.7099 305.492 85.0134 308.144 83.3713 308.056C81.7292 307.967 79.5609 307.527 79.1253 305.69C78.6897 303.853 78.0418 302.073 78.0418 302.073C78.0418 302.073 78.1794 304.94 76.6908 304.839C75.2021 304.737 73.9444 305.313 72.4473 303.383C70.9501 301.452 67.545 297.784 67.545 297.784L61.3322 299.621Z" fill="#FFBE9D"/>
<path d="M77.8888 301.977C77.8009 302.005 77.8963 301.174 77.7838 299.924C77.6606 298.307 77.1747 296.739 76.3623 295.336C75.5499 293.933 74.4318 292.731 73.0911 291.819C72.0609 291.108 71.3335 290.809 71.3635 290.715C71.3936 290.62 72.1841 290.814 73.3171 291.467C74.8014 292.32 76.0352 293.549 76.8947 295.031C77.7524 296.512 78.211 298.191 78.2258 299.902C78.2855 300.611 78.1698 301.323 77.8888 301.977Z" fill="#EB996E"/>
<path d="M80.485 287.065C81.1493 287.75 81.708 288.531 82.1428 289.38C84.472 293.364 85.7422 297.878 85.8324 302.492C85.9074 303.439 85.8345 304.392 85.6162 305.316C85.4694 302.127 85.011 298.959 84.2476 295.858C83.2815 292.812 82.0214 289.867 80.485 287.065Z" fill="#EB996E"/>
<path d="M88.6239 284.654C90.9008 289.027 92.0264 293.908 91.8945 298.836C91.7297 298.889 91.4867 295.583 90.5774 291.679C89.6682 287.775 88.4552 284.733 88.6239 284.654Z" fill="#EB996E"/>
<path d="M112.132 277.958C111.883 277.724 111.585 277.549 111.26 277.444C110.934 277.339 110.589 277.308 110.251 277.353C109.447 277.452 108.68 277.743 108.013 278.202C107.346 278.66 106.799 279.272 106.418 279.986C105.675 281.424 105.167 282.973 104.915 284.572L112.935 281.909C112.396 280.615 113.007 278.974 112.132 277.958Z" fill="#FFBE9D"/>
<path d="M505.976 455.14C505.863 455.091 506.772 453.135 507.665 449.814C508.176 447.862 508.54 445.875 508.753 443.869C509.285 438.955 508.913 433.985 507.656 429.204C507.145 427.265 506.484 425.37 505.679 423.534C504.296 420.341 503.1 418.592 503.21 418.52C503.539 418.903 503.831 419.317 504.082 419.755C504.418 420.24 504.723 420.745 504.995 421.268C505.326 421.877 505.728 422.56 506.068 423.348C506.935 425.195 507.648 427.112 508.198 429.078C508.853 431.49 509.288 433.956 509.498 436.446C509.668 438.942 509.617 441.447 509.344 443.933C509.099 445.961 508.687 447.964 508.113 449.924C507.89 450.773 507.591 451.5 507.366 452.155C507.168 452.714 506.94 453.262 506.682 453.795C506.494 454.267 506.257 454.717 505.976 455.14Z" fill="#263238"/>
<path d="M491.102 466.859C491.015 466.815 491.984 465.119 493.248 462.235C496.465 454.732 497.858 446.574 497.314 438.429C497.11 435.316 496.759 433.403 496.898 433.383C497.037 433.836 497.13 434.301 497.177 434.773C497.426 435.99 497.605 437.22 497.712 438.458C498.488 446.683 497.074 454.967 493.615 462.469C493.099 463.602 492.519 464.704 491.879 465.771C491.67 466.167 491.408 466.533 491.102 466.859Z" fill="#263238"/>
<path d="M390.446 305.436C407.97 289.479 409.239 262.338 393.282 244.815C377.326 227.292 350.185 226.022 332.661 241.979C315.138 257.936 313.868 285.077 329.825 302.6C345.782 320.123 372.923 321.393 390.446 305.436Z" fill="#AB2526"/>
<path d="M355.951 259.765C359.171 269.183 362.391 278.601 365.611 288.019C366.816 291.524 372.313 289.761 371.104 286.245C367.892 276.824 364.672 267.406 361.444 257.991C360.25 254.482 354.754 256.246 355.951 259.765Z" fill="white"/>
<path d="M349.307 280.923L379.535 270.576C383.061 269.437 381.298 263.941 377.76 265.083L347.532 275.43C344.023 276.624 345.787 282.121 349.307 280.923Z" fill="white"/>
<g opacity="0.3">
<path d="M356.139 231.012C347.872 231.939 340.091 235.388 333.852 240.892C336.271 243.068 338.88 245.023 341.648 246.733C344.05 248.311 347.352 249.743 349.625 247.954C350.169 247.375 350.811 246.897 351.522 246.54C352.686 246.164 353.839 247.066 354.803 247.834C357.376 249.876 360.304 251.427 363.439 252.409C365.128 252.943 367.449 253.03 368.15 251.409C368.406 250.564 368.358 249.657 368.014 248.844C366.082 242.565 360.765 235.681 356.139 231.012Z" fill="black"/>
</g>
<path d="M306.704 201.205L312.657 197.098C315.051 195.521 317.775 194.516 320.62 194.158C323.464 193.801 326.352 194.102 329.062 195.038C333.513 196.573 338.337 198.4 340.107 199.672L348.206 205.439C349.095 206.049 349.828 206.86 350.344 207.806C350.861 208.753 351.146 209.808 351.178 210.885C351.237 211.34 351.137 211.8 350.896 212.19L349.833 215.736C349.833 215.736 351.846 219.939 352.773 222.733C353.7 225.527 352.519 231.186 352.519 231.186L362.567 244.04C363.039 244.622 363.328 245.33 363.399 246.076C363.469 246.822 363.317 247.572 362.962 248.231C362.879 248.43 362.755 248.61 362.6 248.761C362.445 248.911 362.262 249.028 362.06 249.106C361.859 249.183 361.643 249.219 361.428 249.212C361.212 249.204 361 249.153 360.804 249.062C358.159 248.048 348.728 237.967 348.728 237.967L345.707 236.128L342.419 236.353C342.419 236.353 344.388 240.57 342.691 242.077L332.003 237.571L321.983 228.675C321.983 228.675 316.953 213.703 313.986 210.075L306.704 201.205Z" fill="#FFBE9D"/>
<path d="M344.86 220.958C348.238 223.67 350.863 227.204 352.482 231.222C352.317 231.276 350.953 228.78 348.855 225.964C346.756 223.148 344.745 221.092 344.86 220.958Z" fill="#EB996E"/>
<path d="M347.526 212.647C347.677 212.514 348.757 213.754 349.653 215.478C350.323 216.466 350.803 217.57 351.069 218.734C350.276 217.854 349.622 216.858 349.132 215.78C348.509 214.783 347.972 213.735 347.526 212.647Z" fill="#EB996E"/>
<path d="M350.854 240.192C349.878 239.448 348.947 238.647 348.065 237.793C346.363 236.28 343.987 234.258 341.284 232.086C339.936 230.992 338.627 229.983 337.434 229.071C336.428 228.239 335.295 227.573 334.079 227.097C332.938 226.731 331.716 226.705 330.56 227.02C330.822 226.804 331.138 226.665 331.473 226.616C332.383 226.419 333.328 226.461 334.218 226.737C335.507 227.17 336.711 227.824 337.778 228.668C339 229.56 340.319 230.565 341.678 231.655C344.382 233.827 346.702 235.94 348.367 237.526C349.289 238.323 350.122 239.217 350.854 240.192Z" fill="#EB996E"/>
<path d="M332.946 227.645C333.034 227.617 333.402 228.456 334.271 229.643C335.402 231.181 336.852 232.455 338.523 233.378C339.511 233.816 340.455 234.348 341.341 234.967C342.065 235.543 342.609 236.314 342.908 237.19C343.233 237.948 343.371 238.774 343.31 239.596C343.211 239.628 343.077 238.689 342.513 237.354C342.197 236.584 341.678 235.913 341.012 235.413C340.126 234.83 339.194 234.319 338.226 233.886C336.473 232.933 334.991 231.55 333.919 229.867C333.431 229.209 333.099 228.449 332.946 227.645Z" fill="#EB996E"/>
<path d="M316.954 215.619C316.789 215.673 316.109 213.005 314.593 210C313.076 206.996 311.509 204.736 311.74 204.625C312.187 205.025 312.579 205.481 312.907 205.983C313.76 207.167 314.507 208.424 315.139 209.739C316.13 211.559 316.747 213.558 316.954 215.619Z" fill="#EB996E"/>
</svg>
