<svg width="60" height="74" viewBox="0 0 60 74" fill="none" xmlns="http://www.w3.org/2000/svg">
<path d="M4.46792 47.8388C10.9208 54.4027 20.5286 64.0105 20.5286 64.0105L42.9547 41.5843C42.9547 41.5843 43.4771 41.087 43.7838 40.7421C44.1276 40.3556 44.3742 40.1662 44.6065 39.704C44.8071 39.3047 44.8714 39.0499 44.9329 38.6072C44.989 38.2032 44.9646 37.9693 44.9329 37.5626C44.9055 37.2107 44.8521 37.0127 44.7501 36.6747C44.6536 36.3547 44.6147 36.1782 44.4432 35.8913C44.2926 35.6391 44.1931 35.5049 43.9993 35.2841C43.7851 35.0401 43.6372 34.929 43.3921 34.7161C43.1787 34.5307 43.0655 34.4165 42.8307 34.2591C42.4755 34.021 42.2559 33.9003 41.8448 33.7825C41.5179 33.6889 41.3229 33.6699 40.983 33.6585C40.5395 33.6436 40.2814 33.6649 39.8536 33.7825C39.3917 33.9095 39.1374 34.032 38.7437 34.3048C38.4483 34.5094 38.0582 34.9185 38.0582 34.9185L29.4925 43.4646C29.4925 43.4646 28.3173 44.6072 27.4621 45.2078C26.7922 45.6782 26.3992 45.9265 25.6601 46.2785C25.101 46.5447 24.7761 46.6758 24.1846 46.8595C23.6047 47.0397 23.2733 47.1425 22.67 47.2121C22.0621 47.2822 21.6385 47.2121 21.1031 47.2121C20.5677 47.2121 20.0574 47.2773 19.3926 47.2121C18.7014 47.1442 18.3211 47.0361 17.6494 46.8595C16.946 46.6746 16.5603 46.536 15.8801 46.2785C15.2818 46.0519 14.9247 45.9608 14.372 45.6387C14.0004 45.4221 13.8155 45.2629 13.471 45.0054L13.4389 44.9813C12.8338 44.529 12.4813 44.2655 11.9368 43.7257C11.3766 43.1705 11.0937 42.8237 10.631 42.185C10.2538 41.6643 10.0535 41.361 9.74965 40.7943C9.49623 40.3218 9.38855 40.0392 9.17513 39.5474C8.95707 39.0448 8.80861 38.7713 8.6463 38.2481C8.48315 37.7223 8.4077 37.4177 8.34598 36.8706C8.27824 36.2701 8.24805 35.9275 8.24805 35.3233C8.24805 34.7088 8.28794 34.3616 8.34598 33.7499C8.4046 33.1321 8.6463 32.1895 8.6463 32.1895C8.6463 32.1895 8.87699 31.2557 9.10984 30.6879C9.31923 30.1773 9.74965 29.4278 9.74965 29.4278C9.74965 29.4278 10.0804 28.7725 10.3503 28.3898C10.583 28.0598 11.0097 27.5933 11.0097 27.5933L31.0855 7.49136L31.8689 6.68833C31.8689 6.68833 32.2038 5.98157 32.3586 5.50663C32.5035 5.06216 32.6026 4.81001 32.6459 4.34452C32.6886 3.88432 32.6785 3.61453 32.5806 3.16282C32.5063 2.82003 32.4397 2.62977 32.2868 2.31409C32.1237 1.9774 31.9996 1.80201 31.7645 1.51106C31.5038 1.18856 31.3485 1.00221 31.0072 0.766786C30.7237 0.571289 30.5385 0.498786 30.2172 0.375063C29.891 0.249482 29.6973 0.206172 29.3554 0.1335C29.0101 0.060106 28.8138 0.0117705 28.461 0.00292615C28.0348 -0.00775467 27.7838 0.00550643 27.3772 0.1335C26.9033 0.282667 26.6815 0.482842 26.2738 0.766786C25.9967 0.959772 25.5948 1.30214 25.5948 1.30214C25.5948 1.30214 12.3597 14.0462 6.52447 20.1505C5.41285 21.3134 4.49773 22.4095 3.94563 23.1864C3.00831 24.5054 1.79115 26.8229 1.79115 26.8229C1.79115 26.8229 1.15786 28.5748 0.903242 29.3691C0.648622 30.1634 0.325454 31.2151 0.178555 32.4376C0.0222037 33.7387 -0.0419796 34.4847 0.0284423 35.7933C0.113854 37.3805 0.201517 38.2653 0.524617 39.8216C0.804969 41.1719 1.12414 41.9483 1.63446 43.2296C2.09899 44.3959 2.3944 45.0508 3.09036 46.0957C3.57136 46.8178 3.85965 47.2201 4.46792 47.8388Z" fill="#AB2526"/>
<path d="M55.4422 25.1875C48.9296 18.6749 39.3816 9.01591 39.3816 9.01591L16.9555 31.442C16.9555 31.442 16.433 31.9394 16.1263 32.2842C15.7826 32.6707 15.5359 32.8601 15.3037 33.3223C15.103 33.7216 15.0387 33.9765 14.9773 34.4191C14.9211 34.8232 14.9456 35.057 14.9773 35.4637C15.0047 35.8157 15.0581 36.0137 15.16 36.3516C15.2565 36.6716 15.2955 36.8482 15.4669 37.1351C15.6176 37.3872 15.7171 37.5215 15.9109 37.7423C16.125 37.9863 16.2729 38.0973 16.518 38.3103C16.7315 38.4957 16.8447 38.6098 17.0795 38.7673C17.4347 39.0054 17.6542 39.1261 18.0653 39.2439C18.3922 39.3375 18.5873 39.3565 18.9271 39.3679C19.3706 39.3828 19.6287 39.3615 20.0566 39.2439C20.5185 39.1169 20.7727 38.9944 21.1665 38.7216C21.4618 38.5169 21.852 38.1079 21.852 38.1079L30.4177 29.5618C30.4177 29.5618 31.5929 28.4192 32.4481 27.8186C33.118 27.3482 33.511 27.0999 34.25 26.7479C34.8091 26.4816 35.1341 26.3506 35.7255 26.1668C36.3055 25.9867 36.6368 25.8838 37.2402 25.8143C37.8481 25.7442 38.2717 25.8143 38.8071 25.8143C39.3424 25.8143 39.8528 25.749 40.5176 25.8143C41.2088 25.8821 41.5891 25.9903 42.2608 26.1668C42.9641 26.3518 43.3499 26.4904 44.03 26.7479C44.6284 26.9744 44.9854 27.0655 45.5382 27.3877C45.9097 27.6043 46.0947 27.7635 46.4391 28.021L46.4713 28.045C47.0764 28.4974 47.4289 28.7609 47.9734 29.3006C48.5335 29.8559 48.8164 30.2027 49.2791 30.8414C49.6563 31.3621 49.8566 31.6654 50.1605 32.232C50.4139 32.7045 50.5216 32.9871 50.735 33.479C50.9531 33.9815 51.1015 34.255 51.2639 34.7782C51.427 35.3041 51.5025 35.6086 51.5642 36.1558C51.6319 36.7562 51.6621 37.0988 51.6621 37.7031C51.6621 38.3175 51.6222 38.6648 51.5642 39.2765C51.5056 39.8943 51.2639 40.8369 51.2639 40.8369C51.2639 40.8369 51.0332 41.7706 50.8003 42.3385C50.5909 42.8491 50.1605 43.5985 50.1605 43.5985C50.1605 43.5985 49.8298 44.2538 49.5599 44.6366C49.3271 44.9666 48.9005 45.4331 48.9005 45.4331L28.8247 65.535L28.0412 66.338C28.0412 66.338 27.7064 67.0448 27.5516 67.5197C27.4067 67.9642 27.3076 68.2164 27.2643 68.6818C27.2215 69.142 27.2317 69.4118 27.3296 69.8635C27.4039 70.2063 27.4705 70.3966 27.6234 70.7123C27.7864 71.049 27.9105 71.2244 28.1457 71.5153C28.4063 71.8378 28.5616 72.0242 28.903 72.2596C29.1865 72.4551 29.3716 72.5276 29.693 72.6513C30.0192 72.7769 30.2129 72.8202 30.5548 72.8929C30.9001 72.9663 31.0963 73.0146 31.4492 73.0234C31.8754 73.0341 32.1263 73.0209 32.533 72.8929C33.0069 72.7437 33.2286 72.5435 33.6363 72.2596C33.9134 72.0666 34.3153 71.7242 34.3153 71.7242C34.3153 71.7242 47.5505 58.9802 53.3857 52.8758C54.4973 51.7129 55.4124 50.6169 55.9645 49.84C56.9018 48.521 58.119 46.2035 58.119 46.2035C58.119 46.2035 58.7523 44.4516 59.0069 43.6573C59.2615 42.8629 59.5847 41.8113 59.7316 40.5888C59.888 39.2876 59.9521 38.5416 59.8817 37.233C59.7963 35.6459 59.7086 34.7611 59.3855 33.2048C59.1052 31.8544 58.786 31.0781 58.2757 29.7968C57.8112 28.6305 57.5158 27.9756 56.8198 26.9307C56.3388 26.2086 56.0558 25.8011 55.4422 25.1875Z" fill="#AB2526"/>
</svg>
