<svg width="595" height="842" viewBox="0 0 595 842" fill="none" xmlns="http://www.w3.org/2000/svg">
<g clip-path="url(#clip0_2225_13351)">
<rect width="595" height="842" fill="#FAFAFA"/>
<path d="M-168.516 729.714C-101.38 798.004 -1.4212 897.964 -1.4212 897.964L231.9 664.642C231.9 664.642 237.335 659.468 240.526 655.88C244.103 651.859 246.669 649.889 249.085 645.08C251.172 640.926 251.841 638.274 252.481 633.669C253.065 629.465 252.811 627.032 252.481 622.801C252.196 619.139 251.64 617.079 250.58 613.563C249.576 610.234 249.17 608.397 247.387 605.412C245.819 602.789 244.784 601.392 242.768 599.095C240.54 596.556 239.001 595.401 236.451 593.186C234.23 591.257 233.053 590.069 230.609 588.431C226.914 585.954 224.63 584.698 220.353 583.473C216.952 582.498 214.922 582.301 211.387 582.182C206.773 582.027 204.087 582.249 199.636 583.473C194.83 584.793 192.185 586.068 188.089 588.907C185.016 591.035 180.956 595.291 180.956 595.291L91.8393 684.205C91.8393 684.205 79.6128 696.092 70.7147 702.341C63.7454 707.235 59.6563 709.819 51.9676 713.48C46.1506 716.251 42.7696 717.614 36.6166 719.526C30.5825 721.4 27.1351 722.47 20.8581 723.194C14.5337 723.923 10.1261 723.194 4.55617 723.194C-1.01371 723.194 -6.32344 723.872 -13.2401 723.194C-20.4314 722.488 -24.3875 721.363 -31.376 719.526C-38.6936 717.602 -42.7075 716.16 -49.7835 713.48C-56.0084 711.123 -59.7236 710.176 -65.4741 706.824C-69.3398 704.57 -71.2641 702.914 -74.8477 700.235L-75.1824 699.985C-81.4773 695.279 -85.1447 692.537 -90.81 686.922C-96.6379 681.145 -99.581 677.537 -104.395 670.892C-108.319 665.474 -110.403 662.319 -113.565 656.424C-116.201 651.508 -117.322 648.567 -119.542 643.45C-121.811 638.222 -123.355 635.376 -125.044 629.933C-126.741 624.462 -127.526 621.293 -128.169 615.601C-128.873 609.354 -129.187 605.789 -129.187 599.503C-129.187 593.11 -128.772 589.497 -128.169 583.133C-127.559 576.706 -125.044 566.899 -125.044 566.899C-125.044 566.899 -122.644 557.184 -120.221 551.276C-118.043 545.964 -113.565 538.167 -113.565 538.167C-113.565 538.167 -110.124 531.349 -107.316 527.367C-104.894 523.933 -100.455 519.08 -100.455 519.08L108.413 309.94L116.564 301.585C116.564 301.585 120.048 294.232 121.658 289.291C123.165 284.667 124.197 282.043 124.647 277.2C125.092 272.412 124.986 269.605 123.968 264.906C123.195 261.34 122.502 259.36 120.911 256.076C119.215 252.573 117.924 250.748 115.477 247.721C112.765 244.366 111.149 242.427 107.598 239.978C104.649 237.944 102.722 237.189 99.379 235.902C95.9854 234.596 93.9698 234.145 90.4129 233.389C86.8206 232.625 84.7787 232.122 81.1072 232.03C76.6734 231.919 74.0623 232.057 69.8317 233.389C64.9013 234.941 62.594 237.023 58.3525 239.978C55.4697 241.985 51.2883 245.547 51.2883 245.547C51.2883 245.547 -86.4101 378.136 -147.12 441.646C-158.685 453.745 -168.206 465.148 -173.95 473.231C-183.702 486.954 -196.365 511.065 -196.365 511.065C-196.365 511.065 -202.954 529.291 -205.603 537.555C-208.252 545.82 -211.614 556.761 -213.142 569.48C-214.769 583.017 -215.437 590.779 -214.704 604.393C-213.815 620.906 -212.903 630.111 -209.542 646.303C-206.625 660.352 -203.304 668.429 -197.995 681.759C-193.162 693.894 -190.089 700.708 -182.848 711.578C-177.844 719.091 -174.844 723.277 -168.516 729.714Z" fill="#F1F0F0"/>
<path d="M361.82 494.051C294.063 426.294 194.725 325.801 194.725 325.801L-38.5957 559.122C-38.5957 559.122 -44.031 564.297 -47.2222 567.885C-50.7985 571.906 -53.3645 573.876 -55.7807 578.685C-57.8683 582.839 -58.5373 585.491 -59.1769 590.096C-59.7607 594.3 -59.5065 596.733 -59.1769 600.964C-58.8917 604.625 -58.3359 606.685 -57.2754 610.202C-56.2714 613.531 -55.8662 615.367 -54.0826 618.353C-52.5151 620.976 -51.4796 622.373 -49.4637 624.67C-47.2354 627.209 -45.6969 628.364 -43.1467 630.579C-40.9261 632.508 -39.7483 633.696 -37.3052 635.334C-33.6099 637.811 -31.3256 639.067 -27.0486 640.292C-23.6478 641.266 -21.6181 641.464 -18.0825 641.583C-13.4685 641.738 -10.7831 641.516 -6.33154 640.292C-1.52593 638.971 1.11893 637.697 5.21564 634.858C8.28852 632.729 12.3477 628.473 12.3477 628.473L101.465 539.56C101.465 539.56 113.691 527.673 122.589 521.424C129.559 516.53 133.648 513.946 141.337 510.285C147.154 507.514 150.535 506.151 156.688 504.239C162.722 502.365 166.169 501.295 172.446 500.571C178.77 499.842 183.178 500.571 188.748 500.571C194.318 500.571 199.628 499.893 206.544 500.571C213.736 501.277 217.692 502.402 224.68 504.239C231.998 506.163 236.012 507.605 243.088 510.285C249.313 512.642 253.028 513.589 258.778 516.941C262.644 519.194 264.568 520.851 268.152 523.53L268.487 523.78C274.781 528.486 278.449 531.227 284.114 536.843C289.942 542.62 292.885 546.228 297.699 552.873C301.623 558.291 303.707 561.446 306.869 567.341C309.506 572.257 310.626 575.197 312.846 580.315C315.115 585.543 316.66 588.389 318.348 593.832C320.046 599.303 320.831 602.472 321.473 608.164C322.177 614.411 322.492 617.975 322.492 624.262C322.492 630.655 322.077 634.268 321.473 640.632C320.863 647.059 318.348 656.866 318.348 656.866C318.348 656.866 315.948 666.581 313.526 672.489C311.347 677.801 306.869 685.598 306.869 685.598C306.869 685.598 303.428 692.416 300.62 696.398C298.199 699.832 293.759 704.685 293.759 704.685L84.8912 913.825L76.7403 922.18C76.7403 922.18 73.2565 929.533 71.6459 934.474C70.1386 939.098 69.1075 941.722 68.6572 946.565C68.212 951.352 68.3181 954.159 69.3365 958.859C70.1093 962.425 70.8025 964.405 72.3931 967.689C74.0896 971.192 75.3804 973.017 77.8271 976.044C80.539 979.399 82.1548 981.338 85.7063 983.787C88.6556 985.821 90.5818 986.576 93.9252 987.863C97.3188 989.169 99.3343 989.62 102.891 990.376C106.484 991.14 108.525 991.642 112.197 991.734C116.631 991.846 119.242 991.708 123.472 990.376C128.403 988.824 130.71 986.741 134.952 983.787C137.834 981.779 142.016 978.217 142.016 978.217C142.016 978.217 279.714 845.629 340.424 782.119C351.989 770.02 361.51 758.617 367.254 750.534C377.006 736.811 389.669 712.7 389.669 712.7C389.669 712.7 396.258 694.474 398.907 686.209C401.556 677.945 404.918 667.004 406.446 654.285C408.073 640.748 408.741 632.986 408.008 619.372C407.12 602.859 406.208 593.653 402.846 577.462C399.929 563.413 396.609 555.336 391.299 542.005C386.466 529.871 383.393 523.057 376.152 512.186C371.148 504.673 368.203 500.434 361.82 494.051Z" fill="#F1F0F0"/>
<path d="M291.917 274.58C292.797 274.58 293.431 274.37 293.817 273.95C294.204 273.53 294.397 272.943 294.397 272.19C294.397 271.857 294.347 271.553 294.247 271.28C294.147 271.007 293.994 270.773 293.787 270.58C293.587 270.38 293.331 270.227 293.017 270.12C292.711 270.013 292.344 269.96 291.917 269.96H290.157V274.58H291.917ZM291.917 267.43C292.944 267.43 293.824 267.553 294.557 267.8C295.297 268.04 295.904 268.373 296.377 268.8C296.857 269.227 297.211 269.73 297.437 270.31C297.664 270.89 297.777 271.517 297.777 272.19C297.777 272.917 297.661 273.583 297.427 274.19C297.194 274.797 296.837 275.317 296.357 275.75C295.877 276.183 295.267 276.523 294.527 276.77C293.794 277.01 292.924 277.13 291.917 277.13H290.157V282H286.777V267.43H291.917ZM304.262 274.28C304.722 274.28 305.112 274.223 305.432 274.11C305.759 273.99 306.026 273.827 306.232 273.62C306.439 273.413 306.589 273.173 306.682 272.9C306.776 272.62 306.822 272.32 306.822 272C306.822 271.36 306.612 270.86 306.192 270.5C305.779 270.14 305.136 269.96 304.262 269.96H302.902V274.28H304.262ZM311.442 282H308.382C307.816 282 307.409 281.787 307.162 281.36L304.742 277.13C304.629 276.95 304.502 276.82 304.362 276.74C304.222 276.653 304.022 276.61 303.762 276.61H302.902V282H299.522V267.43H304.262C305.316 267.43 306.212 267.54 306.952 267.76C307.699 267.973 308.306 268.273 308.772 268.66C309.246 269.047 309.589 269.503 309.802 270.03C310.016 270.557 310.122 271.13 310.122 271.75C310.122 272.223 310.059 272.67 309.932 273.09C309.806 273.51 309.619 273.9 309.372 274.26C309.126 274.613 308.819 274.93 308.452 275.21C308.092 275.49 307.676 275.72 307.202 275.9C307.422 276.013 307.629 276.157 307.822 276.33C308.016 276.497 308.189 276.697 308.342 276.93L311.442 282ZM326.743 274.71C326.743 275.763 326.56 276.743 326.193 277.65C325.833 278.557 325.323 279.347 324.663 280.02C324.003 280.687 323.206 281.21 322.273 281.59C321.346 281.97 320.316 282.16 319.183 282.16C318.05 282.16 317.016 281.97 316.083 281.59C315.15 281.21 314.35 280.687 313.683 280.02C313.023 279.347 312.51 278.557 312.143 277.65C311.783 276.743 311.603 275.763 311.603 274.71C311.603 273.657 311.783 272.677 312.143 271.77C312.51 270.863 313.023 270.077 313.683 269.41C314.35 268.743 315.15 268.22 316.083 267.84C317.016 267.46 318.05 267.27 319.183 267.27C320.316 267.27 321.346 267.463 322.273 267.85C323.206 268.23 324.003 268.753 324.663 269.42C325.323 270.087 325.833 270.873 326.193 271.78C326.56 272.687 326.743 273.663 326.743 274.71ZM323.283 274.71C323.283 273.99 323.19 273.343 323.003 272.77C322.816 272.19 322.546 271.7 322.193 271.3C321.846 270.9 321.42 270.593 320.913 270.38C320.406 270.167 319.83 270.06 319.183 270.06C318.53 270.06 317.946 270.167 317.433 270.38C316.926 270.593 316.496 270.9 316.143 271.3C315.796 271.7 315.53 272.19 315.343 272.77C315.156 273.343 315.063 273.99 315.063 274.71C315.063 275.437 315.156 276.09 315.343 276.67C315.53 277.243 315.796 277.73 316.143 278.13C316.496 278.53 316.926 278.837 317.433 279.05C317.946 279.257 318.53 279.36 319.183 279.36C319.83 279.36 320.406 279.257 320.913 279.05C321.42 278.837 321.846 278.53 322.193 278.13C322.546 277.73 322.816 277.243 323.003 276.67C323.19 276.09 323.283 275.437 323.283 274.71ZM333.902 274.58C334.782 274.58 335.415 274.37 335.802 273.95C336.189 273.53 336.382 272.943 336.382 272.19C336.382 271.857 336.332 271.553 336.232 271.28C336.132 271.007 335.979 270.773 335.772 270.58C335.572 270.38 335.315 270.227 335.002 270.12C334.695 270.013 334.329 269.96 333.902 269.96H332.142V274.58H333.902ZM333.902 267.43C334.929 267.43 335.809 267.553 336.542 267.8C337.282 268.04 337.889 268.373 338.362 268.8C338.842 269.227 339.195 269.73 339.422 270.31C339.649 270.89 339.762 271.517 339.762 272.19C339.762 272.917 339.645 273.583 339.412 274.19C339.179 274.797 338.822 275.317 338.342 275.75C337.862 276.183 337.252 276.523 336.512 276.77C335.779 277.01 334.909 277.13 333.902 277.13H332.142V282H328.762V267.43H333.902ZM347.587 279.33C348.04 279.33 348.444 279.257 348.797 279.11C349.157 278.957 349.46 278.74 349.707 278.46C349.954 278.18 350.14 277.84 350.267 277.44C350.4 277.033 350.467 276.573 350.467 276.06V267.43H353.847V276.06C353.847 276.953 353.7 277.773 353.407 278.52C353.12 279.267 352.707 279.91 352.167 280.45C351.627 280.99 350.97 281.41 350.197 281.71C349.424 282.01 348.554 282.16 347.587 282.16C346.614 282.16 345.74 282.01 344.967 281.71C344.194 281.41 343.537 280.99 342.997 280.45C342.457 279.91 342.044 279.267 341.757 278.52C341.47 277.773 341.327 276.953 341.327 276.06V267.43H344.707V276.05C344.707 276.563 344.77 277.023 344.897 277.43C345.03 277.83 345.22 278.173 345.467 278.46C345.714 278.74 346.014 278.957 346.367 279.11C346.727 279.257 347.134 279.33 347.587 279.33ZM359.917 270.03V273.43H364.497V275.93H359.917V279.4H365.897V282H356.517V267.43H365.897V270.03H359.917ZM376.062 270.39C375.962 270.55 375.856 270.67 375.742 270.75C375.636 270.83 375.496 270.87 375.322 270.87C375.169 270.87 375.002 270.823 374.822 270.73C374.649 270.63 374.449 270.52 374.222 270.4C374.002 270.28 373.749 270.173 373.462 270.08C373.176 269.98 372.849 269.93 372.482 269.93C371.849 269.93 371.376 270.067 371.062 270.34C370.756 270.607 370.602 270.97 370.602 271.43C370.602 271.723 370.696 271.967 370.882 272.16C371.069 272.353 371.312 272.52 371.612 272.66C371.919 272.8 372.266 272.93 372.652 273.05C373.046 273.163 373.446 273.293 373.852 273.44C374.259 273.58 374.656 273.747 375.042 273.94C375.436 274.133 375.782 274.38 376.082 274.68C376.389 274.98 376.636 275.347 376.822 275.78C377.009 276.207 377.102 276.723 377.102 277.33C377.102 278.003 376.986 278.633 376.752 279.22C376.519 279.807 376.179 280.32 375.732 280.76C375.292 281.193 374.746 281.537 374.092 281.79C373.446 282.037 372.709 282.16 371.882 282.16C371.429 282.16 370.966 282.113 370.492 282.02C370.026 281.927 369.572 281.797 369.132 281.63C368.692 281.457 368.279 281.253 367.892 281.02C367.506 280.787 367.169 280.527 366.882 280.24L367.882 278.66C367.962 278.547 368.066 278.453 368.192 278.38C368.326 278.3 368.469 278.26 368.622 278.26C368.822 278.26 369.022 278.323 369.222 278.45C369.429 278.577 369.659 278.717 369.912 278.87C370.172 279.023 370.469 279.163 370.802 279.29C371.136 279.417 371.529 279.48 371.982 279.48C372.596 279.48 373.072 279.347 373.412 279.08C373.752 278.807 373.922 278.377 373.922 277.79C373.922 277.45 373.829 277.173 373.642 276.96C373.456 276.747 373.209 276.57 372.902 276.43C372.602 276.29 372.259 276.167 371.872 276.06C371.486 275.953 371.089 275.837 370.682 275.71C370.276 275.577 369.879 275.417 369.492 275.23C369.106 275.037 368.759 274.787 368.452 274.48C368.152 274.167 367.909 273.78 367.722 273.32C367.536 272.853 367.442 272.28 367.442 271.6C367.442 271.053 367.552 270.52 367.772 270C367.992 269.48 368.316 269.017 368.742 268.61C369.169 268.203 369.692 267.88 370.312 267.64C370.932 267.393 371.642 267.27 372.442 267.27C372.889 267.27 373.322 267.307 373.742 267.38C374.169 267.447 374.572 267.55 374.952 267.69C375.332 267.823 375.686 267.987 376.012 268.18C376.346 268.367 376.642 268.58 376.902 268.82L376.062 270.39ZM389.586 270.11H385.486V282H382.106V270.11H378.006V267.43H389.586V270.11ZM397.608 276.43L396.258 272.44C396.158 272.187 396.051 271.89 395.938 271.55C395.825 271.203 395.711 270.83 395.598 270.43C395.498 270.837 395.391 271.213 395.278 271.56C395.165 271.907 395.058 272.207 394.958 272.46L393.618 276.43H397.608ZM402.978 282H400.358C400.065 282 399.828 281.933 399.648 281.8C399.468 281.66 399.331 281.483 399.238 281.27L398.378 278.73H392.838L391.978 281.27C391.905 281.457 391.771 281.627 391.578 281.78C391.391 281.927 391.158 282 390.878 282H388.238L393.878 267.43H397.338L402.978 282ZM411.532 270.03V273.43H416.112V275.93H411.532V279.4H417.512V282H408.132V267.43H417.512V270.03H411.532ZM432.347 267.43V282H430.587C430.327 282 430.107 281.96 429.927 281.88C429.754 281.793 429.58 281.647 429.407 281.44L422.537 272.75C422.564 273.01 422.58 273.263 422.587 273.51C422.6 273.75 422.607 273.977 422.607 274.19V282H419.627V267.43H421.407C421.554 267.43 421.677 267.437 421.777 267.45C421.877 267.463 421.967 267.49 422.047 267.53C422.127 267.563 422.204 267.613 422.277 267.68C422.35 267.747 422.434 267.837 422.527 267.95L429.457 276.7C429.424 276.42 429.4 276.15 429.387 275.89C429.374 275.623 429.367 275.373 429.367 275.14V267.43H432.347ZM438.604 270.03V273.43H443.184V275.93H438.604V279.4H444.584V282H435.204V267.43H444.584V270.03H438.604ZM451.439 274.28C451.899 274.28 452.289 274.223 452.609 274.11C452.935 273.99 453.202 273.827 453.409 273.62C453.615 273.413 453.765 273.173 453.859 272.9C453.952 272.62 453.999 272.32 453.999 272C453.999 271.36 453.789 270.86 453.369 270.5C452.955 270.14 452.312 269.96 451.439 269.96H450.079V274.28H451.439ZM458.619 282H455.559C454.992 282 454.585 281.787 454.339 281.36L451.919 277.13C451.805 276.95 451.679 276.82 451.539 276.74C451.399 276.653 451.199 276.61 450.939 276.61H450.079V282H446.699V267.43H451.439C452.492 267.43 453.389 267.54 454.129 267.76C454.875 267.973 455.482 268.273 455.949 268.66C456.422 269.047 456.765 269.503 456.979 270.03C457.192 270.557 457.299 271.13 457.299 271.75C457.299 272.223 457.235 272.67 457.109 273.09C456.982 273.51 456.795 273.9 456.549 274.26C456.302 274.613 455.995 274.93 455.629 275.21C455.269 275.49 454.852 275.72 454.379 275.9C454.599 276.013 454.805 276.157 454.999 276.33C455.192 276.497 455.365 276.697 455.519 276.93L458.619 282ZM466.619 274.45H471.799V280.6C471.053 281.147 470.256 281.543 469.409 281.79C468.569 282.037 467.689 282.16 466.769 282.16C465.569 282.16 464.476 281.973 463.489 281.6C462.509 281.22 461.669 280.7 460.969 280.04C460.269 279.373 459.729 278.587 459.349 277.68C458.969 276.767 458.779 275.777 458.779 274.71C458.779 273.623 458.959 272.627 459.319 271.72C459.679 270.807 460.193 270.02 460.859 269.36C461.533 268.7 462.343 268.187 463.289 267.82C464.243 267.453 465.306 267.27 466.479 267.27C467.086 267.27 467.656 267.32 468.189 267.42C468.723 267.52 469.213 267.657 469.659 267.83C470.113 268.003 470.526 268.21 470.899 268.45C471.273 268.69 471.606 268.95 471.899 269.23L470.919 270.72C470.766 270.953 470.566 271.097 470.319 271.15C470.079 271.203 469.819 271.143 469.539 270.97C469.273 270.81 469.019 270.673 468.779 270.56C468.546 270.44 468.306 270.343 468.059 270.27C467.813 270.197 467.553 270.143 467.279 270.11C467.006 270.077 466.699 270.06 466.359 270.06C465.726 270.06 465.156 270.173 464.649 270.4C464.143 270.62 463.709 270.933 463.349 271.34C462.996 271.747 462.723 272.237 462.529 272.81C462.336 273.377 462.239 274.01 462.239 274.71C462.239 275.483 462.346 276.17 462.559 276.77C462.773 277.37 463.073 277.877 463.459 278.29C463.853 278.703 464.319 279.02 464.859 279.24C465.406 279.453 466.009 279.56 466.669 279.56C467.076 279.56 467.443 279.52 467.769 279.44C468.103 279.36 468.426 279.253 468.739 279.12V276.91H467.299C467.086 276.91 466.919 276.853 466.799 276.74C466.679 276.627 466.619 276.483 466.619 276.31V274.45ZM477.502 270.03V273.43H482.082V275.93H477.502V279.4H483.482V282H474.102V267.43H483.482V270.03H477.502ZM483.552 263.33L480.322 266.18C480.242 266.253 480.166 266.31 480.092 266.35C480.019 266.39 479.942 266.42 479.862 266.44C479.782 266.46 479.696 266.473 479.602 266.48C479.516 266.487 479.416 266.49 479.302 266.49H477.042L478.932 263.79C479.012 263.683 479.089 263.6 479.162 263.54C479.242 263.473 479.326 263.427 479.412 263.4C479.506 263.367 479.609 263.347 479.722 263.34C479.842 263.333 479.979 263.33 480.132 263.33H483.552ZM496.067 270.11H491.967V282H488.587V270.11H484.487V267.43H496.067V270.11ZM501.215 282H497.815V267.43H501.215V282ZM513.876 278.23C513.956 278.23 514.036 278.247 514.116 278.28C514.196 278.307 514.272 278.357 514.346 278.43L515.686 279.84C515.099 280.607 514.362 281.187 513.476 281.58C512.596 281.967 511.552 282.16 510.346 282.16C509.239 282.16 508.246 281.973 507.366 281.6C506.492 281.22 505.749 280.7 505.136 280.04C504.529 279.373 504.062 278.587 503.736 277.68C503.409 276.767 503.246 275.777 503.246 274.71C503.246 273.623 503.422 272.627 503.776 271.72C504.129 270.807 504.626 270.02 505.266 269.36C505.906 268.7 506.672 268.187 507.566 267.82C508.459 267.453 509.442 267.27 510.516 267.27C511.062 267.27 511.576 267.32 512.056 267.42C512.542 267.513 512.996 267.647 513.416 267.82C513.836 267.987 514.222 268.19 514.576 268.43C514.929 268.67 515.242 268.93 515.516 269.21L514.376 270.74C514.302 270.833 514.216 270.92 514.116 271C514.016 271.073 513.876 271.11 513.696 271.11C513.576 271.11 513.462 271.083 513.356 271.03C513.249 270.977 513.136 270.913 513.016 270.84C512.896 270.76 512.762 270.677 512.616 270.59C512.476 270.497 512.306 270.413 512.106 270.34C511.912 270.26 511.682 270.193 511.416 270.14C511.156 270.087 510.849 270.06 510.496 270.06C509.936 270.06 509.422 270.163 508.956 270.37C508.496 270.577 508.096 270.88 507.756 271.28C507.422 271.673 507.162 272.16 506.976 272.74C506.796 273.313 506.706 273.97 506.706 274.71C506.706 275.457 506.806 276.12 507.006 276.7C507.212 277.28 507.489 277.77 507.836 278.17C508.189 278.563 508.599 278.863 509.066 279.07C509.532 279.277 510.032 279.38 510.566 279.38C510.872 279.38 511.152 279.367 511.406 279.34C511.659 279.307 511.896 279.257 512.116 279.19C512.336 279.117 512.542 279.023 512.736 278.91C512.929 278.79 513.126 278.64 513.326 278.46C513.406 278.393 513.492 278.34 513.586 278.3C513.679 278.253 513.776 278.23 513.876 278.23ZM524.891 276.43L523.541 272.44C523.441 272.187 523.335 271.89 523.221 271.55C523.108 271.203 522.995 270.83 522.881 270.43C522.781 270.837 522.675 271.213 522.561 271.56C522.448 271.907 522.341 272.207 522.241 272.46L520.901 276.43H524.891ZM530.261 282H527.641C527.348 282 527.111 281.933 526.931 281.8C526.751 281.66 526.615 281.483 526.521 281.27L525.661 278.73H520.121L519.261 281.27C519.188 281.457 519.055 281.627 518.861 281.78C518.675 281.927 518.441 282 518.161 282H515.521L521.161 267.43H524.621L530.261 282Z" fill="#AB2526"/>
<path d="M356.819 291.217V291.685H352.722V294.831H356.132V295.287H352.722V298.532H356.819V299H352.155V291.217H356.819ZM362.444 292.163C362.411 292.226 362.363 292.257 362.301 292.257C362.253 292.257 362.191 292.224 362.114 292.158C362.04 292.088 361.939 292.013 361.811 291.932C361.683 291.848 361.521 291.771 361.327 291.701C361.136 291.632 360.9 291.597 360.618 291.597C360.335 291.597 360.086 291.637 359.87 291.718C359.657 291.799 359.477 291.909 359.331 292.048C359.188 292.187 359.078 292.349 359.001 292.532C358.927 292.715 358.891 292.908 358.891 293.109C358.891 293.373 358.946 293.592 359.056 293.764C359.169 293.936 359.318 294.083 359.501 294.204C359.684 294.325 359.892 294.428 360.123 294.512C360.357 294.593 360.597 294.673 360.843 294.754C361.089 294.835 361.327 294.924 361.558 295.023C361.793 295.119 362.002 295.24 362.185 295.386C362.368 295.533 362.515 295.715 362.625 295.931C362.739 296.144 362.796 296.409 362.796 296.728C362.796 297.055 362.739 297.363 362.625 297.652C362.515 297.938 362.354 298.188 362.141 298.4C361.928 298.613 361.668 298.782 361.36 298.906C361.052 299.028 360.7 299.088 360.304 299.088C359.791 299.088 359.349 298.998 358.979 298.819C358.608 298.635 358.284 298.386 358.005 298.07L358.159 297.828C358.203 297.773 358.254 297.746 358.313 297.746C358.346 297.746 358.388 297.768 358.44 297.812C358.491 297.856 358.553 297.911 358.627 297.977C358.7 298.039 358.788 298.109 358.891 298.186C358.993 298.259 359.112 298.329 359.248 298.395C359.384 298.457 359.54 298.51 359.716 298.554C359.892 298.598 360.091 298.62 360.315 298.62C360.623 298.62 360.898 298.575 361.14 298.483C361.382 298.388 361.586 298.259 361.751 298.098C361.919 297.937 362.048 297.746 362.136 297.526C362.224 297.302 362.268 297.064 362.268 296.811C362.268 296.536 362.211 296.31 362.097 296.134C361.987 295.955 361.84 295.806 361.657 295.689C361.474 295.568 361.265 295.467 361.03 295.386C360.799 295.306 360.561 295.227 360.315 295.15C360.069 295.073 359.829 294.987 359.595 294.891C359.364 294.796 359.156 294.675 358.973 294.528C358.79 294.378 358.641 294.193 358.528 293.973C358.418 293.749 358.363 293.471 358.363 293.137C358.363 292.877 358.412 292.625 358.511 292.383C358.61 292.141 358.755 291.929 358.946 291.745C359.136 291.558 359.371 291.41 359.65 291.3C359.932 291.186 360.253 291.129 360.612 291.129C361.015 291.129 361.377 291.194 361.696 291.322C362.018 291.45 362.312 291.646 362.576 291.91L362.444 292.163ZM369.538 291.217V291.696H366.805V299H366.244V291.696H363.494V291.217H369.538ZM373.795 298.598C374.169 298.598 374.502 298.534 374.796 298.406C375.093 298.274 375.344 298.092 375.549 297.861C375.754 297.63 375.91 297.359 376.017 297.047C376.127 296.732 376.182 296.393 376.182 296.03V291.217H376.743V296.03C376.743 296.459 376.675 296.86 376.539 297.234C376.403 297.605 376.207 297.929 375.951 298.208C375.698 298.483 375.388 298.699 375.021 298.857C374.658 299.015 374.249 299.094 373.795 299.094C373.34 299.094 372.929 299.015 372.563 298.857C372.2 298.699 371.89 298.483 371.633 298.208C371.38 297.929 371.186 297.605 371.05 297.234C370.914 296.86 370.847 296.459 370.847 296.03V291.217H371.413V296.024C371.413 296.387 371.466 296.727 371.573 297.042C371.683 297.354 371.838 297.625 372.04 297.856C372.245 298.087 372.495 298.268 372.788 298.4C373.085 298.532 373.421 298.598 373.795 298.598ZM385.564 295.106C385.564 295.707 385.474 296.248 385.294 296.728C385.114 297.209 384.861 297.618 384.535 297.955C384.209 298.292 383.818 298.551 383.364 298.73C382.909 298.91 382.405 299 381.851 299H379.013V291.217H381.851C382.405 291.217 382.909 291.307 383.364 291.487C383.818 291.667 384.209 291.925 384.535 292.262C384.861 292.6 385.114 293.009 385.294 293.489C385.474 293.969 385.564 294.508 385.564 295.106ZM384.981 295.106C384.981 294.563 384.905 294.079 384.755 293.654C384.605 293.229 384.392 292.869 384.117 292.576C383.846 292.283 383.518 292.059 383.133 291.905C382.748 291.751 382.32 291.674 381.851 291.674H379.58V298.543H381.851C382.32 298.543 382.748 298.466 383.133 298.312C383.518 298.158 383.846 297.935 384.117 297.641C384.392 297.348 384.605 296.989 384.755 296.563C384.905 296.138 384.981 295.652 384.981 295.106ZM388.168 299H387.601V291.217H388.168V299ZM397.654 295.106C397.654 295.707 397.564 296.254 397.384 296.745C397.204 297.233 396.951 297.651 396.625 297.999C396.299 298.344 395.908 298.611 395.454 298.802C394.999 298.989 394.495 299.083 393.941 299.083C393.395 299.083 392.894 298.989 392.44 298.802C391.985 298.611 391.594 298.344 391.268 297.999C390.942 297.651 390.687 297.233 390.504 296.745C390.324 296.254 390.234 295.707 390.234 295.106C390.234 294.508 390.324 293.966 390.504 293.478C390.687 292.987 390.942 292.569 391.268 292.224C391.594 291.876 391.985 291.606 392.44 291.415C392.894 291.225 393.395 291.129 393.941 291.129C394.495 291.129 394.999 291.225 395.454 291.415C395.908 291.602 396.299 291.87 396.625 292.218C396.951 292.567 397.204 292.987 397.384 293.478C397.564 293.966 397.654 294.508 397.654 295.106ZM397.071 295.106C397.071 294.563 396.995 294.076 396.845 293.643C396.695 293.21 396.482 292.844 396.207 292.543C395.936 292.242 395.608 292.013 395.223 291.855C394.838 291.694 394.41 291.613 393.941 291.613C393.479 291.613 393.056 291.694 392.671 291.855C392.289 292.013 391.959 292.242 391.681 292.543C391.406 292.844 391.191 293.21 391.037 293.643C390.887 294.076 390.812 294.563 390.812 295.106C390.812 295.652 390.887 296.142 391.037 296.574C391.191 297.003 391.406 297.368 391.681 297.669C391.959 297.97 392.289 298.199 392.671 298.356C393.056 298.514 393.479 298.593 393.941 298.593C394.41 298.593 394.838 298.514 395.223 298.356C395.608 298.199 395.936 297.97 396.207 297.669C396.482 297.368 396.695 297.003 396.845 296.574C396.995 296.142 397.071 295.652 397.071 295.106ZM403.278 292.163C403.245 292.226 403.198 292.257 403.135 292.257C403.088 292.257 403.025 292.224 402.948 292.158C402.875 292.088 402.774 292.013 402.646 291.932C402.518 291.848 402.356 291.771 402.162 291.701C401.971 291.632 401.735 291.597 401.452 291.597C401.17 291.597 400.921 291.637 400.704 291.718C400.492 291.799 400.312 291.909 400.165 292.048C400.022 292.187 399.912 292.349 399.835 292.532C399.762 292.715 399.725 292.908 399.725 293.109C399.725 293.373 399.78 293.592 399.89 293.764C400.004 293.936 400.153 294.083 400.336 294.204C400.519 294.325 400.726 294.428 400.957 294.512C401.192 294.593 401.432 294.673 401.678 294.754C401.924 294.835 402.162 294.924 402.393 295.023C402.628 295.119 402.837 295.24 403.02 295.386C403.203 295.533 403.35 295.715 403.46 295.931C403.574 296.144 403.63 296.409 403.63 296.728C403.63 297.055 403.574 297.363 403.46 297.652C403.35 297.938 403.189 298.188 402.976 298.4C402.763 298.613 402.503 298.782 402.195 298.906C401.887 299.028 401.535 299.088 401.139 299.088C400.626 299.088 400.184 298.998 399.813 298.819C399.443 298.635 399.119 298.386 398.84 298.07L398.994 297.828C399.038 297.773 399.089 297.746 399.148 297.746C399.181 297.746 399.223 297.768 399.274 297.812C399.326 297.856 399.388 297.911 399.461 297.977C399.535 298.039 399.623 298.109 399.725 298.186C399.828 298.259 399.947 298.329 400.083 298.395C400.219 298.457 400.374 298.51 400.55 298.554C400.726 298.598 400.926 298.62 401.15 298.62C401.458 298.62 401.733 298.575 401.975 298.483C402.217 298.388 402.42 298.259 402.585 298.098C402.754 297.937 402.882 297.746 402.97 297.526C403.058 297.302 403.102 297.064 403.102 296.811C403.102 296.536 403.046 296.31 402.932 296.134C402.822 295.955 402.675 295.806 402.492 295.689C402.309 295.568 402.1 295.467 401.865 295.386C401.634 295.306 401.396 295.227 401.15 295.15C400.904 295.073 400.664 294.987 400.429 294.891C400.198 294.796 399.991 294.675 399.808 294.528C399.625 294.378 399.476 294.193 399.362 293.973C399.252 293.749 399.197 293.471 399.197 293.137C399.197 292.877 399.247 292.625 399.346 292.383C399.445 292.141 399.59 291.929 399.78 291.745C399.971 291.558 400.206 291.41 400.484 291.3C400.767 291.186 401.088 291.129 401.447 291.129C401.85 291.129 402.211 291.194 402.53 291.322C402.853 291.45 403.146 291.646 403.41 291.91L403.278 292.163ZM410.555 297.966C410.232 297.966 409.988 297.882 409.823 297.713C409.662 297.541 409.577 297.295 409.57 296.976C409.365 297.317 409.132 297.564 408.872 297.718C408.615 297.869 408.336 297.944 408.036 297.944C407.83 297.944 407.652 297.909 407.502 297.839C407.352 297.766 407.227 297.667 407.128 297.542C407.029 297.418 406.954 297.271 406.903 297.102C406.855 296.934 406.831 296.752 406.831 296.558C406.831 296.246 406.89 295.935 407.007 295.623C407.128 295.308 407.302 295.025 407.53 294.776C407.761 294.523 408.043 294.318 408.377 294.16C408.71 294.002 409.09 293.923 409.515 293.923C409.709 293.923 409.891 293.94 410.06 293.973C410.232 294.006 410.386 294.054 410.522 294.116L410.021 296.024C409.977 296.193 409.944 296.345 409.922 296.481C409.904 296.613 409.895 296.732 409.895 296.838C409.895 297 409.915 297.132 409.955 297.234C409.995 297.333 410.049 297.412 410.115 297.471C410.184 297.53 410.263 297.57 410.351 297.592C410.439 297.61 410.531 297.619 410.626 297.619C410.835 297.619 411.035 297.564 411.226 297.454C411.416 297.344 411.585 297.189 411.732 296.987C411.878 296.782 411.994 296.534 412.078 296.244C412.166 295.955 412.21 295.63 412.21 295.271C412.21 294.728 412.12 294.255 411.941 293.852C411.765 293.445 411.523 293.108 411.215 292.84C410.91 292.572 410.555 292.372 410.148 292.24C409.741 292.108 409.308 292.042 408.85 292.042C408.347 292.042 407.871 292.14 407.42 292.334C406.972 292.528 406.578 292.8 406.237 293.148C405.9 293.496 405.63 293.912 405.429 294.396C405.231 294.877 405.132 295.405 405.132 295.98C405.132 296.629 405.234 297.201 405.44 297.696C405.649 298.188 405.931 298.6 406.287 298.934C406.642 299.264 407.057 299.513 407.53 299.682C408.006 299.854 408.512 299.941 409.048 299.941C409.59 299.941 410.085 299.878 410.533 299.754C410.984 299.629 411.392 299.447 411.759 299.209C411.785 299.191 411.816 299.181 411.853 299.181C411.904 299.181 411.941 299.207 411.963 299.259L412.045 299.462C411.634 299.733 411.182 299.942 410.687 300.089C410.195 300.236 409.649 300.309 409.048 300.309C408.443 300.309 407.878 300.212 407.354 300.018C406.829 299.827 406.373 299.546 405.984 299.176C405.595 298.809 405.289 298.358 405.066 297.823C404.842 297.284 404.73 296.67 404.73 295.98C404.73 295.368 404.838 294.8 405.055 294.275C405.271 293.751 405.566 293.296 405.94 292.912C406.314 292.526 406.75 292.226 407.249 292.009C407.748 291.789 408.281 291.679 408.85 291.679C409.341 291.679 409.812 291.756 410.263 291.91C410.714 292.061 411.112 292.288 411.457 292.592C411.805 292.893 412.082 293.267 412.287 293.714C412.496 294.162 412.601 294.681 412.601 295.271C412.601 295.671 412.547 296.035 412.441 296.365C412.335 296.695 412.188 296.98 412.001 297.218C411.818 297.453 411.601 297.636 411.352 297.768C411.103 297.9 410.837 297.966 410.555 297.966ZM408.135 297.581C408.267 297.581 408.402 297.559 408.542 297.515C408.685 297.471 408.82 297.392 408.949 297.278C409.081 297.161 409.203 297.005 409.317 296.811C409.431 296.613 409.526 296.362 409.603 296.057L410.043 294.352C409.955 294.327 409.863 294.308 409.768 294.297C409.676 294.283 409.568 294.275 409.444 294.275C409.114 294.275 408.813 294.343 408.542 294.479C408.274 294.611 408.045 294.785 407.854 295.001C407.667 295.218 407.52 295.462 407.414 295.733C407.311 296.001 407.26 296.272 407.26 296.547C407.26 296.694 407.278 296.831 407.315 296.959C407.352 297.084 407.407 297.192 407.48 297.284C407.553 297.376 407.643 297.449 407.75 297.504C407.86 297.555 407.988 297.581 408.135 297.581ZM418.115 292.163C418.082 292.226 418.034 292.257 417.972 292.257C417.924 292.257 417.862 292.224 417.785 292.158C417.711 292.088 417.611 292.013 417.482 291.932C417.354 291.848 417.193 291.771 416.998 291.701C416.808 291.632 416.571 291.597 416.289 291.597C416.006 291.597 415.757 291.637 415.541 291.718C415.328 291.799 415.148 291.909 415.002 292.048C414.859 292.187 414.749 292.349 414.672 292.532C414.598 292.715 414.562 292.908 414.562 293.109C414.562 293.373 414.617 293.592 414.727 293.764C414.84 293.936 414.989 294.083 415.172 294.204C415.356 294.325 415.563 294.428 415.794 294.512C416.028 294.593 416.269 294.673 416.514 294.754C416.76 294.835 416.998 294.924 417.229 295.023C417.464 295.119 417.673 295.24 417.856 295.386C418.04 295.533 418.186 295.715 418.296 295.931C418.41 296.144 418.467 296.409 418.467 296.728C418.467 297.055 418.41 297.363 418.296 297.652C418.186 297.938 418.025 298.188 417.812 298.4C417.6 298.613 417.339 298.782 417.031 298.906C416.723 299.028 416.371 299.088 415.975 299.088C415.462 299.088 415.02 298.998 414.65 298.819C414.279 298.635 413.955 298.386 413.676 298.07L413.83 297.828C413.874 297.773 413.926 297.746 413.984 297.746C414.017 297.746 414.059 297.768 414.111 297.812C414.162 297.856 414.224 297.911 414.298 297.977C414.371 298.039 414.459 298.109 414.562 298.186C414.664 298.259 414.784 298.329 414.919 298.395C415.055 298.457 415.211 298.51 415.387 298.554C415.563 298.598 415.763 298.62 415.986 298.62C416.294 298.62 416.569 298.575 416.811 298.483C417.053 298.388 417.257 298.259 417.422 298.098C417.59 297.937 417.719 297.746 417.807 297.526C417.895 297.302 417.939 297.064 417.939 296.811C417.939 296.536 417.882 296.31 417.768 296.134C417.658 295.955 417.512 295.806 417.328 295.689C417.145 295.568 416.936 295.467 416.701 295.386C416.47 295.306 416.232 295.227 415.986 295.15C415.741 295.073 415.5 294.987 415.266 294.891C415.035 294.796 414.828 294.675 414.644 294.528C414.461 294.378 414.312 294.193 414.199 293.973C414.089 293.749 414.034 293.471 414.034 293.137C414.034 292.877 414.083 292.625 414.182 292.383C414.281 292.141 414.426 291.929 414.617 291.745C414.807 291.558 415.042 291.41 415.321 291.3C415.603 291.186 415.924 291.129 416.283 291.129C416.687 291.129 417.048 291.194 417.367 291.322C417.689 291.45 417.983 291.646 418.247 291.91L418.115 292.163ZM424.791 291.217V291.685H420.694V294.831H424.104V295.287H420.694V298.532H424.791V299H420.127V291.217H424.791ZM425.581 291.217H426.027C426.078 291.217 426.12 291.232 426.153 291.261C426.186 291.287 426.212 291.322 426.23 291.366L428.881 297.823C428.951 297.992 429.008 298.171 429.052 298.362C429.092 298.164 429.145 297.984 429.211 297.823L431.857 291.366C431.875 291.326 431.901 291.291 431.934 291.261C431.97 291.232 432.014 291.217 432.066 291.217H432.506L429.294 299H428.793L425.581 291.217ZM438.435 291.217V291.685H434.338V294.831H437.748V295.287H434.338V298.532H438.435V299H433.771V291.217H438.435ZM441.024 295.48V299H440.463V291.217H442.448C443.346 291.217 444.017 291.392 444.461 291.74C444.905 292.085 445.127 292.592 445.127 293.263C445.127 293.56 445.075 293.832 444.973 294.077C444.87 294.323 444.721 294.539 444.527 294.726C444.336 294.91 444.105 295.062 443.834 295.183C443.563 295.3 443.257 295.377 442.916 295.414C443.004 295.469 443.082 295.542 443.152 295.634L445.831 299H445.341C445.282 299 445.231 298.989 445.187 298.967C445.147 298.945 445.106 298.908 445.066 298.857L442.575 295.7C442.512 295.619 442.444 295.562 442.371 295.529C442.301 295.496 442.191 295.48 442.041 295.48H441.024ZM441.024 295.062H442.377C442.721 295.062 443.029 295.022 443.301 294.941C443.576 294.857 443.807 294.737 443.994 294.583C444.184 294.429 444.329 294.244 444.428 294.028C444.527 293.812 444.577 293.568 444.577 293.296C444.577 292.743 444.395 292.332 444.032 292.064C443.669 291.797 443.141 291.663 442.448 291.663H441.024V295.062ZM453.122 299H452.688C452.636 299 452.594 298.987 452.561 298.961C452.528 298.932 452.502 298.895 452.484 298.851L451.566 296.591H447.743L446.83 298.851C446.815 298.892 446.79 298.927 446.753 298.956C446.716 298.985 446.672 299 446.621 299H446.192L449.377 291.217H449.938L453.122 299ZM447.914 296.173H451.401L449.811 292.24C449.785 292.178 449.76 292.108 449.734 292.031C449.708 291.951 449.683 291.866 449.657 291.778C449.631 291.866 449.606 291.951 449.58 292.031C449.554 292.108 449.529 292.18 449.503 292.246L447.914 296.173ZM454.943 298.521H458.633V299H454.382V291.217H454.943V298.521ZM464.702 291.217V291.685H460.605V294.831H464.015V295.287H460.605V298.532H464.702V299H460.038V291.217H464.702ZM466.84 291.217C466.891 291.217 466.932 291.225 466.961 291.239C466.99 291.25 467.021 291.278 467.054 291.322L472.092 298.065C472.081 297.955 472.076 297.849 472.076 297.746V291.217H472.571V299H472.301C472.217 299 472.149 298.963 472.098 298.89L467.038 292.136C467.049 292.246 467.054 292.35 467.054 292.449V299H466.565V291.217H466.84ZM479.571 291.217V291.685H475.473V294.831H478.883V295.287H475.473V298.532H479.571V299H474.907V291.217H479.571ZM482.159 295.48V299H481.598V291.217H483.584C484.482 291.217 485.153 291.392 485.597 291.74C486.041 292.085 486.262 292.592 486.262 293.263C486.262 293.56 486.211 293.832 486.108 294.077C486.006 294.323 485.857 294.539 485.663 294.726C485.472 294.91 485.241 295.062 484.97 295.183C484.699 295.3 484.392 295.377 484.051 295.414C484.139 295.469 484.218 295.542 484.288 295.634L486.966 299H486.477C486.418 299 486.367 298.989 486.323 298.967C486.283 298.945 486.242 298.908 486.202 298.857L483.71 295.7C483.648 295.619 483.58 295.562 483.507 295.529C483.437 295.496 483.327 295.48 483.177 295.48H482.159ZM482.159 295.062H483.512C483.857 295.062 484.165 295.022 484.436 294.941C484.711 294.857 484.942 294.737 485.129 294.583C485.32 294.429 485.465 294.244 485.564 294.028C485.663 293.812 485.712 293.568 485.712 293.296C485.712 292.743 485.531 292.332 485.168 292.064C484.805 291.797 484.277 291.663 483.584 291.663H482.159V295.062ZM491.508 298.631C491.776 298.631 492.019 298.619 492.239 298.593C492.459 298.564 492.663 298.521 492.85 298.466C493.041 298.411 493.22 298.345 493.389 298.268C493.561 298.188 493.734 298.098 493.906 297.999V295.903H492.41C492.37 295.903 492.335 295.891 492.305 295.865C492.28 295.839 492.267 295.81 492.267 295.777V295.469H494.417V298.235C494.223 298.371 494.021 298.492 493.812 298.598C493.603 298.705 493.38 298.795 493.141 298.868C492.903 298.938 492.646 298.991 492.371 299.028C492.096 299.068 491.796 299.088 491.469 299.088C490.908 299.088 490.395 298.995 489.929 298.807C489.467 298.617 489.07 298.349 488.736 298.004C488.406 297.656 488.149 297.236 487.966 296.745C487.783 296.254 487.691 295.707 487.691 295.106C487.691 294.505 487.783 293.96 487.966 293.473C488.149 292.981 488.41 292.563 488.747 292.218C489.084 291.87 489.493 291.602 489.973 291.415C490.457 291.225 490.998 291.129 491.596 291.129C491.893 291.129 492.166 291.15 492.415 291.19C492.668 291.23 492.903 291.291 493.119 291.371C493.336 291.448 493.537 291.546 493.724 291.663C493.911 291.777 494.091 291.909 494.263 292.059L494.115 292.301C494.082 292.356 494.036 292.383 493.977 292.383C493.944 292.383 493.913 292.376 493.884 292.361C493.829 292.339 493.748 292.288 493.642 292.207C493.539 292.127 493.398 292.042 493.218 291.954C493.042 291.866 492.821 291.788 492.553 291.718C492.285 291.648 491.961 291.613 491.579 291.613C491.073 291.613 490.617 291.694 490.21 291.855C489.803 292.017 489.455 292.248 489.165 292.548C488.879 292.849 488.657 293.216 488.499 293.648C488.345 294.081 488.268 294.567 488.268 295.106C488.268 295.656 488.347 296.149 488.505 296.585C488.663 297.022 488.883 297.392 489.165 297.696C489.451 297.997 489.792 298.228 490.188 298.389C490.588 298.551 491.028 298.631 491.508 298.631ZM498.845 295.788V299H498.279V295.788L495.402 291.217H495.892C495.943 291.217 495.984 291.23 496.013 291.256C496.046 291.278 496.077 291.311 496.106 291.355L498.334 294.93C498.385 295.014 498.429 295.097 498.466 295.177C498.503 295.254 498.536 295.333 498.565 295.414C498.594 295.333 498.627 295.254 498.664 295.177C498.701 295.097 498.745 295.014 498.796 294.93L501.018 291.355C501.04 291.315 501.067 291.282 501.1 291.256C501.133 291.23 501.176 291.217 501.227 291.217H501.722L498.845 295.788ZM501.724 298.576C501.724 298.507 501.737 298.441 501.763 298.378C501.789 298.316 501.823 298.263 501.867 298.219C501.915 298.171 501.968 298.135 502.027 298.109C502.089 298.08 502.157 298.065 502.23 298.065C502.3 298.065 502.366 298.08 502.428 298.109C502.491 298.135 502.544 298.171 502.588 298.219C502.636 298.263 502.672 298.316 502.698 298.378C502.727 298.441 502.742 298.507 502.742 298.576C502.742 298.65 502.727 298.718 502.698 298.78C502.672 298.839 502.636 298.892 502.588 298.939C502.544 298.983 502.491 299.018 502.428 299.044C502.366 299.07 502.3 299.083 502.23 299.083C502.087 299.083 501.966 299.035 501.867 298.939C501.772 298.84 501.724 298.719 501.724 298.576ZM509.831 297.691C509.868 297.691 509.899 297.704 509.925 297.729L510.145 297.966C509.983 298.138 509.807 298.294 509.617 298.433C509.426 298.569 509.217 298.686 508.99 298.785C508.766 298.881 508.518 298.954 508.247 299.006C507.979 299.061 507.684 299.088 507.362 299.088C506.823 299.088 506.328 298.995 505.877 298.807C505.429 298.617 505.044 298.349 504.722 298.004C504.403 297.656 504.153 297.236 503.974 296.745C503.794 296.254 503.704 295.707 503.704 295.106C503.704 294.516 503.796 293.977 503.979 293.489C504.166 293.001 504.426 292.583 504.76 292.235C505.097 291.883 505.499 291.612 505.965 291.421C506.434 291.227 506.951 291.129 507.516 291.129C507.798 291.129 508.056 291.151 508.291 291.195C508.526 291.236 508.744 291.296 508.946 291.377C509.151 291.454 509.343 291.551 509.523 291.668C509.703 291.786 509.879 291.921 510.051 292.075L509.881 292.323C509.851 292.367 509.805 292.389 509.743 292.389C509.71 292.389 509.668 292.371 509.617 292.334C509.565 292.294 509.499 292.246 509.419 292.191C509.342 292.132 509.246 292.07 509.133 292.004C509.023 291.934 508.891 291.872 508.737 291.817C508.583 291.758 508.405 291.711 508.203 291.674C508.001 291.634 507.772 291.613 507.516 291.613C507.043 291.613 506.608 291.696 506.212 291.861C505.816 292.022 505.475 292.255 505.189 292.559C504.903 292.86 504.679 293.227 504.518 293.659C504.36 294.088 504.282 294.571 504.282 295.106C504.282 295.656 504.36 296.147 504.518 296.58C504.676 297.013 504.894 297.379 505.173 297.68C505.451 297.977 505.779 298.206 506.157 298.367C506.538 298.525 506.951 298.604 507.395 298.604C507.673 298.604 507.921 298.586 508.137 298.549C508.357 298.512 508.559 298.457 508.742 298.384C508.925 298.311 509.096 298.221 509.254 298.114C509.411 298.008 509.567 297.883 509.721 297.74C509.739 297.726 509.756 297.715 509.771 297.707C509.789 297.696 509.809 297.691 509.831 297.691ZM518.88 295.106C518.88 295.707 518.79 296.254 518.611 296.745C518.431 297.233 518.178 297.651 517.852 297.999C517.525 298.344 517.135 298.611 516.68 298.802C516.225 298.989 515.721 299.083 515.168 299.083C514.621 299.083 514.121 298.989 513.666 298.802C513.211 298.611 512.821 298.344 512.495 297.999C512.168 297.651 511.913 297.233 511.73 296.745C511.55 296.254 511.461 295.707 511.461 295.106C511.461 294.508 511.55 293.966 511.73 293.478C511.913 292.987 512.168 292.569 512.495 292.224C512.821 291.876 513.211 291.606 513.666 291.415C514.121 291.225 514.621 291.129 515.168 291.129C515.721 291.129 516.225 291.225 516.68 291.415C517.135 291.602 517.525 291.87 517.852 292.218C518.178 292.567 518.431 292.987 518.611 293.478C518.79 293.966 518.88 294.508 518.88 295.106ZM518.297 295.106C518.297 294.563 518.222 294.076 518.072 293.643C517.921 293.21 517.709 292.844 517.434 292.543C517.162 292.242 516.834 292.013 516.449 291.855C516.064 291.694 515.637 291.613 515.168 291.613C514.706 291.613 514.282 291.694 513.897 291.855C513.516 292.013 513.186 292.242 512.907 292.543C512.632 292.844 512.418 293.21 512.264 293.643C512.113 294.076 512.038 294.563 512.038 295.106C512.038 295.652 512.113 296.142 512.264 296.574C512.418 297.003 512.632 297.368 512.907 297.669C513.186 297.97 513.516 298.199 513.897 298.356C514.282 298.514 514.706 298.593 515.168 298.593C515.637 298.593 516.064 298.514 516.449 298.356C516.834 298.199 517.162 297.97 517.434 297.669C517.709 297.368 517.921 297.003 518.072 296.574C518.222 296.142 518.297 295.652 518.297 295.106ZM524.483 296.734C524.538 296.837 524.586 296.947 524.626 297.064C524.648 297.005 524.67 296.948 524.692 296.893C524.718 296.835 524.745 296.78 524.774 296.728L527.832 291.322C527.862 291.274 527.891 291.245 527.92 291.234C527.95 291.223 527.99 291.217 528.041 291.217H528.432V299H527.937V292.367C527.937 292.272 527.942 292.171 527.953 292.064L524.89 297.504C524.839 297.599 524.765 297.647 524.67 297.647H524.582C524.49 297.647 524.417 297.599 524.362 297.504L521.216 292.059C521.227 292.165 521.232 292.268 521.232 292.367V299H520.743V291.217H521.128C521.179 291.217 521.22 291.223 521.249 291.234C521.282 291.245 521.313 291.274 521.342 291.322L524.483 296.734Z" fill="#887A7A"/>
<path d="M294.609 176.484C294.609 174.582 294.327 172.821 293.763 171.201C293.235 169.546 292.443 168.12 291.386 166.922C290.33 165.69 289.009 164.739 287.424 164.07C285.875 163.365 284.079 163.013 282.036 163.013C277.916 163.013 274.676 164.193 272.316 166.552C269.957 168.912 268.46 172.222 267.826 176.484H294.609ZM267.509 183.457C267.65 186.521 268.125 189.18 268.935 191.433C269.745 193.652 270.819 195.501 272.158 196.98C273.531 198.459 275.151 199.569 277.018 200.308C278.919 201.013 281.032 201.365 283.357 201.365C285.575 201.365 287.495 201.118 289.115 200.625C290.735 200.097 292.143 199.533 293.341 198.935C294.538 198.301 295.56 197.737 296.405 197.244C297.25 196.716 298.025 196.452 298.729 196.452C299.645 196.452 300.349 196.804 300.842 197.508L304.065 201.682C302.726 203.267 301.212 204.605 299.522 205.697C297.831 206.788 296.035 207.686 294.133 208.391C292.232 209.06 290.277 209.535 288.27 209.817C286.262 210.134 284.308 210.292 282.406 210.292C278.673 210.292 275.204 209.676 271.999 208.443C268.83 207.176 266.065 205.327 263.705 202.897C261.381 200.467 259.55 197.456 258.212 193.863C256.908 190.271 256.257 186.133 256.257 181.449C256.257 177.716 256.838 174.23 258 170.99C259.198 167.75 260.888 164.932 263.072 162.538C265.29 160.143 267.967 158.259 271.101 156.885C274.271 155.477 277.845 154.772 281.825 154.772C285.135 154.772 288.199 155.318 291.017 156.41C293.834 157.466 296.264 159.033 298.307 161.111C300.349 163.189 301.934 165.742 303.061 168.771C304.223 171.765 304.804 175.181 304.804 179.019C304.804 180.78 304.61 181.96 304.223 182.559C303.836 183.157 303.131 183.457 302.11 183.457H267.509ZM361.86 155.617L340.201 209.5H329.953L308.294 155.617H317.644C318.525 155.617 319.247 155.846 319.81 156.304C320.409 156.727 320.796 157.237 320.972 157.836L332.911 189.215C333.404 190.694 333.844 192.155 334.232 193.599C334.619 195.043 334.954 196.505 335.235 197.984C335.517 196.505 335.852 195.061 336.239 193.652C336.662 192.208 337.119 190.729 337.612 189.215L349.762 157.836C349.974 157.202 350.361 156.674 350.925 156.251C351.488 155.829 352.175 155.617 352.985 155.617H361.86ZM403.678 176.484C403.678 174.582 403.396 172.821 402.833 171.201C402.305 169.546 401.512 168.12 400.456 166.922C399.399 165.69 398.079 164.739 396.494 164.07C394.944 163.365 393.148 163.013 391.105 163.013C386.985 163.013 383.745 164.193 381.385 166.552C379.026 168.912 377.529 172.222 376.895 176.484H403.678ZM376.578 183.457C376.719 186.521 377.195 189.18 378.005 191.433C378.815 193.652 379.889 195.501 381.227 196.98C382.6 198.459 384.22 199.569 386.087 200.308C387.989 201.013 390.102 201.365 392.426 201.365C394.645 201.365 396.564 201.118 398.184 200.625C399.804 200.097 401.213 199.533 402.41 198.935C403.608 198.301 404.629 197.737 405.474 197.244C406.319 196.716 407.094 196.452 407.799 196.452C408.714 196.452 409.419 196.804 409.912 197.508L413.134 201.682C411.796 203.267 410.281 204.605 408.591 205.697C406.9 206.788 405.104 207.686 403.203 208.391C401.301 209.06 399.346 209.535 397.339 209.817C395.332 210.134 393.377 210.292 391.475 210.292C387.742 210.292 384.273 209.676 381.069 208.443C377.899 207.176 375.134 205.327 372.775 202.897C370.45 200.467 368.619 197.456 367.281 193.863C365.978 190.271 365.326 186.133 365.326 181.449C365.326 177.716 365.907 174.23 367.07 170.99C368.267 167.75 369.957 164.932 372.141 162.538C374.36 160.143 377.036 158.259 380.17 156.885C383.34 155.477 386.915 154.772 390.894 154.772C394.205 154.772 397.269 155.318 400.086 156.41C402.903 157.466 405.333 159.033 407.376 161.111C409.419 163.189 411.003 165.742 412.13 168.771C413.292 171.765 413.874 175.181 413.874 179.019C413.874 180.78 413.68 181.96 413.292 182.559C412.905 183.157 412.201 183.457 411.179 183.457H376.578ZM435.453 165.602C437.143 162.185 439.186 159.509 441.581 157.572C443.976 155.6 446.846 154.614 450.191 154.614C451.354 154.614 452.445 154.755 453.467 155.036C454.488 155.283 455.404 155.67 456.214 156.198L455.421 164.756C455.28 165.355 455.051 165.778 454.734 166.024C454.453 166.235 454.065 166.341 453.572 166.341C453.044 166.341 452.287 166.253 451.301 166.077C450.315 165.866 449.276 165.76 448.184 165.76C446.599 165.76 445.191 165.989 443.958 166.447C442.761 166.905 441.669 167.574 440.683 168.454C439.732 169.335 438.887 170.409 438.147 171.677C437.408 172.944 436.721 174.388 436.087 176.008V209.5H424.729V155.617H431.333C432.53 155.617 433.358 155.846 433.815 156.304C434.273 156.727 434.59 157.484 434.766 158.576L435.453 165.602ZM491.959 185.94C487.909 186.08 484.493 186.415 481.71 186.943C478.928 187.436 476.674 188.088 474.949 188.898C473.223 189.673 471.973 190.606 471.198 191.698C470.458 192.789 470.089 193.987 470.089 195.29C470.089 196.558 470.282 197.649 470.67 198.565C471.092 199.445 471.656 200.185 472.36 200.784C473.1 201.347 473.945 201.77 474.896 202.052C475.882 202.298 476.956 202.421 478.118 202.421C481.077 202.421 483.612 201.875 485.725 200.784C487.873 199.657 489.951 198.037 491.959 195.924V185.94ZM461.848 163.119C467.94 157.449 475.195 154.614 483.612 154.614C486.711 154.614 489.458 155.124 491.853 156.146C494.283 157.132 496.308 158.54 497.928 160.372C499.583 162.203 500.833 164.387 501.679 166.922C502.559 169.423 502.999 172.205 502.999 175.269V209.5H497.928C496.836 209.5 496.009 209.342 495.445 209.025C494.882 208.672 494.406 207.986 494.019 206.964L492.91 202.58C491.536 203.812 490.18 204.922 488.842 205.908C487.504 206.859 486.113 207.669 484.669 208.338C483.26 209.007 481.728 209.5 480.073 209.817C478.453 210.169 476.657 210.345 474.685 210.345C472.501 210.345 470.458 210.046 468.557 209.447C466.69 208.848 465.07 207.95 463.697 206.753C462.323 205.52 461.232 204.006 460.422 202.21C459.647 200.414 459.259 198.301 459.259 195.871C459.259 193.793 459.805 191.768 460.897 189.796C462.024 187.824 463.855 186.063 466.391 184.513C468.962 182.928 472.325 181.625 476.481 180.604C480.672 179.583 485.831 179.002 491.959 178.861V175.269C491.959 171.395 491.131 168.507 489.476 166.605C487.821 164.703 485.391 163.753 482.186 163.753C480.002 163.753 478.171 164.034 476.692 164.598C475.213 165.126 473.927 165.707 472.836 166.341C471.744 166.975 470.775 167.574 469.93 168.137C469.085 168.665 468.187 168.93 467.236 168.93C466.461 168.93 465.792 168.736 465.229 168.348C464.7 167.926 464.26 167.415 463.908 166.817L461.848 163.119ZM528.137 131.317V209.5H516.78V131.317H528.137Z" fill="#1F1D1C"/>
<path d="M400.969 232.939L400.958 234.609H391.629V219.469H400.958V221.138H393.679V226.167H399.574V227.773H393.679V232.939H400.969ZM427.554 219.469V234.609H426.529C426.367 234.609 426.23 234.58 426.117 234.524C426.011 234.468 425.906 234.373 425.8 234.239L417.042 222.828C417.056 223.005 417.066 223.177 417.073 223.346C417.08 223.515 417.084 223.674 417.084 223.822V234.609H415.288V219.469H416.344C416.436 219.469 416.513 219.476 416.577 219.49C416.64 219.497 416.696 219.514 416.746 219.543C416.795 219.564 416.844 219.599 416.894 219.648C416.943 219.691 416.996 219.747 417.052 219.817L425.811 231.217C425.797 231.034 425.783 230.858 425.768 230.689C425.761 230.513 425.758 230.347 425.758 230.192V219.469H427.554ZM452.227 232.939L452.217 234.609H442.888V219.469H452.217V221.138H444.937V226.167H450.833V227.773H444.937V232.939H452.227ZM470.741 226.801C471.332 226.801 471.854 226.731 472.304 226.59C472.762 226.442 473.143 226.237 473.445 225.977C473.755 225.709 473.988 225.392 474.143 225.026C474.298 224.66 474.375 224.255 474.375 223.811C474.375 222.909 474.079 222.23 473.488 221.772C472.896 221.314 472.009 221.085 470.825 221.085H468.585V226.801H470.741ZM477.735 234.609H475.918C475.544 234.609 475.27 234.464 475.094 234.175L471.163 228.766C471.044 228.597 470.913 228.477 470.772 228.407C470.639 228.329 470.427 228.291 470.139 228.291H468.585V234.609H466.546V219.469H470.825C471.783 219.469 472.611 219.567 473.308 219.765C474.005 219.955 474.579 220.233 475.03 220.599C475.488 220.965 475.826 221.409 476.045 221.93C476.263 222.445 476.372 223.022 476.372 223.663C476.372 224.198 476.288 224.698 476.118 225.163C475.949 225.628 475.703 226.047 475.379 226.421C475.062 226.787 474.671 227.1 474.206 227.361C473.748 227.622 473.227 227.819 472.643 227.953C472.903 228.1 473.129 228.315 473.319 228.597L477.735 234.609ZM503.411 227.329V233.14C502.65 233.689 501.837 234.102 500.97 234.376C500.111 234.644 499.167 234.778 498.139 234.778C496.92 234.778 495.822 234.591 494.843 234.218C493.863 233.837 493.025 233.309 492.328 232.633C491.638 231.95 491.106 231.133 490.733 230.182C490.359 229.231 490.173 228.185 490.173 227.044C490.173 225.889 490.352 224.836 490.712 223.885C491.078 222.934 491.595 222.121 492.265 221.444C492.934 220.761 493.747 220.233 494.705 219.86C495.663 219.486 496.734 219.3 497.917 219.3C498.516 219.3 499.072 219.345 499.586 219.437C500.1 219.522 500.576 219.648 501.013 219.817C501.449 219.979 501.854 220.18 502.228 220.42C502.601 220.652 502.95 220.916 503.274 221.212L502.692 222.142C502.601 222.283 502.481 222.374 502.333 222.416C502.192 222.452 502.034 222.416 501.858 222.311C501.689 222.212 501.495 222.092 501.277 221.952C501.058 221.811 500.791 221.677 500.474 221.55C500.164 221.416 499.794 221.304 499.364 221.212C498.942 221.12 498.438 221.075 497.854 221.075C497.001 221.075 496.23 221.215 495.54 221.497C494.85 221.772 494.261 222.17 493.775 222.691C493.289 223.205 492.916 223.832 492.656 224.572C492.395 225.304 492.265 226.128 492.265 227.044C492.265 227.995 492.398 228.847 492.666 229.601C492.941 230.347 493.328 230.985 493.828 231.513C494.335 232.034 494.948 232.432 495.667 232.707C496.385 232.982 497.192 233.119 498.086 233.119C498.79 233.119 499.414 233.041 499.956 232.887C500.505 232.725 501.041 232.503 501.562 232.221V228.893H499.206C499.072 228.893 498.963 228.854 498.878 228.777C498.801 228.699 498.762 228.604 498.762 228.491V227.329H503.411ZM523.345 228.576V234.609H521.295V228.576L515.748 219.469H517.544C517.728 219.469 517.872 219.514 517.978 219.606C518.083 219.691 518.175 219.803 518.252 219.944L521.718 225.829C521.844 226.075 521.961 226.308 522.066 226.526C522.172 226.738 522.264 226.952 522.341 227.171C522.418 226.952 522.507 226.738 522.605 226.526C522.704 226.308 522.813 226.075 522.933 225.829L526.387 219.944C526.451 219.824 526.539 219.715 526.652 219.617C526.764 219.518 526.909 219.469 527.085 219.469H528.891L523.345 228.576Z" fill="#877F7D"/>
<path d="M155.166 159.518C167.399 171.961 185.613 190.175 185.613 190.175L228.128 147.661C228.128 147.661 229.118 146.718 229.7 146.064C230.352 145.331 230.819 144.972 231.259 144.096C231.64 143.339 231.762 142.856 231.878 142.017C231.985 141.251 231.938 140.807 231.878 140.036C231.826 139.369 231.725 138.994 231.532 138.353C231.349 137.746 231.275 137.412 230.95 136.868C230.664 136.39 230.476 136.135 230.108 135.717C229.702 135.254 229.422 135.044 228.957 134.64C228.553 134.289 228.338 134.072 227.893 133.774C227.22 133.322 226.803 133.093 226.024 132.87C225.404 132.693 225.034 132.657 224.39 132.635C223.549 132.607 223.06 132.647 222.249 132.87C221.373 133.111 220.891 133.343 220.145 133.86C219.585 134.248 218.845 135.024 218.845 135.024L202.607 151.225C202.607 151.225 200.379 153.391 198.757 154.53C197.488 155.422 196.742 155.892 195.341 156.56C194.281 157.064 193.665 157.313 192.544 157.661C191.445 158.003 190.817 158.198 189.673 158.33C188.52 158.462 187.717 158.33 186.702 158.33C185.687 158.33 184.72 158.453 183.46 158.33C182.149 158.201 181.428 157.996 180.155 157.661C178.822 157.311 178.09 157.048 176.801 156.56C175.666 156.13 174.99 155.957 173.942 155.347C173.237 154.936 172.887 154.634 172.234 154.146L172.173 154.101C171.026 153.243 170.357 152.744 169.325 151.72C168.263 150.668 167.727 150.01 166.85 148.799C166.135 147.812 165.755 147.237 165.179 146.163C164.698 145.267 164.494 144.731 164.09 143.799C163.676 142.846 163.395 142.328 163.087 141.336C162.778 140.339 162.635 139.762 162.518 138.724C162.389 137.586 162.332 136.937 162.332 135.791C162.332 134.626 162.408 133.968 162.518 132.808C162.629 131.637 163.087 129.85 163.087 129.85C163.087 129.85 163.524 128.08 163.966 127.003C164.363 126.035 165.179 124.615 165.179 124.615C165.179 124.615 165.806 123.372 166.317 122.647C166.759 122.021 167.568 121.137 167.568 121.137L205.627 83.0281L207.112 81.5057C207.112 81.5057 207.747 80.1659 208.04 79.2655C208.315 78.4229 208.503 77.9449 208.585 77.0624C208.666 76.19 208.647 75.6785 208.461 74.8222C208.32 74.1723 208.194 73.8116 207.904 73.2132C207.595 72.5749 207.36 72.2424 206.914 71.6908C206.42 71.0794 206.125 70.7261 205.478 70.2798C204.941 69.9092 204.59 69.7718 203.981 69.5372C203.362 69.2991 202.995 69.217 202.347 69.0793C201.692 68.9401 201.32 68.8485 200.651 68.8317C199.843 68.8115 199.367 68.8366 198.597 69.0793C197.698 69.362 197.278 69.7415 196.505 70.2798C195.98 70.6457 195.218 71.2947 195.218 71.2947C195.218 71.2947 170.127 95.4546 159.065 107.027C156.957 109.232 155.222 111.309 154.176 112.782C152.399 115.283 150.091 119.676 150.091 119.676C150.091 119.676 148.891 122.997 148.408 124.503C147.925 126.009 147.313 128.003 147.034 130.32C146.738 132.787 146.616 134.201 146.75 136.682C146.911 139.691 147.078 141.368 147.69 144.319C148.222 146.879 148.827 148.351 149.794 150.78C150.675 152.991 151.235 154.232 152.554 156.213C153.466 157.582 154.013 158.345 155.166 159.518Z" fill="#AB2526"/>
<path d="M251.802 116.576C239.455 104.23 221.354 85.9183 221.354 85.9183L178.839 128.433C178.839 128.433 177.849 129.376 177.267 130.03C176.616 130.762 176.148 131.122 175.708 131.998C175.328 132.755 175.206 133.238 175.089 134.077C174.983 134.843 175.029 135.286 175.089 136.057C175.141 136.725 175.242 137.1 175.436 137.741C175.619 138.347 175.692 138.682 176.017 139.226C176.303 139.704 176.492 139.958 176.859 140.377C177.265 140.84 177.545 141.05 178.01 141.454C178.415 141.805 178.629 142.022 179.075 142.32C179.748 142.772 180.164 143 180.943 143.224C181.563 143.401 181.933 143.437 182.577 143.459C183.418 143.487 183.907 143.447 184.718 143.224C185.594 142.983 186.076 142.751 186.823 142.233C187.382 141.846 188.122 141.07 188.122 141.07L204.361 124.869C204.361 124.869 206.589 122.703 208.21 121.564C209.48 120.672 210.225 120.201 211.626 119.534C212.686 119.029 213.302 118.781 214.423 118.433C215.523 118.091 216.151 117.896 217.295 117.764C218.447 117.631 219.25 117.764 220.265 117.764C221.28 117.764 222.248 117.64 223.508 117.764C224.818 117.893 225.539 118.098 226.812 118.433C228.146 118.783 228.877 119.046 230.167 119.534C231.301 119.964 231.978 120.136 233.026 120.747C233.73 121.158 234.081 121.459 234.734 121.948L234.795 121.993C235.942 122.851 236.61 123.35 237.642 124.373C238.704 125.426 239.241 126.084 240.118 127.294C240.833 128.282 241.213 128.857 241.789 129.931C242.269 130.827 242.473 131.362 242.878 132.295C243.291 133.247 243.573 133.766 243.88 134.758C244.19 135.755 244.333 136.332 244.45 137.369C244.578 138.508 244.635 139.157 244.635 140.303C244.635 141.468 244.56 142.126 244.45 143.285C244.339 144.457 243.88 146.244 243.88 146.244C243.88 146.244 243.443 148.014 243.002 149.09C242.605 150.058 241.789 151.479 241.789 151.479C241.789 151.479 241.162 152.721 240.65 153.447C240.209 154.073 239.4 154.957 239.4 154.957L201.341 193.066L199.855 194.588C199.855 194.588 199.221 195.928 198.927 196.828C198.653 197.671 198.465 198.149 198.383 199.031C198.301 199.904 198.321 200.415 198.506 201.272C198.647 201.921 198.773 202.282 199.063 202.881C199.372 203.519 199.608 203.851 200.053 204.403C200.548 205.014 200.842 205.368 201.489 205.814C202.027 206.185 202.378 206.322 202.987 206.557C203.605 206.795 203.972 206.877 204.621 207.014C205.275 207.154 205.647 207.245 206.316 207.262C207.124 207.282 207.6 207.257 208.371 207.014C209.269 206.732 209.69 206.352 210.462 205.814C210.988 205.448 211.75 204.799 211.75 204.799C211.75 204.799 236.841 180.639 247.903 169.067C250.01 166.862 251.745 164.784 252.792 163.311C254.569 160.811 256.876 156.417 256.876 156.417C256.876 156.417 258.077 153.096 258.559 151.59C259.042 150.085 259.655 148.091 259.933 145.773C260.23 143.307 260.351 141.892 260.218 139.412C260.056 136.403 259.89 134.725 259.277 131.775C258.746 129.215 258.141 127.743 257.173 125.314C256.293 123.103 255.732 121.861 254.413 119.881C253.501 118.512 252.965 117.739 251.802 116.576Z" fill="#AB2526"/>
<path d="M526 250.5H286.5" stroke="#CCC8C8"/>
</g>
<defs>
<clipPath id="clip0_2225_13351">
<rect width="595" height="842" fill="white"/>
</clipPath>
</defs>
</svg>
