<svg width="160" height="92" viewBox="0 0 160 92" fill="none" xmlns="http://www.w3.org/2000/svg">
<path d="M68 60.5C68 59.78 67.8933 59.1133 67.68 58.5C67.48 57.8733 67.18 57.3333 66.78 56.88C66.38 56.4133 65.88 56.0533 65.28 55.8C64.6933 55.5333 64.0133 55.4 63.24 55.4C61.68 55.4 60.4533 55.8467 59.56 56.74C58.6667 57.6333 58.1 58.8867 57.86 60.5H68ZM57.74 63.14C57.7933 64.3 57.9733 65.3067 58.28 66.16C58.5867 67 58.9933 67.7 59.5 68.26C60.02 68.82 60.6333 69.24 61.34 69.52C62.06 69.7867 62.86 69.92 63.74 69.92C64.58 69.92 65.3067 69.8267 65.92 69.64C66.5333 69.44 67.0667 69.2267 67.52 69C67.9733 68.76 68.36 68.5467 68.68 68.36C69 68.16 69.2933 68.06 69.56 68.06C69.9067 68.06 70.1733 68.1933 70.36 68.46L71.58 70.04C71.0733 70.64 70.5 71.1467 69.86 71.56C69.22 71.9733 68.54 72.3133 67.82 72.58C67.1 72.8333 66.36 73.0133 65.6 73.12C64.84 73.24 64.1 73.3 63.38 73.3C61.9667 73.3 60.6533 73.0667 59.44 72.6C58.24 72.12 57.1933 71.42 56.3 70.5C55.42 69.58 54.7267 68.44 54.22 67.08C53.7267 65.72 53.48 64.1533 53.48 62.38C53.48 60.9667 53.7 59.6467 54.14 58.42C54.5933 57.1933 55.2333 56.1267 56.06 55.22C56.9 54.3133 57.9133 53.6 59.1 53.08C60.3 52.5467 61.6533 52.28 63.16 52.28C64.4133 52.28 65.5733 52.4867 66.64 52.9C67.7067 53.3 68.6267 53.8933 69.4 54.68C70.1733 55.4667 70.7733 56.4333 71.2 57.58C71.64 58.7133 71.86 60.0067 71.86 61.46C71.86 62.1267 71.7867 62.5733 71.64 62.8C71.4933 63.0267 71.2267 63.14 70.84 63.14H57.74ZM93.4613 52.6L85.2613 73H81.3813L73.1813 52.6H76.7213C77.0546 52.6 77.3279 52.6867 77.5413 52.86C77.7679 53.02 77.9146 53.2133 77.9813 53.44L82.5013 65.32C82.6879 65.88 82.8546 66.4333 83.0013 66.98C83.1479 67.5267 83.2746 68.08 83.3813 68.64C83.4879 68.08 83.6146 67.5333 83.7613 67C83.9213 66.4533 84.0946 65.8933 84.2813 65.32L88.8813 53.44C88.9613 53.2 89.1079 53 89.3213 52.84C89.5346 52.68 89.7946 52.6 90.1013 52.6H93.4613ZM109.294 60.5C109.294 59.78 109.187 59.1133 108.974 58.5C108.774 57.8733 108.474 57.3333 108.074 56.88C107.674 56.4133 107.174 56.0533 106.574 55.8C105.987 55.5333 105.307 55.4 104.534 55.4C102.974 55.4 101.747 55.8467 100.854 56.74C99.9604 57.6333 99.3938 58.8867 99.1538 60.5H109.294ZM99.0338 63.14C99.0871 64.3 99.2671 65.3067 99.5738 66.16C99.8804 67 100.287 67.7 100.794 68.26C101.314 68.82 101.927 69.24 102.634 69.52C103.354 69.7867 104.154 69.92 105.034 69.92C105.874 69.92 106.6 69.8267 107.214 69.64C107.827 69.44 108.36 69.2267 108.814 69C109.267 68.76 109.654 68.5467 109.974 68.36C110.294 68.16 110.587 68.06 110.854 68.06C111.2 68.06 111.467 68.1933 111.654 68.46L112.874 70.04C112.367 70.64 111.794 71.1467 111.154 71.56C110.514 71.9733 109.834 72.3133 109.114 72.58C108.394 72.8333 107.654 73.0133 106.894 73.12C106.134 73.24 105.394 73.3 104.674 73.3C103.26 73.3 101.947 73.0667 100.734 72.6C99.5338 72.12 98.4871 71.42 97.5938 70.5C96.7138 69.58 96.0204 68.44 95.5138 67.08C95.0204 65.72 94.7738 64.1533 94.7738 62.38C94.7738 60.9667 94.9938 59.6467 95.4338 58.42C95.8871 57.1933 96.5271 56.1267 97.3538 55.22C98.1938 54.3133 99.2071 53.6 100.394 53.08C101.594 52.5467 102.947 52.28 104.454 52.28C105.707 52.28 106.867 52.4867 107.934 52.9C109 53.3 109.92 53.8933 110.694 54.68C111.467 55.4667 112.067 56.4333 112.494 57.58C112.934 58.7133 113.154 60.0067 113.154 61.46C113.154 62.1267 113.08 62.5733 112.934 62.8C112.787 63.0267 112.52 63.14 112.134 63.14H99.0338ZM121.324 56.38C121.964 55.0867 122.737 54.0733 123.644 53.34C124.55 52.5933 125.637 52.22 126.904 52.22C127.344 52.22 127.757 52.2733 128.144 52.38C128.53 52.4733 128.877 52.62 129.184 52.82L128.884 56.06C128.83 56.2867 128.744 56.4467 128.624 56.54C128.517 56.62 128.37 56.66 128.184 56.66C127.984 56.66 127.697 56.6267 127.324 56.56C126.95 56.48 126.557 56.44 126.144 56.44C125.544 56.44 125.01 56.5267 124.544 56.7C124.09 56.8733 123.677 57.1267 123.304 57.46C122.944 57.7933 122.624 58.2 122.344 58.68C122.064 59.16 121.804 59.7067 121.564 60.32V73H117.264V52.6H119.764C120.217 52.6 120.53 52.6867 120.704 52.86C120.877 53.02 120.997 53.3067 121.064 53.72L121.324 56.38ZM142.717 64.08C141.184 64.1333 139.89 64.26 138.837 64.46C137.784 64.6467 136.93 64.8933 136.277 65.2C135.624 65.4933 135.15 65.8467 134.857 66.26C134.577 66.6733 134.437 67.1267 134.437 67.62C134.437 68.1 134.51 68.5133 134.657 68.86C134.817 69.1933 135.03 69.4733 135.297 69.7C135.577 69.9133 135.897 70.0733 136.257 70.18C136.63 70.2733 137.037 70.32 137.477 70.32C138.597 70.32 139.557 70.1133 140.357 69.7C141.17 69.2733 141.957 68.66 142.717 67.86V64.08ZM131.317 55.44C133.624 53.2933 136.37 52.22 139.557 52.22C140.73 52.22 141.77 52.4133 142.677 52.8C143.597 53.1733 144.364 53.7067 144.977 54.4C145.604 55.0933 146.077 55.92 146.397 56.88C146.73 57.8267 146.897 58.88 146.897 60.04V73H144.977C144.564 73 144.25 72.94 144.037 72.82C143.824 72.6867 143.644 72.4267 143.497 72.04L143.077 70.38C142.557 70.8467 142.044 71.2667 141.537 71.64C141.03 72 140.504 72.3067 139.957 72.56C139.424 72.8133 138.844 73 138.217 73.12C137.604 73.2533 136.924 73.32 136.177 73.32C135.35 73.32 134.577 73.2067 133.857 72.98C133.15 72.7533 132.537 72.4133 132.017 71.96C131.497 71.4933 131.084 70.92 130.777 70.24C130.484 69.56 130.337 68.76 130.337 67.84C130.337 67.0533 130.544 66.2867 130.957 65.54C131.384 64.7933 132.077 64.1267 133.037 63.54C134.01 62.94 135.284 62.4467 136.857 62.06C138.444 61.6733 140.397 61.4533 142.717 61.4V60.04C142.717 58.5733 142.404 57.48 141.777 56.76C141.15 56.04 140.23 55.68 139.017 55.68C138.19 55.68 137.497 55.7867 136.937 56C136.377 56.2 135.89 56.42 135.477 56.66C135.064 56.9 134.697 57.1267 134.377 57.34C134.057 57.54 133.717 57.64 133.357 57.64C133.064 57.64 132.81 57.5667 132.597 57.42C132.397 57.26 132.23 57.0667 132.097 56.84L131.317 55.44ZM156.414 43.4V73H152.114V43.4H156.414Z" fill="#1F1D1C"/>
<path d="M108.232 77.34V77.68H105.252V79.968H107.732V80.3H105.252V82.66H108.232V83H104.84V77.34H108.232ZM114.107 77.34C114.144 77.34 114.173 77.3453 114.195 77.356C114.216 77.364 114.239 77.384 114.263 77.416L117.927 82.32C117.919 82.24 117.915 82.1627 117.915 82.088V77.34H118.275V83H118.079C118.017 83 117.968 82.9733 117.931 82.92L114.251 78.008C114.259 78.088 114.263 78.164 114.263 78.236V83H113.907V77.34H114.107ZM127.685 77.34V77.68H124.705V79.968H127.185V80.3H124.705V82.66H127.685V83H124.293V77.34H127.685ZM133.888 80.44V83H133.48V77.34H134.924C135.577 77.34 136.065 77.4667 136.388 77.72C136.711 77.9707 136.872 78.34 136.872 78.828C136.872 79.044 136.835 79.2413 136.76 79.42C136.685 79.5987 136.577 79.756 136.436 79.892C136.297 80.0253 136.129 80.136 135.932 80.224C135.735 80.3093 135.512 80.3653 135.264 80.392C135.328 80.432 135.385 80.4853 135.436 80.552L137.384 83H137.028C136.985 83 136.948 82.992 136.916 82.976C136.887 82.96 136.857 82.9333 136.828 82.896L135.016 80.6C134.971 80.5413 134.921 80.5 134.868 80.476C134.817 80.452 134.737 80.44 134.628 80.44H133.888ZM133.888 80.136H134.872C135.123 80.136 135.347 80.1067 135.544 80.048C135.744 79.9867 135.912 79.9 136.048 79.788C136.187 79.676 136.292 79.5413 136.364 79.384C136.436 79.2267 136.472 79.0493 136.472 78.852C136.472 78.4493 136.34 78.1507 136.076 77.956C135.812 77.7613 135.428 77.664 134.924 77.664H133.888V80.136ZM145.007 82.732C145.202 82.732 145.379 82.7227 145.539 82.704C145.699 82.6827 145.847 82.652 145.983 82.612C146.122 82.572 146.252 82.524 146.375 82.468C146.5 82.4093 146.626 82.344 146.751 82.272V80.748H145.663C145.634 80.748 145.608 80.7387 145.587 80.72C145.568 80.7013 145.559 80.68 145.559 80.656V80.432H147.123V82.444C146.982 82.5427 146.835 82.6307 146.683 82.708C146.531 82.7853 146.368 82.8507 146.195 82.904C146.022 82.9547 145.835 82.9933 145.635 83.02C145.435 83.0493 145.216 83.064 144.979 83.064C144.571 83.064 144.198 82.996 143.859 82.86C143.523 82.7213 143.234 82.5267 142.991 82.276C142.751 82.0227 142.564 81.7173 142.431 81.36C142.298 81.0027 142.231 80.6053 142.231 80.168C142.231 79.7307 142.298 79.3347 142.431 78.98C142.564 78.6227 142.754 78.3187 142.999 78.068C143.244 77.8147 143.542 77.62 143.891 77.484C144.243 77.3453 144.636 77.276 145.071 77.276C145.287 77.276 145.486 77.2907 145.667 77.32C145.851 77.3493 146.022 77.3933 146.179 77.452C146.336 77.508 146.483 77.5787 146.619 77.664C146.755 77.7467 146.886 77.8427 147.011 77.952L146.903 78.128C146.879 78.168 146.846 78.188 146.803 78.188C146.779 78.188 146.756 78.1827 146.735 78.172C146.695 78.156 146.636 78.1187 146.559 78.06C146.484 78.0013 146.382 77.94 146.251 77.876C146.123 77.812 145.962 77.7547 145.767 77.704C145.572 77.6533 145.336 77.628 145.059 77.628C144.691 77.628 144.359 77.6867 144.063 77.804C143.767 77.9213 143.514 78.0893 143.303 78.308C143.095 78.5267 142.934 78.7933 142.819 79.108C142.707 79.4227 142.651 79.776 142.651 80.168C142.651 80.568 142.708 80.9267 142.823 81.244C142.938 81.5613 143.098 81.8307 143.303 82.052C143.511 82.2707 143.759 82.4387 144.047 82.556C144.338 82.6733 144.658 82.732 145.007 82.732ZM154.663 80.664V83H154.251V80.664L152.159 77.34H152.515C152.553 77.34 152.582 77.3493 152.603 77.368C152.627 77.384 152.65 77.408 152.671 77.44L154.291 80.04C154.329 80.1013 154.361 80.1613 154.387 80.22C154.414 80.276 154.438 80.3333 154.459 80.392C154.481 80.3333 154.505 80.276 154.531 80.22C154.558 80.1613 154.59 80.1013 154.627 80.04L156.243 77.44C156.259 77.4107 156.279 77.3867 156.303 77.368C156.327 77.3493 156.358 77.34 156.395 77.34H156.755L154.663 80.664Z" fill="#877F7D"/>
<path d="M15.2068 54.3359C19.8383 59.0471 26.7342 65.9429 26.7342 65.9429L42.8304 49.8468C42.8304 49.8468 43.2053 49.4898 43.4255 49.2423C43.6722 48.9649 43.8492 48.829 44.0159 48.4972C44.1599 48.2106 44.2061 48.0277 44.2502 47.71C44.2905 47.42 44.2729 47.2522 44.2502 46.9603C44.2305 46.7077 44.1922 46.5655 44.119 46.323C44.0498 46.0933 44.0218 45.9666 43.8988 45.7607C43.7906 45.5797 43.7192 45.4833 43.5801 45.3249C43.4264 45.1497 43.3203 45.07 43.1443 44.9172C42.9911 44.7841 42.9099 44.7022 42.7413 44.5892C42.4864 44.4183 42.3288 44.3316 42.0338 44.2471C41.7991 44.1799 41.6591 44.1663 41.4152 44.1581C41.0969 44.1474 40.9116 44.1627 40.6045 44.2471C40.273 44.3382 40.0906 44.4262 39.8079 44.622C39.5959 44.7688 39.3159 45.0625 39.3159 45.0625L33.168 51.1963C33.168 51.1963 32.3245 52.0164 31.7107 52.4475C31.2299 52.7851 30.9478 52.9634 30.4173 53.216C30.016 53.4071 29.7828 53.5011 29.3583 53.633C28.942 53.7623 28.7042 53.8361 28.2712 53.8861C27.8349 53.9364 27.5308 53.8861 27.1466 53.8861C26.7623 53.8861 26.396 53.9329 25.9188 53.8861C25.4227 53.8374 25.1498 53.7598 24.6677 53.633C24.1629 53.5003 23.886 53.4008 23.3978 53.216C22.9684 53.0534 22.7121 52.988 22.3154 52.7567C22.0487 52.6013 21.9159 52.487 21.6687 52.3022L21.6456 52.285C21.2114 51.9603 20.9583 51.7712 20.5675 51.3838C20.1655 50.9852 19.9624 50.7363 19.6303 50.2779C19.3596 49.9042 19.2158 49.6865 18.9977 49.2798C18.8158 48.9406 18.7386 48.7378 18.5854 48.3848C18.4289 48.0241 18.3223 47.8278 18.2058 47.4523C18.0887 47.0748 18.0346 46.8562 17.9903 46.4635C17.9416 46.0326 17.92 45.7867 17.92 45.353C17.92 44.912 17.9486 44.6627 17.9903 44.2237C18.0323 43.7803 18.2058 43.1037 18.2058 43.1037C18.2058 43.1037 18.3714 42.4335 18.5385 42.026C18.6888 41.6595 18.9977 41.1216 18.9977 41.1216C18.9977 41.1216 19.2351 40.6512 19.4288 40.3765C19.5959 40.1397 19.9021 39.8048 19.9021 39.8048L34.3113 25.3769L34.8737 24.8005C34.8737 24.8005 35.114 24.2932 35.2251 23.9523C35.3291 23.6333 35.4002 23.4523 35.4313 23.1182C35.462 22.7879 35.4547 22.5943 35.3844 22.2701C35.3311 22.0241 35.2833 21.8875 35.1736 21.6609C35.0565 21.4193 34.9675 21.2934 34.7987 21.0846C34.6116 20.8531 34.5001 20.7193 34.2551 20.5504C34.0517 20.41 33.9188 20.358 33.6881 20.2692C33.454 20.1791 33.315 20.148 33.0696 20.0958C32.8217 20.0431 32.6809 20.0084 32.4276 20.0021C32.1217 19.9944 31.9416 20.004 31.6497 20.0958C31.3096 20.2029 31.1504 20.3466 30.8578 20.5504C30.6589 20.6889 30.3705 20.9346 30.3705 20.9346C30.3705 20.9346 20.8711 30.0815 16.6829 34.4629C15.885 35.2975 15.2282 36.0842 14.8319 36.6418C14.1592 37.5885 13.2856 39.2519 13.2856 39.2519C13.2856 39.2519 12.831 40.5093 12.6483 41.0794C12.4655 41.6495 12.2336 42.4044 12.1282 43.2818C12.0159 44.2157 11.9699 44.7511 12.0204 45.6904C12.0817 46.8295 12.1446 47.4646 12.3765 48.5816C12.5778 49.5508 12.8068 50.108 13.1731 51.0276C13.5065 51.8647 13.7186 52.3348 14.2181 53.0848C14.5633 53.6031 14.7702 53.8918 15.2068 54.3359Z" fill="#FF8523"/>
<path d="M51.7932 38.0782C47.1188 33.4038 40.2658 26.4711 40.2658 26.4711L24.1696 42.5673C24.1696 42.5673 23.7947 42.9242 23.5745 43.1718C23.3278 43.4492 23.1508 43.5851 22.9841 43.9168C22.8401 44.2034 22.7939 44.3863 22.7498 44.7041C22.7095 44.9941 22.7271 45.1619 22.7498 45.4538C22.7695 45.7064 22.8078 45.8485 22.881 46.0911C22.9502 46.3208 22.9782 46.4475 23.1012 46.6534C23.2094 46.8344 23.2808 46.9307 23.4199 47.0892C23.5736 47.2644 23.6797 47.344 23.8557 47.4969C24.0089 47.6299 24.0901 47.7119 24.2587 47.8249C24.5136 47.9958 24.6712 48.0824 24.9662 48.167C25.2009 48.2342 25.3409 48.2478 25.5848 48.256C25.9031 48.2667 26.0884 48.2514 26.3955 48.167C26.727 48.0758 26.9094 47.9879 27.1921 47.7921C27.4041 47.6452 27.6841 47.3516 27.6841 47.3516L33.832 41.2177C33.832 41.2177 34.6755 40.3977 35.2894 39.9666C35.7701 39.6289 36.0522 39.4507 36.5827 39.1981C36.984 39.007 37.2172 38.9129 37.6417 38.781C38.058 38.6517 38.2958 38.5779 38.7288 38.528C39.1651 38.4777 39.4692 38.528 39.8534 38.528C40.2377 38.528 40.604 38.4812 41.0812 38.528C41.5773 38.5767 41.8502 38.6543 42.3323 38.781C42.8371 38.9138 43.114 39.0133 43.6022 39.1981C44.0316 39.3607 44.2879 39.4261 44.6846 39.6573C44.9513 39.8128 45.0841 39.927 45.3313 40.1118L45.3544 40.1291C45.7886 40.4537 46.0417 40.6429 46.4325 41.0303C46.8345 41.4288 47.0376 41.6777 47.3697 42.1362C47.6404 42.5099 47.7842 42.7276 48.0023 43.1343C48.1842 43.4734 48.2615 43.6762 48.4146 44.0293C48.5711 44.39 48.6777 44.5863 48.7942 44.9618C48.9113 45.3392 48.9654 45.5578 49.0097 45.9505C49.0584 46.3815 49.08 46.6274 49.08 47.0611C49.08 47.5021 49.0514 47.7513 49.0097 48.1904C48.9677 48.6338 48.7942 49.3103 48.7942 49.3103C48.7942 49.3103 48.6286 49.9805 48.4615 50.3881C48.3112 50.7546 48.0023 51.2925 48.0023 51.2925C48.0023 51.2925 47.7649 51.7628 47.5712 52.0375C47.4041 52.2744 47.0979 52.6092 47.0979 52.6092L32.6887 67.0372L32.1263 67.6136C32.1263 67.6136 31.886 68.1208 31.7749 68.4617C31.6709 68.7807 31.5998 68.9617 31.5687 69.2958C31.538 69.6261 31.5453 69.8198 31.6156 70.144C31.6689 70.39 31.7167 70.5266 31.8264 70.7531C31.9435 70.9948 32.0325 71.1207 32.2013 71.3295C32.3884 71.561 32.4999 71.6947 32.7449 71.8637C32.9483 72.004 33.0812 72.0561 33.3119 72.1449C33.546 72.235 33.685 72.2661 33.9304 72.3182C34.1783 72.3709 34.3191 72.4056 34.5724 72.412C34.8783 72.4196 35.0584 72.4101 35.3503 72.3182C35.6904 72.2112 35.8496 72.0675 36.1422 71.8637C36.3411 71.7252 36.6295 71.4795 36.6295 71.4795C36.6295 71.4795 46.129 62.3325 50.3171 57.9512C51.115 57.1165 51.7718 56.3299 52.1681 55.7722C52.8408 54.8255 53.7144 53.1622 53.7144 53.1622C53.7144 53.1622 54.169 51.9048 54.3517 51.3347C54.5345 50.7645 54.7664 50.0097 54.8718 49.1323C54.9841 48.1984 55.0301 47.6629 54.9796 46.7237C54.9183 45.5845 54.8554 44.9495 54.6235 43.8325C54.4222 42.8633 54.1932 42.306 53.8269 41.3864C53.4935 40.5493 53.2814 40.0792 52.7819 39.3293C52.4367 38.811 52.2335 38.5185 51.7932 38.0782Z" fill="#FF8523"/>
</svg>
