<svg width="234" height="134" viewBox="0 0 234 134" fill="none" xmlns="http://www.w3.org/2000/svg">
<path d="M99.0434 88.7935C99.0434 87.7448 98.888 86.7738 98.5773 85.8804C98.286 84.9677 97.849 84.1812 97.2664 83.5209C96.6838 82.8412 95.9555 82.3168 95.0816 81.9478C94.2271 81.5594 93.2367 81.3652 92.1103 81.3652C89.8381 81.3652 88.0515 82.0158 86.7503 83.317C85.4492 84.6181 84.6238 86.4436 84.2742 88.7935H99.0434ZM84.0994 92.6387C84.1771 94.3283 84.4393 95.7945 84.886 97.0374C85.3326 98.2609 85.925 99.2804 86.6629 100.096C87.4203 100.912 88.3137 101.523 89.3429 101.931C90.3916 102.32 91.5568 102.514 92.8386 102.514C94.0621 102.514 95.1205 102.378 96.0138 102.106C96.9071 101.815 97.6839 101.504 98.3442 101.174C99.0045 100.824 99.5677 100.514 100.034 100.242C100.5 99.9504 100.927 99.8048 101.316 99.8048C101.82 99.8048 102.209 99.999 102.481 100.387L104.258 102.689C103.52 103.563 102.685 104.301 101.752 104.903C100.82 105.505 99.8299 106 98.7812 106.388C97.7325 106.757 96.6547 107.019 95.5477 107.175C94.4408 107.35 93.3629 107.437 92.3142 107.437C90.2557 107.437 88.3428 107.097 86.5755 106.417C84.8277 105.718 83.3032 104.699 82.0021 103.359C80.7203 102.019 79.7105 100.358 78.9725 98.3774C78.2539 96.3965 77.8947 94.1146 77.8947 91.5317C77.8947 89.4732 78.2151 87.5506 78.856 85.7639C79.5163 83.9772 80.4484 82.4236 81.6525 81.103C82.876 79.7825 84.3519 78.7435 86.0803 77.9861C87.8281 77.2093 89.7993 76.8209 91.9938 76.8209C93.8193 76.8209 95.5089 77.1219 97.0625 77.7239C98.6161 78.3065 99.9561 79.1707 101.082 80.3165C102.209 81.4623 103.083 82.8703 103.704 84.5404C104.345 86.1912 104.666 88.0749 104.666 90.1917C104.666 91.1628 104.559 91.8133 104.345 92.1435C104.131 92.4736 103.743 92.6387 103.18 92.6387H84.0994ZM136.128 77.287L124.185 107H118.533L106.59 77.287H111.746C112.232 77.287 112.63 77.4132 112.94 77.6656C113.271 77.8987 113.484 78.1803 113.581 78.5104L120.165 95.8139C120.437 96.6296 120.679 97.4355 120.893 98.2317C121.107 99.028 121.291 99.8339 121.446 100.65C121.602 99.8339 121.786 99.0377 122 98.2609C122.233 97.4646 122.485 96.649 122.757 95.8139L129.457 78.5104C129.574 78.1609 129.788 77.8696 130.098 77.6365C130.409 77.4035 130.788 77.287 131.234 77.287H136.128ZM159.189 88.7935C159.189 87.7448 159.033 86.7738 158.723 85.8804C158.431 84.9677 157.994 84.1812 157.412 83.5209C156.829 82.8412 156.101 82.3168 155.227 81.9478C154.372 81.5594 153.382 81.3652 152.256 81.3652C149.983 81.3652 148.197 82.0158 146.896 83.317C145.594 84.6181 144.769 86.4436 144.419 88.7935H159.189ZM144.245 92.6387C144.322 94.3283 144.585 95.7945 145.031 97.0374C145.478 98.2609 146.07 99.2804 146.808 100.096C147.566 100.912 148.459 101.523 149.488 101.931C150.537 102.32 151.702 102.514 152.984 102.514C154.207 102.514 155.266 102.378 156.159 102.106C157.052 101.815 157.829 101.504 158.489 101.174C159.15 100.824 159.713 100.514 160.179 100.242C160.645 99.9504 161.072 99.8048 161.461 99.8048C161.966 99.8048 162.354 99.999 162.626 100.387L164.403 102.689C163.665 103.563 162.83 104.301 161.898 104.903C160.966 105.505 159.975 106 158.926 106.388C157.878 106.757 156.8 107.019 155.693 107.175C154.586 107.35 153.508 107.437 152.459 107.437C150.401 107.437 148.488 107.097 146.721 106.417C144.973 105.718 143.448 104.699 142.147 103.359C140.866 102.019 139.856 100.358 139.118 98.3774C138.399 96.3965 138.04 94.1146 138.04 91.5317C138.04 89.4732 138.36 87.5506 139.001 85.7639C139.662 83.9772 140.594 82.4236 141.798 81.103C143.021 79.7825 144.497 78.7435 146.226 77.9861C147.973 77.2093 149.945 76.8209 152.139 76.8209C153.965 76.8209 155.654 77.1219 157.208 77.7239C158.761 78.3065 160.101 79.1707 161.228 80.3165C162.354 81.4623 163.228 82.8703 163.849 84.5404C164.49 86.1912 164.811 88.0749 164.811 90.1917C164.811 91.1628 164.704 91.8133 164.49 92.1435C164.277 92.4736 163.888 92.6387 163.325 92.6387H144.245ZM176.711 82.7926C177.643 80.9088 178.769 79.4329 180.09 78.3648C181.41 77.2772 182.993 76.7335 184.838 76.7335C185.479 76.7335 186.081 76.8112 186.644 76.9665C187.207 77.1025 187.712 77.3161 188.159 77.6074L187.722 82.3265C187.644 82.6567 187.518 82.8897 187.343 83.0257C187.188 83.1422 186.974 83.2004 186.702 83.2004C186.411 83.2004 185.993 83.1519 185.45 83.0548C184.906 82.9383 184.333 82.88 183.731 82.88C182.857 82.88 182.08 83.0062 181.401 83.2587C180.74 83.5112 180.138 83.8801 179.594 84.3657C179.07 84.8512 178.604 85.4435 178.196 86.1426C177.788 86.8417 177.41 87.638 177.06 88.5313V107H170.797V77.287H174.438C175.099 77.287 175.555 77.4132 175.808 77.6656C176.06 77.8987 176.235 78.3162 176.332 78.9183L176.711 82.7926ZM207.87 94.0078C205.637 94.0855 203.753 94.27 202.219 94.5613C200.685 94.8332 199.442 95.1925 198.49 95.6391C197.539 96.0664 196.849 96.581 196.422 97.183C196.014 97.7851 195.81 98.4454 195.81 99.1639C195.81 99.863 195.917 100.465 196.131 100.97C196.364 101.456 196.674 101.863 197.063 102.193C197.471 102.504 197.937 102.737 198.461 102.893C199.005 103.029 199.597 103.097 200.238 103.097C201.869 103.097 203.268 102.796 204.433 102.193C205.617 101.572 206.763 100.679 207.87 99.5135V94.0078ZM191.266 81.4235C194.625 78.2968 198.626 76.7335 203.268 76.7335C204.976 76.7335 206.491 77.0151 207.812 77.5783C209.152 78.122 210.269 78.8988 211.162 79.9087C212.075 80.9185 212.764 82.1226 213.23 83.5209C213.716 84.8997 213.958 86.4339 213.958 88.1235V107H211.162C210.56 107 210.103 106.913 209.793 106.738C209.482 106.544 209.22 106.165 209.006 105.602L208.394 103.184C207.637 103.864 206.889 104.475 206.151 105.019C205.413 105.543 204.646 105.99 203.85 106.359C203.073 106.728 202.229 107 201.316 107.175C200.422 107.369 199.432 107.466 198.344 107.466C197.14 107.466 196.014 107.301 194.965 106.971C193.936 106.641 193.043 106.146 192.285 105.485C191.528 104.806 190.926 103.97 190.479 102.98C190.052 101.99 189.838 100.824 189.838 99.4843C189.838 98.3386 190.139 97.2219 190.741 96.1343C191.363 95.0468 192.373 94.0758 193.771 93.2213C195.189 92.3474 197.043 91.6288 199.335 91.0657C201.646 90.5025 204.491 90.182 207.87 90.1043V88.1235C207.87 85.9872 207.414 84.3948 206.501 83.3461C205.588 82.2974 204.248 81.773 202.481 81.773C201.277 81.773 200.267 81.9284 199.451 82.2391C198.636 82.5304 197.927 82.8509 197.325 83.2004C196.723 83.55 196.189 83.8801 195.723 84.1909C195.257 84.4822 194.761 84.6278 194.237 84.6278C193.81 84.6278 193.441 84.521 193.13 84.3074C192.839 84.0743 192.596 83.7928 192.402 83.4626L191.266 81.4235ZM227.82 63.887V107H221.557V63.887H227.82Z" fill="#1E1A1A"/>
<path d="M157.695 120.123L157.689 121.043H152.544V112.695H157.689V113.615H153.675V116.388H156.926V117.274H153.675V120.123H157.695ZM172.355 112.695V121.043H171.79C171.7 121.043 171.625 121.028 171.563 120.997C171.504 120.966 171.446 120.913 171.388 120.84L166.558 114.547C166.566 114.644 166.572 114.74 166.575 114.833C166.579 114.926 166.581 115.013 166.581 115.095V121.043H165.591V112.695H166.173C166.224 112.695 166.267 112.699 166.302 112.706C166.337 112.71 166.368 112.72 166.395 112.735C166.422 112.747 166.449 112.767 166.476 112.794C166.504 112.817 166.533 112.848 166.564 112.887L171.394 119.173C171.386 119.072 171.378 118.975 171.37 118.882C171.366 118.785 171.364 118.694 171.364 118.608V112.695H172.355ZM185.961 120.123L185.955 121.043H180.811V112.695H185.955V113.615H181.941V116.388H185.192V117.274H181.941V120.123H185.961ZM196.17 116.738C196.496 116.738 196.784 116.699 197.032 116.621C197.285 116.54 197.494 116.427 197.661 116.284C197.832 116.136 197.96 115.961 198.046 115.759C198.131 115.557 198.174 115.334 198.174 115.089C198.174 114.592 198.011 114.217 197.685 113.965C197.358 113.712 196.869 113.586 196.216 113.586H194.981V116.738H196.17ZM200.027 121.043H199.025C198.819 121.043 198.667 120.964 198.57 120.805L196.403 117.822C196.337 117.728 196.265 117.662 196.187 117.624C196.114 117.581 195.997 117.559 195.838 117.559H194.981V121.043H193.857V112.695H196.216C196.745 112.695 197.201 112.749 197.586 112.858C197.97 112.963 198.287 113.116 198.535 113.318C198.788 113.52 198.974 113.765 199.095 114.052C199.215 114.336 199.275 114.654 199.275 115.008C199.275 115.303 199.229 115.579 199.135 115.835C199.042 116.091 198.906 116.322 198.727 116.528C198.553 116.73 198.337 116.903 198.081 117.047C197.828 117.19 197.541 117.299 197.219 117.373C197.362 117.455 197.487 117.573 197.591 117.728L200.027 121.043ZM214.185 117.029V120.234C213.766 120.537 213.317 120.764 212.84 120.915C212.366 121.063 211.845 121.137 211.278 121.137C210.606 121.137 210 121.034 209.46 120.828C208.921 120.618 208.458 120.327 208.074 119.954C207.693 119.577 207.4 119.127 207.194 118.602C206.988 118.078 206.885 117.501 206.885 116.872C206.885 116.235 206.984 115.654 207.182 115.13C207.384 114.606 207.67 114.157 208.039 113.784C208.408 113.407 208.857 113.116 209.385 112.91C209.913 112.704 210.503 112.601 211.156 112.601C211.486 112.601 211.793 112.627 212.076 112.677C212.36 112.724 212.622 112.794 212.863 112.887C213.104 112.976 213.327 113.087 213.533 113.219C213.739 113.347 213.931 113.493 214.11 113.656L213.789 114.169C213.739 114.246 213.673 114.297 213.591 114.32C213.514 114.34 213.426 114.32 213.329 114.262C213.236 114.208 213.129 114.141 213.009 114.064C212.888 113.986 212.741 113.912 212.566 113.842C212.395 113.769 212.191 113.706 211.954 113.656C211.721 113.605 211.443 113.58 211.121 113.58C210.651 113.58 210.226 113.658 209.845 113.813C209.464 113.965 209.14 114.184 208.872 114.472C208.604 114.755 208.398 115.101 208.254 115.509C208.111 115.913 208.039 116.367 208.039 116.872C208.039 117.396 208.113 117.866 208.26 118.282C208.412 118.694 208.625 119.045 208.901 119.336C209.181 119.624 209.519 119.843 209.915 119.995C210.311 120.146 210.756 120.222 211.249 120.222C211.638 120.222 211.981 120.179 212.28 120.094C212.583 120.004 212.878 119.882 213.166 119.727V117.892H211.867C211.793 117.892 211.733 117.87 211.686 117.827C211.643 117.785 211.622 117.732 211.622 117.67V117.029H214.185ZM225.178 117.717V121.043H224.047V117.717L220.989 112.695H221.979C222.08 112.695 222.16 112.72 222.218 112.77C222.276 112.817 222.327 112.879 222.37 112.957L224.281 116.202C224.35 116.338 224.415 116.466 224.473 116.587C224.531 116.703 224.582 116.821 224.624 116.942C224.667 116.821 224.716 116.703 224.77 116.587C224.824 116.466 224.884 116.338 224.951 116.202L226.856 112.957C226.891 112.891 226.939 112.831 227.001 112.776C227.063 112.722 227.143 112.695 227.24 112.695H228.236L225.178 117.717Z" fill="#877F7D"/>
<path d="M22.1491 79.1415C28.8949 86.0034 38.939 96.0474 38.939 96.0474L62.3834 72.603C62.3834 72.603 62.9295 72.0831 63.2502 71.7225C63.6095 71.3185 63.8673 71.1205 64.1101 70.6373C64.3199 70.2199 64.3871 69.9535 64.4514 69.4907C64.5101 69.0683 64.4845 68.8239 64.4514 68.3987C64.4227 68.0308 64.3669 67.8238 64.2603 67.4705C64.1594 67.1359 64.1187 66.9514 63.9395 66.6514C63.782 66.3878 63.6779 66.2475 63.4754 66.0167C63.2515 65.7616 63.0969 65.6455 62.8407 65.4229C62.6175 65.2291 62.4992 65.1097 62.2537 64.9452C61.8824 64.6962 61.6528 64.57 61.2231 64.4469C60.8814 64.349 60.6774 64.3292 60.3222 64.3172C59.8585 64.3017 59.5887 64.324 59.1414 64.4469C58.6585 64.5796 58.3928 64.7077 57.9811 64.9929C57.6724 65.2068 57.2645 65.6345 57.2645 65.6345L48.3099 74.5686C48.3099 74.5686 47.0813 75.7631 46.1873 76.3909C45.487 76.8827 45.0761 77.1423 44.3035 77.5103C43.719 77.7886 43.3793 77.9256 42.761 78.1177C42.1547 78.3061 41.8083 78.4136 41.1776 78.4863C40.5421 78.5595 40.0992 78.4863 39.5396 78.4863C38.9799 78.4863 38.4464 78.5545 37.7514 78.4863C37.0288 78.4154 36.6313 78.3023 35.9291 78.1177C35.1938 77.9244 34.7905 77.7795 34.0794 77.5103C33.454 77.2734 33.0807 77.1782 32.5028 76.8414C32.1144 76.615 31.921 76.4486 31.561 76.1794L31.5273 76.1542C30.8948 75.6814 30.5263 75.4059 29.957 74.8416C29.3715 74.2612 29.0757 73.8986 28.592 73.2309C28.1977 72.6866 27.9883 72.3695 27.6706 71.7771C27.4057 71.2832 27.2931 70.9877 27.07 70.4735C26.842 69.9482 26.6868 69.6623 26.5172 69.1153C26.3466 68.5656 26.2677 68.2472 26.2032 67.6752C26.1324 67.0475 26.1008 66.6894 26.1008 66.0577C26.1008 65.4153 26.1425 65.0523 26.2032 64.4128C26.2645 63.767 26.5172 62.7816 26.5172 62.7816C26.5172 62.7816 26.7583 61.8054 27.0017 61.2118C27.2206 60.678 27.6706 59.8945 27.6706 59.8945C27.6706 59.8945 28.0163 59.2095 28.2985 58.8093C28.5418 58.4643 28.9879 57.9767 28.9879 57.9767L49.9752 36.962L50.7942 36.1225C50.7942 36.1225 51.1443 35.3837 51.3061 34.8872C51.4576 34.4225 51.5612 34.1589 51.6064 33.6723C51.6512 33.1912 51.6405 32.9091 51.5382 32.4369C51.4605 32.0786 51.3909 31.8797 51.2311 31.5497C51.0606 31.1977 50.9309 31.0143 50.685 30.7102C50.4125 30.373 50.2502 30.1782 49.8933 29.9321C49.597 29.7277 49.4034 29.6519 49.0675 29.5226C48.7265 29.3913 48.524 29.346 48.1666 29.2701C47.8056 29.1933 47.6004 29.1428 47.2315 29.1336C46.786 29.1224 46.5236 29.1362 46.0985 29.2701C45.6031 29.426 45.3713 29.6353 44.9451 29.9321C44.6554 30.1338 44.2353 30.4918 44.2353 30.4918C44.2353 30.4918 30.3991 43.8145 24.299 50.196C23.1369 51.4117 22.1802 52.5575 21.6031 53.3697C20.6232 54.7486 19.3507 57.1713 19.3507 57.1713C19.3507 57.1713 18.6887 59.0027 18.4225 59.8331C18.1563 60.6635 17.8185 61.7629 17.6649 63.0409C17.5015 64.4012 17.4344 65.181 17.508 66.5491C17.5973 68.2083 17.6889 69.1333 18.0267 70.7602C18.3198 72.1719 18.6535 72.9835 19.1869 74.3229C19.6726 75.5422 19.9814 76.2269 20.709 77.3192C21.2118 78.0741 21.5132 78.4947 22.1491 79.1415Z" fill="#AB2526"/>
<path d="M75.4379 55.4617C68.6295 48.6534 58.648 38.5558 58.648 38.5558L35.2036 62.0002C35.2036 62.0002 34.6574 62.5201 34.3368 62.8806C33.9774 63.2847 33.7196 63.4826 33.4768 63.9658C33.267 64.3833 33.1998 64.6497 33.1355 65.1124C33.0769 65.5348 33.1024 65.7793 33.1355 66.2045C33.1642 66.5724 33.22 66.7794 33.3266 67.1327C33.4275 67.4672 33.4682 67.6517 33.6474 67.9517C33.8049 68.2153 33.909 68.3556 34.1115 68.5864C34.3354 68.8416 34.49 68.9576 34.7463 69.1802C34.9694 69.3741 35.0877 69.4934 35.3332 69.658C35.7045 69.9069 35.9341 70.0331 36.3638 70.1562C36.7055 70.2541 36.9095 70.274 37.2648 70.2859C37.7284 70.3015 37.9982 70.2792 38.4455 70.1562C38.9284 70.0235 39.1941 69.8954 39.6058 69.6102C39.9145 69.3963 40.3224 68.9686 40.3224 68.9686L49.277 60.0345C49.277 60.0345 50.5056 58.8401 51.3997 58.2122C52.0999 57.7204 52.5108 57.4608 53.2834 57.0929C53.8679 56.8145 54.2076 56.6775 54.8259 56.4854C55.4322 56.2971 55.7786 56.1896 56.4093 56.1169C57.0448 56.0436 57.4877 56.1169 58.0474 56.1169C58.607 56.1169 59.1406 56.0487 59.8355 56.1169C60.5581 56.1878 60.9557 56.3008 61.6579 56.4854C62.3932 56.6787 62.7965 56.8237 63.5075 57.0929C64.133 57.3297 64.5063 57.4249 65.0841 57.7617C65.4725 57.9882 65.6659 58.1546 66.026 58.4238L66.0596 58.4489C66.6921 58.9218 67.0606 59.1972 67.6299 59.7615C68.2155 60.342 68.5112 60.7045 68.9949 61.3723C69.3892 61.9166 69.5986 62.2337 69.9163 62.826C70.1812 63.32 70.2938 63.6154 70.5169 64.1296C70.7449 64.655 70.9001 64.9409 71.0698 65.4878C71.2403 66.0376 71.3192 66.3559 71.3837 66.9279C71.4545 67.5556 71.4861 67.9138 71.4861 68.5455C71.4861 69.1879 71.4444 69.5509 71.3837 70.1904C71.3224 70.8362 71.0698 71.8216 71.0698 71.8216C71.0698 71.8216 70.8286 72.7977 70.5852 73.3914C70.3663 73.9252 69.9163 74.7086 69.9163 74.7086C69.9163 74.7086 69.5706 75.3937 69.2884 75.7938C69.0451 76.1388 68.599 76.6265 68.599 76.6265L47.6117 97.6411L46.7927 98.4806C46.7927 98.4806 46.4426 99.2195 46.2808 99.716C46.1293 100.181 46.0257 100.444 45.9805 100.931C45.9357 101.412 45.9464 101.694 46.0487 102.166C46.1264 102.525 46.196 102.723 46.3559 103.053C46.5263 103.405 46.656 103.589 46.9019 103.893C47.1744 104.23 47.3367 104.425 47.6936 104.671C47.9899 104.875 48.1835 104.951 48.5194 105.081C48.8604 105.212 49.0629 105.257 49.4204 105.333C49.7813 105.41 49.9865 105.46 50.3554 105.47C50.8009 105.481 51.0633 105.467 51.4884 105.333C51.9838 105.177 52.2156 104.968 52.6418 104.671C52.9315 104.469 53.3516 104.111 53.3516 104.111C53.3516 104.111 67.1878 90.7887 73.2879 84.4072C74.45 83.1915 75.4067 82.0457 75.9839 81.2335C76.9637 79.8546 78.2362 77.4318 78.2362 77.4318C78.2362 77.4318 78.8982 75.6004 79.1644 74.77C79.4306 73.9396 79.7684 72.8402 79.922 71.5622C80.0854 70.202 80.1525 69.4221 80.0789 68.0541C79.9896 66.3949 79.898 65.4699 79.5602 63.843C79.2671 62.4313 78.9335 61.6197 78.4 60.2802C77.9144 59.061 77.6055 58.3763 76.878 57.284C76.3751 56.5291 76.0792 56.103 75.4379 55.4617Z" fill="#AB2526"/>
</svg>
